/* XPM */
static char *result[] = {
/* columns rows colors chars-per-pixel */
"64 64 218 2 ",
"   c black",
".  c #010101",
"X  c #020202",
"o  c gray1",
"O  c #040404",
"+  c gray2",
"@  c #060606",
"#  c #070707",
"$  c gray3",
"%  c #090909",
"&  c gray4",
"*  c #0B0B0B",
"=  c #0C0C0C",
"-  c gray5",
";  c #0E0E0E",
":  c gray6",
">  c #101010",
",  c #111111",
"<  c gray7",
"1  c #131313",
"2  c gray8",
"3  c #151515",
"4  c #161616",
"5  c gray9",
"6  c #181818",
"7  c #191919",
"8  c gray10",
"9  c gray11",
"0  c #1D1D1D",
"q  c #1E1E1E",
"w  c gray12",
"e  c #202020",
"r  c gray13",
"t  c #222222",
"y  c gray14",
"u  c #252525",
"i  c gray15",
"p  c #272727",
"a  c #282828",
"s  c gray16",
"d  c #2A2A2A",
"f  c gray17",
"g  c #2C2C2C",
"h  c #2D2D2D",
"j  c gray18",
"k  c #2F2F2F",
"l  c gray19",
"z  c #313131",
"x  c #323232",
"c  c gray20",
"v  c #343434",
"b  c #353535",
"n  c gray21",
"m  c #373737",
"M  c gray22",
"N  c #393939",
"B  c #3A3A3A",
"V  c gray23",
"C  c #3C3C3C",
"Z  c gray24",
"A  c #3E3E3E",
"S  c #3F3F3F",
"D  c gray25",
"F  c #414141",
"G  c gray26",
"H  c #434343",
"J  c #444444",
"K  c gray27",
"L  c #464646",
"P  c gray28",
"I  c #484848",
"U  c #494949",
"Y  c gray29",
"T  c #4B4B4B",
"R  c #4C4C4C",
"E  c gray30",
"W  c #4E4E4E",
"Q  c gray31",
"!  c #515151",
"~  c #535353",
"^  c gray33",
"/  c #555555",
"(  c #565656",
")  c gray34",
"_  c #585858",
"`  c gray35",
"'  c #5A5A5A",
"]  c #5B5B5B",
"[  c gray36",
"{  c #5D5D5D",
"}  c gray37",
"|  c #5F5F5F",
" . c #606060",
".. c gray38",
"X. c gray39",
"o. c #646464",
"O. c #656565",
"+. c #676767",
"@. c #686868",
"#. c DimGray",
"$. c gray42",
"%. c #6C6C6C",
"&. c #6D6D6D",
"*. c gray43",
"=. c #6F6F6F",
"-. c gray44",
";. c #717171",
":. c gray45",
">. c #747474",
",. c gray46",
"<. c #767676",
"1. c #777777",
"2. c gray47",
"3. c #797979",
"4. c gray48",
"5. c #7B7B7B",
"6. c gray49",
"7. c #7E7E7E",
"8. c gray50",
"9. c #818181",
"0. c gray51",
"q. c #838383",
"w. c #848484",
"e. c gray52",
"r. c #868686",
"t. c gray53",
"y. c #888888",
"u. c #898989",
"i. c #8B8B8B",
"p. c gray55",
"a. c #8D8D8D",
"s. c #8E8E8E",
"d. c gray56",
"f. c #909090",
"g. c gray57",
"h. c #929292",
"j. c #939393",
"k. c gray58",
"l. c #959595",
"z. c gray59",
"x. c #979797",
"c. c #989898",
"v. c gray60",
"b. c #9A9A9A",
"n. c #9B9B9B",
"m. c gray61",
"M. c #9D9D9D",
"N. c gray62",
"B. c #9F9F9F",
"V. c #A0A0A0",
"C. c gray63",
"Z. c #A2A2A2",
"A. c gray64",
"S. c #A4A4A4",
"D. c #A5A5A5",
"F. c gray65",
"G. c #A7A7A7",
"H. c #A9A9A9",
"J. c #AAAAAA",
"K. c #ACACAC",
"L. c gray68",
"P. c #AEAEAE",
"I. c #AFAFAF",
"U. c gray69",
"Y. c gray70",
"T. c #B4B4B4",
"R. c gray72",
"E. c #B9B9B9",
"W. c #BBBBBB",
"Q. c #BCBCBC",
"!. c gray74",
"~. c gray",
"^. c gray75",
"/. c #C0C0C0",
"(. c #C1C1C1",
"). c gray76",
"_. c #C3C3C3",
"`. c gray77",
"'. c #C5C5C5",
"]. c #C6C6C6",
"[. c gray78",
"{. c #C8C8C8",
"}. c gray79",
"|. c #CACACA",
" X c #CDCDCD",
".X c #CECECE",
"XX c #D0D0D0",
"oX c #D2D2D2",
"OX c LightGray",
"+X c gray83",
"@X c #D5D5D5",
"#X c #D7D7D7",
"$X c gray86",
"%X c gainsboro",
"&X c gray88",
"*X c #E1E1E1",
"=X c gray89",
"-X c #E4E4E4",
";X c gray90",
":X c #E7E7E7",
">X c gray91",
",X c #E9E9E9",
"<X c #EAEAEA",
"1X c #ECECEC",
"2X c #EEEEEE",
"3X c #EFEFEF",
"4X c gray94",
"5X c #F1F1F1",
"6X c gray95",
"7X c #F4F4F4",
"8X c gray96",
"9X c gray97",
"0X c #F8F8F8",
"qX c #F9F9F9",
"wX c gray98",
"eX c #FBFBFB",
"rX c gray99",
"tX c None",
/* pixels */
"tXtXtXtXtXtXtXtXtXtXtXtXtXtXtXtXtXtXtXtXtXtXtXtXtXtXtXtXtXtXtXtXtXtXtXtXtXtXtXtXtXtXtXtXtXtXtXtXtXtXtXtXtXtXtXtXtXtXtXtXtXtXtXtX",
"tXtXtXtXtXtXtXtXtXtXtXtXtXtXtXtXtXtXtXtXtXtXtXtXtXtXtXtXtXtXtXtXtXtXtXtXtXtXtXtXtXtXtXtXtXtXtXtXtXtXtXtXtXtXtXtXtXtXtXtXtXtXtXtX",
"tXtXtXtXtXtXtXtXtXtXtXtXtXtXtXtXtXtXtXtXtXtXtXtXtXtXtXtXtXtXtXtXtXtXtXtXtXtXtXtXtXtXtXtXtXtXtXtXtXtXtXtXtXtXtXtXtXtXtXtXtXtXtXtX",
"tXtXtXtXtXtXtXtXtXtXtXtXtXtXtXtXtXtXtXtXtXtXtXtXtXtXtXtXtXtXtXtXtXtXtXtXtXtXtXtXtXtXtXtXtXtXtXtXtXtXtXtXtXtXtXtXtXtXtXtXtXtXtXtX",
"tXtXtXtXtXtXtXtXtXtXtXtXtXtXtXtXtXtXtXtXtXtXtXtXtXtXtXtXtXtXtXtXtXtXtXtXtXtXtXtXtXtXtXtXtXtXtXtXtXtXtXtXtXtXtXtXtXtXtXtXtXtXtXtX",
"tXtXtXtXtXtXtXtXtXtXtXtXtXtXtXtXtXtXtXtXtXtXtXtXtXtXtXtXtXtXtXtXtXtXtXtXtXtXtXtXtXtXtXtXtXtXtXtXtXtXtXtXtXtXtXtXtXtXtXtXtXtXtXtX",
"tXtXtXtXtXtXtXtXtXtXtXtXtXtXtXtXtXtXtXtXtXtXtXtXtXtXtXtXtXtXtXtXtXtXtXtXtXtXtXtXtXtXtXtXtXtXtXtXtXtXtXtXtXtXtXtXtXtXtXtXtXtXtXtX",
"tXtXtXtXtXtXtXtXtXtXtXtXtXtXtXtXtXtXtXtXtXtXtXtXtXtXtXtXtXtXtXtXtXtXtXtXtXtXtXtXtXtXtXtXtXtXtXtXtXtXtXtXtXtXtXtXtXtXtXtXtXtXtXtX",
"tXtXtXtXtXtXtXtXtXtXtXtXtXtXtXtXtXtXtXtXtXtXtXtXtXtXtXtXtXtXtXtXtXtXtXtXtXtXtXtXtXtXtXtXtXtXtXtXtXtXtXtXtX<., b tXtXtXtXtXtXtXtX",
"tXtXtXtXtXtXtXtXtXtXtXtXtXtXtXtXtXtXtXtXtXtXtXtXtXtXtXtXtXtXtXtXtXtXtXtXtXtXtXtXtXtXtXtXtXtXtXtXtXtXtXN.s O . X * X.tXtXtXtXtXtX",
"tXtXtXtXtXtXtXtXtXtXtXtXtXtXtXtXtXtXtXtXtXtXtXtXtXtXtXtXtXtXtXtXtXtXtXtXtXtXtXtXtXtXtXtXtXtXtXtXtX(.I & . . . . . o e tXtXtXtXtX",
"tXtXtXtXtXtXtXtXtXtXtXtXtXtXtXtXtXtXtXtXtXtXtXtXtXtXtXtXtXtXtXtXtXtXtXtXtXtXtXtXtXtXtXtXtXtXtXtX*.3 . .     .       . # Z tXtXtX",
"tXtXtXtXtXtXtXtXtXtXtXtXtXtXtXtXtXtXtXtXtXtXtXtXtXtXtXtXtXtXtXtXtXtXtXtXtXtXtXtXtXtXtXtXtXtXc.a o . .   .   .     .   . . : o.tX",
"tXtXtXtXtXtXtXtXtXtXtXtXtXtXtXtXtXtXtXtXtXtXtXtXtXtXtXtXtXtXtXtXtXtXtXtXtXtXtXtXtXtXtXtXtXtXtXH . X . . X . . . . . . . X : tXtX",
"tXtXtXtXtXtXtXtXtXtXtXtXtXtXtXtXtXtXtXtXtXtXtXtXtXtXtXtXtXtXtXtXtXtXtXtXtXtXtXtXtXtXtXtXtXtXtX3.. ^ <.3.5.1.t ' ,.<.5.,.8 w tXtX",
"tXtXtXtXtXtXtXtXtXtXtXtXtXtXtXtXtXtXtXtXtXtXtXtXtXtXtXtXtXtXtXtXtXtXtXtXtXtXtXtXtXtXtXtXtXtXtXtXX k.7XqXqX2XH E.6X9XqX&Xp b tXtX",
"tXtXtXtXtX%.+ O O O O - 5.tXtXtXtXtXtXtXtXtXtXtXtXtXtXtXtXtXtXtXtXtXtXtXtXtXtXtXtXtXtXtXtXtXtXtXX :.qX5X3X>XF W.wX0X4X{.1 tXtXtX",
"tXtXtXtX&.+ . . . . . . O - tXtXtXtXtXtXtXtXtXtXtXtXtXtXtXtXtXtXtXtXtXtXtXtXtXtXtXtXtXtXtXtXtXtX% ! 8X7X3X,XG Q.rXqX5XI.@ tXtXtX",
"tXtXtX$.# . # X         . X N tXtXtXtXtXtXtXtXtXtXtXtXtXtXtXtXtXtXtXtXtXtXtXtXtXtXtXtXtXtXtXtXtXr < A C B B , z D S A a + tXtXtX",
"tXtX$.# X 6 z.a O o X X X # tXtXtXtXtXtXtXtXtXtXtXtXtXtXtXtXtXtXtXtXtXtXtXtXtXtXtXtXtXtXtXtXtXtXG o X o o X . X X X . . : tXtXtX",
"tX*.# . 6 C.8X.X4.tXtXtXtXtXtXtXtXtXtXtXtXtXtXtXtXtXtXtXtXtXtXtXtXtXtXtXtXtXtXtXtXtXtXtXtXtXtXtXO.X     . . X   .   . . 0 tXtXtX",
"$.+ . 6 Z.3X9XrXeX9X6X6X7XeXrXtXtXtXtXtXtXtXtXtXtXtXtXtXtXtXtXtXtXtXtXtXtXtXtXtXtXtXtXtXtXtXtXtXu.O . .     .     .     f tXtXtX",
"X . + W d.p.s.d.p.d.p.p.d.i.a.s.p.s.s.a.d.a.i.d.p.a.d.i.s.a.a.f.p.p.d.i.a.d.i.d.p.p.f.i.a.d.p.s.o.+ X X X .   .   . . . tXtXtXtX",
".   C  Xd.| `.( S 2.I A 9.V C ,.L  .^ C <.S M d.D L O.C O.! S d.m N 1.F / +.F >.Z n w.H H 1.D ) ^ w 7 g 3 X .   @ f f f tXtXtXtX",
". X G 5X7.$X,X..=XG j.).V (.d.M 5X} $.oXV M.T.p %X0.U @X! 5.OXz U.Z.V #X1.` :XS y._.z _.x.N $X} } $X} ;X6.X   . t tXtXtXtXtXtXtX",
".   H 1X#.&X=X| qX' c.-XD }.^.l 8Xe.*.2XR A.*Xe *XL.T 1X:.6.4XN ~.XXC *XV./ 7X` g.,Xb ].).b <Xt...7X#.*X9.o   . r tXtXtXtXtXtXtX",
"  . I 2X>.).>X .&XH 5.T.N L.f.N +X] { {.D a.U.p W.5.U .X/ @.|.l M.Z.Z /.;.R +XY 6.W.c F.d.B .X| ( .X&.6X4.X . . w tXtXtXtXtXtXtX",
".   I <X_.{ i.o.d @.L j -.M B 5.f W ( g =.K g 4.l Z &.h [ ! a ,.C b 2.l P ..d #.U f ;.m N ,.k ! ' i ;.s.f X   X q tXtXtXtXtXtXtX",
". . L ].C y + X = + + $ O $ % X * + O * + + % O % # O & @ O & + # % O & # O * + O & O # # O * + o & + # : .     # l 2.tXtXtXtXtX",
"  . J !.:   .     . . . .   . . . . . . . . X X . X . X . . X o   . . . . X . . . . . . . . . .   X . . . .     .   ~ tXtXtXtXtX",
"    G ~.;         . . . . . . . . . . . . . . X h k 3 m 1 r 4 S $ x u 1 i 2 > .   . . . .         . . . .           ~ tXtXtXtXtX",
"    H ~.;                                     O N.z.-.l.5.y.8.:.W 2.p.| R...J .                                     ~ tXtXtXtXtX",
"    P Q.-                                     o N.@./ E.] q.p N.1.W 6.@.-.K.C .                                     ) tXtXtXtXtX",
"    I W.-                                     X R $ s v E P H @.4 %.` p i / e .                                     ) tXtXtXtXtX",
"    P Q.-                                       . . . . . . . X . . . . . .                                         ) tXtXtXtXtX",
"    K !.;                                                     .                                                     ^ tXtXtXtXtX",
"    H !.;                               7 U U U 2 P H >   g     g   F     = M   P F -                             . ~ tXtXtXtXtX",
"  . H ~.;                               5 H Y.H < P.I P.. v.    m.  &Xh   O.I.  L.U P.                              ~ tXtXtXtXtX",
"  . K !.-                                   n.    z.o C.O v.    m.  z.w.  s.b.  z.  B.O                             ( tXtXtXtXtX",
"  . P Q.- .                                 n.    '.G.[   v.    n.  y.h.v } n.  [.r.D                               _ tXtXtXtXtX",
"  . P Q.- .                                 n.    z.@ D.X N.; 9 s.  y.L '.* n.  z.                                  _ tXtXtXtXtX",
"    K ~.; .                                 E     T   m r 0 5.:.>   J X /   E   T                                   ( tXtXtXtXtX",
"    H ~.; .                                                                                                         ~ tXtXtXtXtX",
"  . H ~.; .                                                                                                         ~ tXtXtXtXtX",
"  . K ~.; .                                                                                                         ^ tXtXtXtXtX",
"    P !.; .                                     X L Q & , 0     j n U J   P H >                                     ) tXtXtXtXtX",
"    P !.; .                                     c._ P H.> k.  j <.S.H S   P.I P..                                   ) tXtXtXtXtX",
"    L !.; .                                   ; c.    #.Z z.% q.0 S.H M   z.o C.O                                   ) tXtXtXtXtX",
"    J ~.; .                                   2 s.    | L Y ( B.  D.U C   '.G.[                                     ~ tXtXtXtXtX",
"    H ~.; .                                     J.8 & G.; O R...  n.      z.@ D.X                                 . ~ tXtXtXtXtX",
"  . J ~.; .                                     5 5.9.a     / :   | 7.<.  T   m r                                   ~ tXtXtXtXtX",
"    L !.; .                                                                                                       . ) tXtXtXtXtX",
"  . P !.- .                                                                                                       . ) tXtXtXtXtX",
"  . P Q.- .                                                                                                       . _ tXtXtXtXtX",
"    K ~.; .                                                                                                       . / tXtXtXtXtX",
"O o J !.> O o O O O O O O O O O O O O O O O O O O O O O O O O O O O O O O O O O O O O O O O O O O O O O O O O O O o tXtXtXtXtXtX",
"tXtXtXtXtXtXtXtXtXtXtXtXtXtXtXtXtXtXtXtXtXtXtXtXtXtXtXtXtXtXtXtXtXtXtXtXtXtXtXtXtXtXtXtXtXtXtXtXtXtXtXtXtXtXtXtXtXtXtXtXtXtXtXtX",
"tXtXtXtXtXtXtXtXtXtXtXtXtXtXtXtXtXtXtXtXtXtXtXtXtXtXtXtXtXtXtXtXtXtXtXtXtXtXtXtXtXtXtXtXtXtXtXtXtXtXtXtXtXtXtXtXtXtXtXtXtXtXtXtX",
"tXtXtXtXtXtXtXtXtXtXtXtXtXtXtXtXtXtXtXtXtXtXtXtXtXtXtXtXtXtXtXtXtXtXtXtXtXtXtXtXtXtXtXtXtXtXtXtXtXtXtXtXtXtXtXtXtXtXtXtXtXtXtXtX",
"tXtXtXtXtXtXtXtXtXtXtXtXtXtXtXtXtXtXtXtXtXtXtXtXtXtXtXtXtXtXtXtXtXtXtXtXtXtXtXtXtXtXtXtXtXtXtXtXtXtXtXtXtXtXtXtXtXtXtXtXtXtXtXtX",
"tXtXtXtXtXtXtXtXtXtXtXtXtXtXtXtXtXtXtXtXtXtXtXtXtXtXtXtXtXtXtXtXtXtXtXtXtXtXtXtXtXtXtXtXtXtXtXtXtXtXtXtXtXtXtXtXtXtXtXtXtXtXtXtX",
"tXtXtXtXtXtXtXtXtXtXtXtXtXtXtXtXtXtXtXtXtXtXtXtXtXtXtXtXtXtXtXtXtXtXtXtXtXtXtXtXtXtXtXtXtXtXtXtXtXtXtXtXtXtXtXtXtXtXtXtXtXtXtXtX",
"tXtXtXtXtXtXtXtXtXtXtXtXtXtXtXtXtXtXtXtXtXtXtXtXtXtXtXtXtXtXtXtXtXtXtXtXtXtXtXtXtXtXtXtXtXtXtXtXtXtXtXtXtXtXtXtXtXtXtXtXtXtXtXtX",
"tXtXtXtXtXtXtXtXtXtXtXtXtXtXtXtXtXtXtXtXtXtXtXtXtXtXtXtXtXtXtXtXtXtXtXtXtXtXtXtXtXtXtXtXtXtXtXtXtXtXtXtXtXtXtXtXtXtXtXtXtXtXtXtX"
};
