/* XPM */
static char *result[] = {
/* columns rows colors chars-per-pixel */
"64 64 227 2 ",
"   c #161416",
".  c #0A0A0F",
"X  c #2C1B1A",
"o  c #331B15",
"O  c #391D14",
"+  c #321D1B",
"@  c #3A1C19",
"#  c #311712",
"$  c #2B0E0B",
"%  c #3B211A",
"&  c #362119",
"*  c #1A1626",
"=  c #1C1924",
"-  c #1B162C",
";  c #1E192D",
":  c #171226",
">  c #1D1731",
",  c #1E1931",
"<  c #211D2D",
"1  c #281928",
"2  c #311C29",
"3  c #221D33",
"4  c #291D36",
"5  c #2B1D3B",
"6  c #241936",
"7  c #331F34",
"8  c #1E2134",
"9  c #1F202F",
"0  c #25212E",
"q  c #2C262A",
"w  c #3E2A24",
"e  c #37272A",
"r  c #262235",
"t  c #2A2335",
"y  c #2D2936",
"u  c #26233A",
"i  c #2A253C",
"p  c #2B293B",
"a  c #25293C",
"s  c #31243D",
"d  c #342A3A",
"f  c #322135",
"g  c #36323E",
"h  c #401F17",
"j  c #5B1914",
"k  c #750E15",
"l  c #6D251D",
"z  c #591626",
"x  c #481A2C",
"c  c #44312C",
"v  c #453A36",
"b  c #472C2D",
"n  c #7F3D3D",
"m  c #6A1427",
"M  c #58463F",
"N  c #2C2541",
"B  c #292744",
"V  c #3A3743",
"C  c #393743",
"Z  c #393048",
"A  c #423D49",
"S  c #723B41",
"D  c #47434E",
"F  c #4B4753",
"G  c #504D5A",
"H  c #55515A",
"J  c #6F4C4D",
"K  c #7E6047",
"L  c #585464",
"P  c #625D69",
"I  c #5E6070",
"U  c #67646E",
"Y  c #756E73",
"T  c #716C74",
"R  c #880B0A",
"E  c #8C0D16",
"W  c #881315",
"Q  c #9C1111",
"!  c #B20908",
"~  c #A80B16",
"^  c #B70917",
"/  c #AC1518",
"(  c #A2100F",
")  c #B21F27",
"_  c #923733",
"`  c #852E2F",
"'  c #AA2729",
"]  c #CA0A0A",
"[  c #D8090C",
"{  c #C60D13",
"}  c #D90C13",
"|  c #CB1619",
" . c #D21615",
".. c #ED0504",
"X. c #EC0A04",
"o. c #E40B0D",
"O. c #E8080B",
"+. c #F40504",
"@. c #F90303",
"#. c #F10804",
"$. c #F4050A",
"%. c #F7060A",
"&. c #EC0712",
"*. c #DD1C20",
"=. c #C62225",
"-. c #C43938",
";. c #C23130",
":. c #B4743E",
">. c #CA7738",
",. c #C53E47",
"<. c #B75351",
"1. c #8F6B5A",
"2. c #BD6B47",
"3. c #907B72",
"4. c #BC6F6B",
"5. c #C7544D",
"6. c #CD7453",
"7. c #CA6865",
"8. c #CB796C",
"9. c #DA8D1C",
"0. c #D8931E",
"q. c #D58B28",
"w. c #DC9728",
"e. c #D98738",
"r. c #CF8F34",
"t. c #E39924",
"y. c #E49933",
"u. c #E58D2F",
"i. c #DDA434",
"p. c #DFA834",
"a. c #E6A328",
"s. c #E6A738",
"d. c #E9B53A",
"f. c #F5B73D",
"g. c #F3A838",
"h. c #B88473",
"j. c #BC9760",
"k. c #D88748",
"l. c #D79C45",
"z. c #D28853",
"x. c #E19753",
"c. c #EC9153",
"v. c #DCB65B",
"b. c #D2AA4C",
"n. c #E8A848",
"m. c #E8B846",
"M. c #F5B846",
"N. c #EBA75A",
"B. c #E4B452",
"V. c #E8B658",
"C. c #F5B357",
"Z. c #C78667",
"A. c #D68864",
"S. c #C68773",
"D. c #D5997C",
"F. c #D19469",
"G. c #E58D68",
"H. c #E2956A",
"J. c #E79772",
"K. c #EC916D",
"L. c #D5A866",
"P. c #D7B46A",
"I. c #D2B37C",
"U. c #D1AF6D",
"Y. c #ECA56C",
"T. c #EDA676",
"R. c #F7A977",
"E. c #FBB37D",
"W. c #F5B67B",
"Q. c #F0A86F",
"!. c #F7C449",
"~. c #F6CA55",
"^. c #EBC451",
"/. c #7B7984",
"(. c #877E8A",
"). c #868388",
"_. c #978786",
"`. c #8C8A93",
"'. c #928F98",
"]. c #99969F",
"[. c #B89788",
"{. c #B1918F",
"}. c #9D9AA3",
"|. c #A39AA5",
" X c #A7A4AB",
".X c #B5B2B6",
"XX c #BBACA8",
"oX c #CB9A8A",
"OX c #C89494",
"+X c #D49B8B",
"@X c #CAA588",
"#X c #DCA486",
"$X c #D9BA89",
"%X c #CBA79E",
"&X c #D5AA97",
"*X c #D7B89F",
"=X c #E8A785",
"-X c #F6AD84",
";X c #F6B281",
":X c #FAB584",
">X c #FBB984",
",X c #FBB589",
"<X c #F7BA83",
"1X c #E3AE91",
"2X c #EFB285",
"3X c #DBAEA9",
"4X c #D8B6A8",
"5X c #CAB4AF",
"6X c #E2BFBE",
"7X c #D7C096",
"8X c #DBC4B5",
"9X c #D7C4A4",
"0X c #B6BEC0",
"qX c #C5BEC3",
"wX c #C9C5CB",
"eX c #DDCECD",
"rX c #CDC7D2",
"tX c #D3CFD6",
"yX c #D9D7D7",
"uX c #E4CEC7",
"iX c #EADFDC",
"pX c #E3D4C9",
"aX c #DDDEE2",
"sX c #E8E9E9",
"dX c #F6F3EF",
"fX c #F5F5F6",
"gX c None",
/* pixels */
"gXgXgXgXgXgXgXgXgXgXgXgXgXgXgXgXgXgXgXgXgXgXgXgXgXgXgXgXgXgXgXgXgXgXgXgXgXgXgXgXgXgXgXgXgXgXgXgXgXgXgXgXgXgXgXgXgXgXgXgXgXgXgXgX",
"gXgXgXgXgXgXgXgXgXgXgXgXgXgXgXgXgXgXgXgXgXgXgXgXgXgXgXgXgXgXgXgXgXgXgXgXgXgXgXgXgXgXgXgXgXgXgXgXgXgXgXgXgXgXgXgXgXgXgXgXgXgXgXgX",
"gXgXgXgXgXgXgXgXgXgXgXgXgXgXgXgXgXgXgXgXgXgXgXgXgXgXgXgXgXgXgXgXgXgXgXgXgXgXgXgXgXgXgXgXgXgXgXgXgXgXgXgXgXgXgXgXgXgXgXgXgXgXgXgX",
"gXgXgXgXgXgXgXgXgXgXgXgXgXgXgXgXgXgXgXgXgXgXgXgXgXgXgXgXgXgXgXgXgXgXgXgXgXgXgXgXgXgXgXgXgXgXgXgXgXgXgXgXgXgXgXgXgXgXgXgXgXgXgXgX",
"gXgXgXgXgXgXgXgXgXgXgXgXgXgXgXgXgXgXgXgXgXgXgXgXgXgXgXgXgXgXgXgXgXgXgXgXgXgXgXgXgXgXgXgXgXgXgXgXgXgXgXgXgXgXgXgXgXgXgXgXgXgXgXgX",
"gXgXgXgXgXgXgXgXgXgXgXgXgXgXgXgXgXgXgXgXgXgXgXgXgXgXgXgXgXgXgXgXgXgXgXgXgXgXgXgXgXgXgXgXgXgXgXgXgXgXgXgXgXgXgXgXgXgXgXgXgXgXgXgX",
"gXgXgXgXgXgXgXgXgXgXgX$XP.B.B.B.v.U.9XgXgXgXgXgXgXgXgXgXgXgXgXgXgXgXgXgXgXgXgXgXgXgXgXgXgXgXgXgXgXgXgXgXgXgXgXgXgXgXgXgXgXgXgXgX",
"gXgXgXgXgXgXgXgX9XU.m.M.!.M.f.f.s.i.m.P.gXgXgXgXgXgXgXgXgXgXgXgXgXgXgXgXgXgXgXgXgXgXgXgXgXgXgXgXgXgXgXgXgXgXgXgXgXgXgXgXgXgXgXgX",
"gXgXgXgXgXgXgXU.V.^.~.M.d.g.t.>.q.M.~.C.I.gXgXgXgXgXgXgXgXgXgXgXgXgXgXgXgXgXgXgXgXgXgXgXgXgXgXgXgXgXgXgXgXgXgXgXgXgXgXgXgXgXgXgX",
"gXgXgXgXgX9XP.^.!.~.m.d.a.e.e.y.C.M.f.M.B.$XgXgXgXgXgXgXgXgXgXgXgXgXgXgXgXgXgXgXgXgXgXgXgXgXgXgXgXgXgXgXgXgXgXgXgXgXgXgXgXgXgXgX",
"gXgXgXgX$Xv.~.~.!.m.d.y.>.e.N.C.n.a.a.a.s.L.gXgXgXgXgXgXgXgXgXgXgXgXgXgXgXgXgXgXgXgXgXgXgXgXgXgXgXgXgXgXgXgXgXgXgXgXgXgXgXgXgXgX",
"gX[.7XP.B.m.d.d.s.n.e.e.c.N.V.s.a.0.9.9.9.r.$XgXgXgXgXgXgXgXgXgXgXgXgXgXgXgXgXgXgXgXgXgXgXgXgXgXgXgXgXgXgXgXgXgXgXgXgXgXgXgXgXgX",
"gXgXv.m.s.p.p.p.w.e.k.Y.E.V.V.s.a.t.w.q.q.q.L.gXgXgXgXgXgXgXgXgXgXgXgXgXgXgXgXgXgXgXgXgXgXgXgXgXgXgXgXgXgXgXgXgXgXgXgXgXgXgXgXgX",
"gXgXgX$XL.L.U.F.:.>.6.A.W.W.N.s.w.w.w.r.q.w.r.$XgXgXgXgXgXgXgXgXgXgXgXgXgXgXgXgXgXgXgXgXgXgXgXgXgXgXgXgXgXgXgXgXgXgXgXgXgXgXgXgX",
"gXgXgXgXgXgXgXgXh.z.2.8.T.:XQ.x.l.k.>.e.u.u.w.r.@XgXgXgXgXgXgXgXgXgXgXgXgXgXgXgXgXgXgXgXgXgXgXgXgXgXgXgXgXgXgXgXgXgXgXgXgXgXgXgX",
"gXgXgXgXgXgXgXgX#X-XG.=X,X-X;XQ.F.z.6.e.g.t.0.r.j.gXgXgXgXgXgXgXgXgXgXgXgXgXgXgXgXgXgXgXgXgXgXgXgXgXgXgXgXgXgXgXgXgXgXgXgXgXgXgX",
"gXgXgXgXgXgXgX8X1XR.T.-XR.R.R.E.>XW.G.k.n.B.L.1.K `.L D Y gXgXgXgXgXgXgXgXgXgXgXgXgXgXgXgXgXgXgXgXgXgXgXgXgXgXgXgXgXgXgXgXgXgXgX",
"gXgXgXgXgXgXgX5XD.6.H.,X:XE.E.:X:XT.6.Y.L.K q 9 t t 3 3 < g F F P P T /.`.gXgXgXgXgXgXgXgXgXgXgXgXgXgXgXgXgXgXgXgXgXgXgXgXgXgXgX",
"gXgXgXgXgXgXgXgX+XZ.H.-X:X:X:X,X,X;XY.;X1XJ 0 r d i u u t r i p i u i r 3 0 F gXgXgXgXgXgXgXgXgXgXgXgXgXgXgXgXgXgXgXgXgXgXgXgXgX",
"gXgXgXgXgXgXgXgX8X#XT.T.:X:X:X:X,X>XR.-X@XY r r i i u i u i i i i B i s p t r A  XgXgXgXgXgXgXgXgXgXgXgXgXgXgXgXgXgXgXgXgXgXgXgX",
"gXgXgXgXgXgXgXgXgXS.J.H.;X:X>X>XE.:XK.#X8XT a 4 i u u i i i p i i N p i i i i i C '.gXgXgXgXgXgXgXgXgXgXgXgXgXgXgXgXgXgXgXgXgXgX",
"gXgXgXgXgXgXgXgXgX3XJ.T.Q.<X>XW.E.R.K.&XsXI i i 4 i i u u i B i p i i 4 u N N u i t U gXgXgXgXgXgXgXgXgXgXgXgXgXgXgXgXgXgXgXgXgX",
"gXgXgXgXgXgXgXgXgX4X=X,XW.W.:XE.R.K.S.uXsXI N 4 u i u u i u u i u r 3 - t B B i i i r D  XgXgXgXgXgXgXgXgXgXgXgXgXgXgXgXgXgXgXgX",
"gXgXgXgXgXgXgXgXgXgXoXD.T.-XR.Q.K.G.%XdXsX/.7 4 r u i i r 3 - - - : : ; 3 i i i i t i p Z ).gXgXgXgXgXgXgXgXgXgXgXgXgXgXgXgXgXgX",
"gXgXgXgXgXgXgXgXgXgXgX4X&X+XF.A.6.8.iXfXsX}.d d a r i i p u 3 ; - - - G G < < i u u B N N i U gXgXgXgXgXgXgXgXgXgXgXgXgXgXgXgXgX",
"gXgXgXgXgXgXgXgXgXgXgXgXgXgXgXgX4.` [.sXyXqXV p a 4 i i N i u 6 , ; = < /. XG 0 r u i N B i 2 _.gXgXgXgXgXgXgXgXgXgXgXgXgXgXgXgX",
"gXgXgXgXgXgXgXgXgXgXgXgXgXgXgXgXS / ` .X0XaXP i i r i i i i i N u r 3 * r ).wX].D ; t a B 5 b h.&X*XgXgXgXgXgXgXgXgXgXgXgXgXgXgX",
"gXgXgXgXgXgXgXgXgXgXgXgXgXgXgXgXJ E W OXaXfX}.i d u i B N p i p i N i r ;   H .XrXY q ; N 7 J J.W.2X#X&XgXgXgXgXgXgXgXgXgXgXgXgX",
"gXgXgXgXgXgXgXgXgXgXgXgXgXgXgXgX).k R _ 6XfXyXV t 3 i p N p p N i i i i u r < g '.tX XD 1 b S.<XE.R.T.oXgXgXgXgXgXgXgXgXgXgXgXgX",
"gXgXgXgXgXgXgXgXgXgXgXgXgXgXgXgXgX' E R 7.sXfX).t r i i N p N p i B i u , 3 i ; 0 /.tXwXY 3.=X>X;X2XD.%XgXgXgXgXgXgXgXgXgXgXgXgX",
"gXgXgXgXgXgXgXgXgXgXgXgXgXgXgXgXgX=.E R / oXdXwXC , i i i p i p N s a 3 > N i r ; ; U rXpX8X#X=X#X4X4XgXgXgXgXgXgXgXgXgXgXgXgXgX",
"gXgXgXgXgXgXgXgXgXgXgXgXgXgXgXgXgX=.^ k ~ ' 3XsX/.9 u a p p a s N s 5 - t i i i 3 ; ; L wXpX*X&X&XgXgXgXgXgXgXgXgX7.7.gXgXgXgXgX",
"gXgXgXgXgXgXgXgXgXgXgXgXgXgXgXgXgX5.[ R ~ ^ ' 3XtXV u p N i i a p B > 5 B i i i u 6 < : L wXuX%X{.gXgXgXgXgX7.=.[ ..O.[ { -.gXgX",
"gXgXgXgXgXgXgXgXgXgXgXgXgXgXgXgXgXgX{ { ! ! ! ) OX|.< y f f 7 e q a u N i i i i i 6 6 ; < U yXeXXX_.{.%XS.;.o.#.X...X.+.....| <.",
"gXgXgXgXgXgXgXgXgXgXgXgXgXgXgXgXgXgX7.| o.[ ] ] / -.Q Q ( ( ~ ^ ~ E z e s N N i u i 3 < < '.gXgXgXgX_.J ) } #.#.@.@.@.@.+.+.$.} ",
"gXgXgXgXgXgXgXgXgXgXgXgXgXgXgXgXgXgXgX4.Q { [ O.o.$.$.#.@.@.+.$.$.&.{ m s p N i i u 3 = U gXgXgXgXgXgXgX<.| O.@.+.+.+.+.+.+...$.",
"gXgXgXgXgXgXgXgXgXgXgXgXgXgXgXgXgXgXgXgXv $ l 7.-. .o.$.@.@.+.X.#.%.#.^ x i i i t p t U gXgXgXgXgXgXgXgXgXgX;.&.%.$.} =.' 5.7.5.",
"gXgXgXgXgXgXgXgXgXgXgXgXgXgXgXgXgXgXgXgXgX. . 3.uX[.8.,.*.#.X.%.%.%.#.o.m i i i i p U gXgXgXgXgXgXgXgXgXgXgXgXgX=.gXgXgXgXgXgXgX",
"gXgXgXgXgXgXgXgXgXgXgXgXgXgXgXgXgXgXgXgXgXq .   `.qX|.5X3X<./ } &.%.#.o.k f i i 3 F gXgXgXgXgXgXgXgXgXgXgXgXgXgXgXgXgXgXgXgXgXgX",
"gXgXgXgXgXgXgXgXgXgXgXgXgXgXgXgXgXgXgXgXgXgX.   r V d F P P 2 j E | } } W 2 i 4 - gXgXgXgXgXgXgXgXgXgXgXgXgXgXgXgXgXgXgXgXgXgXgX",
"gXgXgXgXgXgXgXgXgXgXgXgXgXgXgXgXgXgXgXgXgXg t i i p a u 4 5 4 4 7 x z z x r , - u gXgXgXgXgXgXgXgXgXgXgXgXgXgXgXgXgXgXgXgXgXgXgX",
"gXgXgXgXgXgXgXgXgXgXgXgXgXgXgXgXgXgXgXd f i i i i B i i B i N 5 < 1 6 B 8 , ; - gXgXgXgXgXgXgXgXgXgXgXgXgXgXgXgXgXgXgXgXgXgXgXgX",
"gXgXgXgXgXgXgXgXgXgXgXgXgXgXgXgXD i i i f t t i u p u u r r u 3 , ; ; , * - ; - gXgXgXgXgXgXgXgXgXgXgXgXgXgXgXgXgXgXgXgXgXgXgXgX",
"gXgXgXgXgXgXgXgXgXgXgXgXgXgXgXg r i i i i i p p i r 4 3 3 3 ; ; - - , ; - - : : y gXgXgXgXgXgXgXgXgXgXgXgXgXgXgXgXgXgXgXgXgXgXgX",
"gXgXgXgXgXgXgXgXgXgXgXgXgXgXgX; i u u i i 4 3 3 3 , > , , 3 3 < , ; , - : : - - = gXgXgXgXgXgXgXgXgXgXgXgXgXgXgXgXgXgXgXgXgXgXgX",
"gXgXgXgXgXgXgXgXgXgXgXgXgXgXgXt u u u r 3 > , ; ; ; , ; ; * - * * * : - , ; ; ; * t gXgXgXgXgXgXgXgXgXgXgXgXgXgXgXgXgXgXgXgXgXgX",
"gXgXgXgXgXgXgXgXgXgXgXgXgXgXy s i i u 3 - ; * * gXgXgXgXgXgXgXgX= = < - ; ; , > ; * gXgXgXgXgXgXgXgXgXgXgXgXgXgXgXgXgXgXgXgXgXgX",
"gXgXgXgXgXgXgXgXgXgXgXgXgXgXi i i i i , - gXgXgXgXgXgXgXgXgXgXgXgX; < ; ; , > > > , r gXgXgXgXgXgXgXgXgXgXgXgXgXgXgXgXgXgXgXgXgX",
"gXgXgXgXgXgXgXgXgXgXgXgXgXd a i i p u * 0 gXgXgXgXgXgXgXgXgXgXgXgXgX0 ; ; > > ; , ; , r V gXgXgXgXgXgXgXgXgXgXgXgXgXgXgXgXgXgXgX",
"gXgXgXgXgXgXgXgXgXgXgXgXgXr i u i i 3 < gXgXgXgXgXgXgXgXgXgXgXgXgXgXgXy * ; , , > , ; 6 3 ; V gXgXgXgXgXgXgXgXgXgXgXgXgXgXgXgXgX",
"gXgXgXgXgXgXgXgXgXgXgXgXp p i i u t ; * gXgXgXgXgXgXgXgXgXgXgXgXgXgXgXgXV 3 < > > > - > 3 r t t t y d 0 X + gXgXgXgXgXgXgXgXgXgX",
"gXgXgXgXgXgXgXgXgXgXgXgXt i i i i r * gXgXgXgXgXgXgXgXgXgXgXgXgXgXgXgXgXgXG ; ; > > ; - 3 u i B i i i f 2 o c gXgXgXgXgXgXgXgXgX",
"gXgXgXgXgXgXgXgXgXgXgXy i i i i u < - gXgXgXgXgXgXgXgXgXgXgXgXgXgXgXgXgXgXgXgX0 - 3 ; ; ; ; 3 u u u u i 4 + c gXgXgXgXgXgXgXgXgX",
"gXgXe g gXgXgXgXgXgXgXt i i i u 3 < gXgXgXgXgXgXgXgXgXgXgXgXgXgXgXgXgXgXgXgXgXgXgX0 < ; ; < * ; < < 9 r < + + gXgXgXgXgXgXgXgXgX",
"gXgXgX& + M gXgXgXgXgXt i a p u , < gXgXgXgXgXgXgXgXgXgXgXgXgXgXgXgXgXgXgXgXgXgXgXgXgXC t 0 gXgXgXgXgX; 1 + O c gXgXgXgXgXgXgXgX",
"gXgXgXw + & w gXgXgXgX< a p N 3 < gXgXgXgXgXgXgXgXgXgXgXgXgXgXgXgXgXgXgXgXgXgXgXgXgXgXgXgXgXgXgXgXgXgXgXgXo % o gXgXgXgXgXgXgXgX",
"gXgXgXgXw o % % c c q   < < 5 > * gXgXgXgXgXgXgXgXgXgXgXgXgXgXgXgXgXgXgXgXgXgXgXgXgXgXgXgXgXgXgXgXgXgXgXgXgXO O % gXgXgXgXgXgXgX",
"gXgXgXgXgXc # % h % @ @ + 1 1 * ; gXgXgXgXgXgXgXgXgXgXgXgXgXgXgXgXgXgXgXgXgXgXgXgXgXgXgXgXgXgXgXgXgXgXgXgXgXM O + gXgXgXgXgXgXgX",
"gXgXgXgXgXgXgXo # O @ O @ @ X A gXgXgXgXgXgXgXgXgXgXgXgXgXgXgXgXgXgXgXgXgXgXgXgXgXgXgXgXgXgXgXgXgXgXgXgXgXgXgXw + gXgXgXgXgXgXgX",
"gXgXgXgXgXgXgXgXgXgX& o O @ w gXgXgXgXgXgXgXgXgXgXgXgXgXgXgXgXgXgXgXgXgXgXgXgXgXgXgXgXgXgXgXgXgXgXgXgXgXgXgXgXgXX gXgXgXgXgXgXgX",
"gXgXgXgXgXgXgXgXgXgXgX+ o + gXgXgXgXgXgXgXgXgXgXgXgXgXgXgXgXgXgXgXgXgXgXgXgXgXgXgXgXgXgXgXgXgXgXgXgXgXgXgXgXgXgXgXgXgXgXgXgXgXgX",
"gXgXgXgXgXgXgXgXgXgXgXgXgX$ gXgXgXgXgXgXgXgXgXgXgXgXgXgXgXgXgXgXgXgXgXgXgXgXgXgXgXgXgXgXgXgXgXgXgXgXgXgXgXgXgXgXgXgXgXgXgXgXgXgX",
"gXgXgXgXgXgXgXgXgXgXgXgXgXgXgXgXgXgXgXgXgXgXgXgXgXgXgXgXgXgXgXgXgXgXgXgXgXgXgXgXgXgXgXgXgXgXgXgXgXgXgXgXgXgXgXgXgXgXgXgXgXgXgXgX",
"gXgXgXgXgXgXgXgXgXgXgXgXgXgXgXgXgXgXgXgXgXgXgXgXgXgXgXgXgXgXgXgXgXgXgXgXgXgXgXgXgXgXgXgXgXgXgXgXgXgXgXgXgXgXgXgXgXgXgXgXgXgXgXgX"
};
