/* XPM */
static char *result[] = {
/* columns rows colors chars-per-pixel */
"64 64 211 2 ",
"   c #1A160E",
".  c #1D1812",
"X  c #1F1D19",
"o  c #211C16",
"O  c #2D2825",
"+  c #38322E",
"@  c #3D3935",
"#  c #372F2A",
"$  c #423A33",
"%  c #4E4139",
"&  c #59533D",
"*  c #645C3E",
"=  c #524A41",
"-  c #535251",
";  c #67574C",
":  c #645C55",
">  c #6D5D54",
",  c #645E58",
"<  c #705F54",
"1  c #6F6F4D",
"2  c #706A43",
"3  c #77744B",
"4  c #686558",
"5  c #796D53",
"6  c #756558",
"7  c #7F7359",
"8  c #7A7857",
"9  c #6D6966",
"0  c #736C66",
"q  c #7B6F64",
"w  c #767363",
"e  c #76726C",
"r  c #7D726C",
"t  c #7D7A64",
"y  c #7B7673",
"u  c #7E7D79",
"i  c #7D7B77",
"p  c #817C4E",
"a  c #806E5E",
"s  c #847B56",
"d  c #816F65",
"f  c #827C62",
"g  c #82736B",
"h  c #847C6E",
"j  c #8C7C6C",
"k  c #877666",
"l  c #857C73",
"z  c #847D79",
"x  c #8A7B73",
"c  c #917E73",
"v  c #8A8453",
"b  c #8C8C5E",
"n  c #948D5C",
"m  c #9B955E",
"M  c #848262",
"N  c #8B8A64",
"B  c #84846C",
"V  c #8C8C6B",
"C  c #888567",
"Z  c #908F69",
"A  c #939265",
"S  c #94936C",
"D  c #9C9B6C",
"F  c #9D9861",
"G  c #838274",
"H  c #85837B",
"J  c #8C847C",
"K  c #8B8B7D",
"L  c #8C8972",
"P  c #9B8374",
"I  c #918B7D",
"U  c #9C897C",
"Y  c #938679",
"T  c #969471",
"R  c #9D9D72",
"E  c #A39D63",
"W  c #A48C7D",
"Q  c #AD907D",
"!  c #B2937E",
"~  c #A3A36D",
"^  c #AAA469",
"/  c #A2A274",
"(  c #ABAB74",
")  c #ADAD7B",
"_  c #A5A578",
"`  c #B3B276",
"'  c #B4B47B",
"]  c #BABB7E",
"[  c #BAB574",
"{  c #B5AC6C",
"}  c #C3BC76",
"|  c #8B8683",
" . c #8D8B84",
".. c #8A8785",
"X. c #948D84",
"o. c #908D8B",
"O. c #9C8D80",
"+. c #949183",
"@. c #9B9384",
"#. c #999887",
"$. c #9E948A",
"%. c #98968C",
"&. c #9A9795",
"*. c #999997",
"=. c #9E9D9C",
"-. c #959492",
";. c #A88F80",
":. c #A59285",
">. c #AB9283",
",. c #A1968D",
"<. c #AC9A8C",
"1. c #B29686",
"2. c #B49A8B",
"3. c #BA9F8F",
"4. c #B89A86",
"5. c #A49C91",
"6. c #A69E98",
"7. c #B69E90",
"8. c #AFAE82",
"9. c #BEA18E",
"0. c #B6B680",
"q. c #BDBE82",
"w. c #ADA195",
"e. c #AAA59A",
"r. c #B1A69B",
"t. c #B3A99E",
"y. c #A4A4A3",
"u. c #ACABAB",
"i. c #A9A7A5",
"p. c #B5ADA4",
"a. c #B9ADA2",
"s. c #B0AFAD",
"d. c #BCB4A9",
"f. c #B4B3B2",
"g. c #BDBDBD",
"h. c #C2A595",
"j. c #CBAE9D",
"k. c #C4A898",
"l. c #CCB19E",
"z. c #D0B19F",
"x. c #C0AEA1",
"c. c #C4B2A4",
"v. c #C6B9AC",
"b. c #C8B4A7",
"n. c #D5B6A4",
"m. c #D8B7A5",
"M. c #D6B8A6",
"N. c #D8B8A6",
"B. c #DCBCAA",
"V. c #D7BBAA",
"C. c #CCBEB1",
"Z. c #C5BDB2",
"A. c #C4C485",
"S. c #CCCC8B",
"D. c #C8C987",
"F. c #D5CD81",
"G. c #D2D28E",
"H. c #DBD688",
"J. c #CFCF90",
"K. c #D5D592",
"L. c #D7D892",
"P. c #DBDB94",
"I. c #DCDC98",
"U. c #DFE098",
"Y. c #E3E08F",
"T. c #E4E493",
"R. c #E9E794",
"E. c #EBEA96",
"W. c #E3E59A",
"Q. c #E7E89C",
"!. c #EBEC9C",
"~. c #EEF09D",
"^. c #F3F69F",
"/. c #F4F89F",
"(. c #DEC0AE",
"). c #CDC4B7",
"_. c #D2C2B4",
"`. c #D3C8BB",
"'. c #DACBBC",
"]. c #D5C6BA",
"[. c #E3C5B4",
"{. c #E5C9B7",
"}. c #E6CBBA",
"|. c #EACDBC",
" X c #ECD0BE",
".X c #F4F6A1",
"XX c #F5F8A1",
"oX c #F9FAA4",
"OX c #F9FAA8",
"+X c #C4C4C3",
"@X c gray81",
"#X c #DBCEC1",
"$X c #DDD1C2",
"%X c #E3D4C5",
"&X c #ECD5C4",
"*X c #E4D7C9",
"=X c #ECDCCC",
"-X c #E9D8C8",
";X c #F2D7C6",
":X c #F3D9C7",
">X c #F5DDCC",
",X c #F9DFCE",
"<X c #FAE0CF",
"1X c #F5E0CF",
"2X c #F5E2D2",
"3X c #FDE4D3",
"4X c #FCE8D6",
"5X c #FBE9D8",
"6X c #E9E9D5",
"7X c #F9F8F7",
"8X c None",
/* pixels */
"8X8X8X8X8X8X8X8X8X8X8X8X8X8X8X8X8X8X8X8X8X8X8X8X8X8X8X8X8X8X8X8X8X8X8X8X8X8X8X8X8X8X8X8X8X8X8X8X8X8X8X8X8X8X8X8X8X8X8X8X8X8X8X8X",
"8X8X8X8X8X8X8X8X8X8X8X8X8X8X8X8X8X8X8X8X8X8X8X8X8X8X8X8X8X8X8X8X8X8X8X8X8X8X8X8X8X8X8X8X8X8X8X8X8X8X8X8X8X8X8X8X8X8X8X8X8X8X8X8X",
"8X8X8X8X8X8X8X8X8X8X8X8X8X8X8X8X8X8X8X8X8X8X8X8X8X8X8X8X8X8X8X8X8X8X8X8X8X8X8X8X8X8X8X8X8X8X8X8X8X8X8X8X8X8X8X8X8X8X8X8X8X8X8X8X",
"8X8X8X8X8X8X8X8X8X8X8X8X8X8X8X8X8X8X8X8X8X8X8X8X8X8X8X8X8X8X8X8X8X8X8X8X8X8X8X8X8X8X8X8X8X8X8X8X8X8X8X8X8X8X8X8X8X8X8X8X8X8X8X8X",
"8X8X8X8X8X8X8X8X8X8X8X8X8X8X8X8X8X8X8X8X8X8X8X8X8X8X8X8X8X8X8X8X8X8X8X8X8X8X8X8X8X8X8X8X8X8X8X8X8X8X8X8X8X8X8X8X8X8X8X8X8X6X8X8X",
"8X8X8X8X8X8X8X8X8X8X8X8X8X8X8X8X8X8X8X8X8X8X8X8X8X8X8X8X8X8X8X8X8X8X8X8X8X8X8X8X8X8X8X8X8X8X8X8X8X8X8X8X8X8X8X8X8X8X8XV Q.q.8X8X",
"8X8X8X8X8X8X8X8X8X8X8X8X8X8X8X8X8X8X8X8X8X8X8X8X8X8X8X8X8X8X8X8X8X8X8X8X8X8X8X8X8X8X8X8X8X8X8X8X8X8X8X8X8X8X8X8X8Xu ) .XXXS 8X8X",
"8X8X8X8X8X8X8X8X8X8X8X8X8X8X8X8X8X8X8X8X8X8X8X8X8X8X8X8X8X8X8X8X8X8X8X8X8X8X8X8X8X8X8X8X8X8X8X8X8X8X8X8X8X8X8X8Xf I..XoX~.G 8X8X",
"8X8X8X8X8X8X8X8X8X8X8X8X8X8X8X8X8X8X8X8X8X8X8X8X8X8X8X8X8X8X8X8X8X8X8X8X8X8X8X8X8X8X8X8X8X8X8X8X8X8X8X8X8X8XB A.~.XX.X.XR 8X8X8X",
"8X8X8X8X8X8X8X8X8X8X8X8X8X8X8X8X8X8X8X8X8X8X8X8X8X8X8X8X8X8X8X8X8X8X8X8X8X8X8X8X8X8X8X8X8X8X8X8X8X8X%.G R S..X.X.X/..XD...8X8X8X",
"8X8X8X8X8X8X8X8X8X8X8X8X8X8X8X8X8X8X8X8X8X8Xi.=.=.=.=.6.y.u.8X8X8X8X8X8X8X8X8X8X8X8X8X8X8X-.G G V ` L.XXoX/..X.XXX.XJ.H 8X8X8X8X",
"8X8X8X8X8X8X8X8X8X8X8X8X8X8X8X8Xy.K t Z _ q.S.K.K.K.K.K.S.D.8.E S V B G +.#.#.K B V S / q.L.~.~.XXXX/.XX.X/..X.XXX0.+.8X8X8X8X8X",
"8X8X8X8X8X8X8X8X8X8X8X8X8X8XG / S.U.!.XX.X.XXXXXXXXXXXXX/.oX/.oXXX.X.X!.W.W.W.Q.~..X^.XXXXXXXX/..X.XXX/././..XI.Z 8X8X8X8X8X8X8X",
"8X8X8X8X8X8X8X8X8X8X8X8Xe ( Q.XXXXXXXXXXXXXXXXXXXXXXXXXX/./././.XXXXXX.X.X.X^.^./..X/./..XXX.X.XXXXX.XXX~.U.D G 8X8X8X8X8X8X8X8X",
"8X8X8X8X8X8X8X8X8X8X8X4 I.XX/.XXXXXXXXXXXXXXXXXX/..XXXXX/./././.XXXXoXoXoXXXXXXX/.^././.oXOXOXOX.XW.A.D t | 8X8X8X8X8X8X8X8X8X8X",
"8X8X8X8X8X8X8X8X8X8Xw U..X/.XX/.XXXXXXXXXXXXXXXXXXXXXXXX/./.^.E.R.R.F 3 3 v m E ^ ( ( D R T L L | %.8X8X8X8X8X8X8X8X8X8X8X8X8X8X",
"8X8X8X8X8X8X8X8X8Xe.q..XXXXXXXXXXX/././././.oXoX/.^.E.R.H.H.F.} m s 5 6 > < k 1.1.1.1.> *.8X8X8X8X8X8X8X8X8X8X8X8X8X8X8X8X8X8X8X",
"8X8X8X8X8X8X8X8X8XL ~.XXXXXX.X/.XX.X/.L.D.] ( ^ m n p p p 2 * & % Q z.N.N.B.(.[.{.|.&X&Xw.o.8X8X8X8X8X8X8X8X8X8X8X8X8X8X8X8X8X8X",
"8X8X8X8X8X8X8X8X8X' XX/.XX/.XX/.~.Y.H.^ m m E ^ { [ } } v ; h.B.B.m.B.{.&X>X<X3X3X3X3X3X4XZ.y 8X8X8X8X8X8X8X8X8X8X8X8X8X8X8X8X8X",
"8X8X8X8X8X8X8X8X .L./.XXXXXX/./.~.R.T.T.T.T.T.Y.T.T.T.} a B.B.[. X,X3X3X3X<X4X4X3X3X3X3X3X3Xd.y 8X8X8X8X8X8X8X8X8X8X8X8X8X8X8X8X",
"8X8X8X8X8X8X8X8XB ~./.XXXXoX/./././.oXoX/./././.XXXXoX( 1.|.,X3X3X3X<X3X3X3Xe.t p.*X4X3X2X3X3Xr.=.8X8X8X8X8X8X8X8X8X8X8X8X8X8X8X",
"8X8X8X8X8X8X8X8XB XX.XXXXXXXXX/.oX/.^./././././.XXXX.X' c.2X3X3X3X3X3X3X3Xe.N J.( 8 X.].2X3X3X4Xr.f.8X8X8X8X8X8X8X8X8X8X8X8X8X8X",
"8X8X8X8X8X8X8X8XV /.XXXXXXXXXXoX/./.^./.^.^././.XXXXXXG.@.4X3X3X3X3X3X3X5.& 5 5 [ R.D.N q e.,X3X2Xe 8 u.8X8X8X8X8X8X8X8X8X8X8X8X",
"8X8X8X8X8X8X8X8XZ oX/./.oXXXXX/.^.oX^.^.^.U.G.A.' [ ^.^.S #X3X3X3X3X3X,.= W N.n.P 5 F H.Q.F r.3X5XK 8.u 8X8X8X8X8X8X8X8X8X8X8X8X",
"8X8X8X8X8X8X8X8XR XXXXXXXXXXoXoX/.oX!.F b A D ) A.K..XXXW.f #X4X3X3X3X'.V.N.N.N.m.n.1.5 A ` 6.3X-Xy *.u.8X8X8X8X8X8X8X8X8X8X8X8X",
"8X8X8X8X8X8X8X8XR XXXXXX/.oX/.XX/./.XX~.XXE.G.A.] ` ` ~..XT.t v.3X<X3X<X(.N.m.N.m.m.m.n.1.% c.3Xr.+X8X8X8X8X8X8X8X8X8X8X8X8X8X8X",
"8X8X8X8X8X8X8X8X/ XXXXXXXXXX/.oXXXXXXX.XoXA.~ ( ] q.J.~..XXX!.t >X<X3X3X}.m.m.m.m.c 0 0 $ ,.4X4X .*.8X8X8X8X8X8X8X8X8X8X8X8X8X8X",
"8X8X8X8X8X8X8X8X/ XXXXXX/.oXXXXXXX/..X.X/././././././.oX.X.XoXN *X3X3X3X<X[.B.(.d i.7X+XO ).3X3X4Xv.z f.8X8X8X8X8X8X8X8X8X8X8X8X",
"8X8X8X8X8X8X8X8X/ .XXXXXXXXX/././.~.U.K.G.J.S.D.q.' ' ( T./.^.M >X<X3X3X_.5.c g : z ..i + X.3X3X2X3X>Xp.| @X8X8X8X8X8X8X8X8X8X8X",
"8X8X8X8X8X8X8X8X/ .XXXXXoXXXoX/.XXS.N S D ~ ( ( ' q.A.D.!./.q.@.4X3X3X3Xv.p.z *X>X=X*X%X).l 4X3X3X3X2X3X%XX.i.8X8X8X8X8X8X8X8X8X",
"8X8X8X8X8X8X8X8X_ .X.XXXXXXXoXXX/.XXXXXXoXoXXXoX/./././.~.D l -X2X3X3X3X:Xl ].3X<X3X2X<X).+.4X3X4X3X3X3X3X2Xp...8X8X8X8X8X8X8X8X",
"8X8X8X8X8X8X8X8X8..X.XXXXXoX.X.XXX/.XX.X/./.XX^./././.^.b d.5X2X3X3X2X3X3X2X3X3X3X3X4X'.e %X3X2XX._.3X3X3X3X2X`.i 8X8X8X8X8X8X8X",
"8X8X8X8X8X8X8X8X) oXXXXXXXXXXXXXXXXX~.P.S.A.A.D.J.~..XD.I 4X3X3X3X3X3X3X3X3X3X3X<X3XC.X.%X3X3X6.a.3X3X1X&X%X<X<XC.| 8X8X8X8X8X8X",
"8X8X8X8X8X8X8X8X8.XXXXXXXXXXXX.X!.N C L 5.$ Y w.@.L T L C.3X3X3X3X3X3X3X3X3X3X3X3X3X2X3X3X3X4Xz &X<X}.j # + 2.V.n.c 8X8X8X8X8X8X",
"8X8X8X8X8X8X8X8X8.XXXXXXXXXXXX/.G.$.4X2X{.W q 4X4X3X<X4X3X3X3X3X3X3X3X3X3X3X3X3X3X3X3X3X3X3X3X$.:.j.> : 4 @ J | ..u.8X8X8X8X8X8X",
"8X8X8X8X8X8X8X8X0.XXXXXXXXoXXX/.P.#.1X9.! 4.> &X,X3X<X3X3X3X3X3X3X3X4X3X3X3X3X3X3X3X3X3X3X3X3X[.,.J '.4X5XX.g.+Xy.8X8X8X8X8X8X8X",
"8X8X8X8X8X8X8Xg.q.oX/./.XXXXXXXX~.L 2Xj.! Q 4 >X3X3X3X3X3X4X3X3X3X3X3X3X3X4X3X3X3X3X3X3X3X3X;X{.3X3X3X<X3X&X| ,.W z 8X8X8X8X8X8X",
"8X8X8X8X8X8X8Xf.A.XX/.oXXXXXXXXXXXS #X,Xm.P U 4X3X3X3X3X3X3X3X3X3X3X3X4X3X3X3X3X3X3X4X3X<X,X&X<X<X3X3X3X3X3X:Xc % z 8X8X8X8X8X8X",
"8X8X8X8X8X8X8Xu.S.oX/./.XX.X.X/.P.8 +.4X3Xl.4.B.3X3X3X3X3X3X3X3X3X4X3X3X3X3X3X3X3X3X3X3X3X,X3X3X3X3X3X3X3X2X3.. O 8X8X8X8X8X8X8X",
"8X8X8X8X8X8X8X..U./.XX.XXX.XoXU.1 I.S C.3X2X9.4.,X3X3X3X3X3X3X4X3X3X3X3X3X3X4X3X3X3X3X3X3X<X3X3X3X3X3X<X3X}.$   8X8X8X8X8X8X8X8X",
"8X8X8X8X8X8X8XN /./..X.X!.A.~ 8 T.D A.4 *X3X:X}.3X3X3X3X3X3X3X3X3X3X3X3X3X3X3X4X3X3X3X3X3X3X3X3X3X3X3X4X4XP . - 8X8X8X8X8X8X8X8X",
"8Xe B K  .K M W./././..XW.` D.Q./ D .X` , =X3X4X3X4Xb.2X3X3X3X3X3X3X4X3X3X3X3X3X3X3X3X3X3X3X3X3X3X3X&Xr.K @ o O g.8X8X8X8X8X8X8X",
"8X8XB L.Q.!.~.XX/./.G.( S.S.' 3 ~ .X!.b ;.z 1X2X2X5XH $X3X3X3X3X3X3X3X3X4X3X3X3X3X3X4X3X3X3X3X3X3X3X_.a.%Xr.X o , 8X8X8X8X8X8X8X",
"8X8X8XH ( Q.oXoX/.^.E.' A b ~ Q.XX~.S :.B.;.$.3X3X5XX.`.3X3X3X3X3X3X3X3X3X3X3X3X3X3X3X3X3X3X3X3X3X3X3X3X_.*X$.o O Z.8X8X8X8X8X8X",
"8X8X8X8X+X4 B / A.G.P.!.~.!.!.P.' 7 ;.m.m.B.>.x a.a.l >X3X4X3X3X4X3X3X3X3X3X3X3X3X3X3X3X3X3X3X3X3X3X<X3X'.l =X#X&.y.8X8X8X8X8X8X",
"8X8X8X8X8XH c.k.5.U j a f f s k W j.B.m.m.m.B.j.a.a.-X3X3X3X3X3X3X3X3X3X4X3X3X4X3X4X3X3X3X3X3X3X3X3X3X3X4Xd.0 a.| g.8X8X8X8X8X8X",
"8X8X8X8X8X8Xr l.N.B.B.B.B.m.B.B.N.m.n.B.m.m.m.[.3X3X3X3X3X3X3X3X3X3X3X3X3X3X3X3X3X3X3X4X3X3X3X3X,X3X3X3X3X'.- | +X8X8X8X8X8X8X8X",
"8X8X8X8X8X8X8X9 k.B.N.N.m.m.m.m.m.m.m.m.B.m.m.}.3X3X<X3X3X3X4X3X3X3X4X3X3X3X3X3X3X3X3X3X4X3X3X3X;X|.3X<X3X4X*Xw.r 8X8X8X8X8X8X8X",
"8X8X8X8X8X8X8X8Xz 3.B.m.N.N.B.m.m.N.B.B.m.m.m.{.3X3X3X3X3X3X3X3X3X3X3X3X3X3X3X3X3X3X3X3X3X3X3X3X3X}.(.;X2X3X3X:Xr 8X8X8X8X8X8X8X",
"8X8X8X8X8X8X8X8X8X .>.m.N.m.B.m.B.m.m.m.V.m.V.B.,X3X3X3X3X3X3X3X3X3X3X3X3X3X3X3X3X3X3X3X3X3X3X3X<X|.1.; x '.&Xj...8X8X8X8X8X8X8X",
"8X8X8X8X8X8X8X8X8X8X=.g j.m.m.m.m.B.m.B.B.m.m.m.{.3X3X3X3X3X3X3X3X3X3X3X4X3X3X3X3X3X3X3X3X3X3X2X&XV.V.d =.o.l *.8X8X8X8X8X8X8X8X",
"8X8X8X8X8X8X8X8X8X8X8X8Xe U B.m.N.m.N.m.m.m.V.m.m.B.;X3X3X3X3X3X3X3X3X3X3X3X3X3X3X3X<X3X3X3X;X[.n.V.P i.8X8X8X8X8X8X8X8X8X8X8X8X",
"8X8X8X8X8X8X8X8X8X8X8X8X8Xs.r >.m.V.m.m.N.N.N.N.m.m.N.(.}.&X:X,X<X3X<X3X3X2X<X,X>X:X:X;X|.B.V.m.z.g s.8X8X8X8X8X8X8X8X8X8X8X8X8X",
"8X8X8X8X8X8X8X8X8X8X8X8X8X8X8Xi.e >.n.m.N.N.N.N.V.m.V.m.N.m.N.B.B.B.(.B.B.B.B.B.B.m.m.m.V.m.m.j.g 8X8X8X8X8X8X8X8X8X8X8X8X8X8X8X",
"8X8X8X8X8X8X8X8X8X8X8X8X8X8X8X8X8Xi.r ;.n.N.N.N.m.m.V.m.N.N.N.N.m.m.V.m.B.m.m.m.m.B.m.m.m.m.k.y 8X8X8X8X8X8X8X8X8X8X8X8X8X8X8X8X",
"8X8X8X8X8X8X8X8X8X8X8X8X8X8X8X8X8X8X8Xf.y k k.B.m.m.m.m.m.N.N.N.m.V.N.m.m.m.V.m.m.m.m.m.B.W y 8X8X8X8X8X8X8X8X8X8X8X8X8X8X8X8X8X",
"8X8X8X8X8X8X8X8X8X8X8X8X8X8X8X8X8X8X8X8X8X8Xo.g ;.n.B.B.V.m.m.m.N.N.m.V.m.n.m.V.B.B.n.;.g s.8X8X8X8X8X8X8X8X8X8X8X8X8X8X8X8X8X8X",
"8X8X8X8X8X8X8X8X8X8X8X8X8X8X8X8X8X8X8X8X8X8X8X8Xf.y x U 2.k.n.m.N.N.m.V.n.j.3.;.;.x z f.8X8X8X8X8X8X8X8X8X8X8X8X8X8X8X8X8X8X8X8X",
"8X8X8X8X8X8X8X8X8X8X8X8X8X8X8X8X8X8X8X8X8X8X8X8X8X8X8X+Xy. .y g g g g y y o.6.g.8X8X8X8X8X8X8X8X8X8X8X8X8X8X8X8X8X8X8X8X8X8X8X8X",
"8X8X8X8X8X8X8X8X8X8X8X8X8X8X8X8X8X8X8X8X8X8X8X8X8X8X8X8X8X8X8X8X8X8X8X8X8X8X8X8X8X8X8X8X8X8X8X8X8X8X8X8X8X8X8X8X8X8X8X8X8X8X8X8X",
"8X8X8X8X8X8X8X8X8X8X8X8X8X8X8X8X8X8X8X8X8X8X8X8X8X8X8X8X8X8X8X8X8X8X8X8X8X8X8X8X8X8X8X8X8X8X8X8X8X8X8X8X8X8X8X8X8X8X8X8X8X8X8X8X",
"8X8X8X8X8X8X8X8X8X8X8X8X8X8X8X8X8X8X8X8X8X8X8X8X8X8X8X8X8X8X8X8X8X8X8X8X8X8X8X8X8X8X8X8X8X8X8X8X8X8X8X8X8X8X8X8X8X8X8X8X8X8X8X8X",
"8X8X8X8X8X8X8X8X8X8X8X8X8X8X8X8X8X8X8X8X8X8X8X8X8X8X8X8X8X8X8X8X8X8X8X8X8X8X8X8X8X8X8X8X8X8X8X8X8X8X8X8X8X8X8X8X8X8X8X8X8X8X8X8X",
"8X8X8X8X8X8X8X8X8X8X8X8X8X8X8X8X8X8X8X8X8X8X8X8X8X8X8X8X8X8X8X8X8X8X8X8X8X8X8X8X8X8X8X8X8X8X8X8X8X8X8X8X8X8X8X8X8X8X8X8X8X8X8X8X"
};
