/* XPM */
static char *_ce231368bd849a2af46668553f9c678jNI0EHFp9nmkJKjo[] = {
/* columns rows colors chars-per-pixel */
"64 64 245 2 ",
"   c None",
".  c #191A1D",
"X  c #161D26",
"o  c #281F23",
"O  c #351F25",
"+  c #1C232C",
"@  c #1C262B",
"#  c #1E2934",
"$  c #1D2836",
"%  c #22242C",
"&  c #262729",
"*  c #372626",
"=  c #232B35",
"-  c #2A2D34",
";  c #252D3B",
":  c #292F3B",
">  c #26323C",
",  c #29323D",
"<  c #273237",
"1  c #35373A",
"2  c #352C2F",
"3  c #21191B",
"4  c #501B1A",
"5  c #573929",
"6  c #50312D",
"7  c #6B2725",
"8  c #7A2529",
"9  c #663B3A",
"0  c #73342D",
"q  c #641D21",
"w  c #5B4A3E",
"e  c #69483A",
"r  c #764935",
"t  c #77503C",
"y  c #1F3042",
"u  c #253342",
"i  c #2A3443",
"p  c #2C3C4C",
"a  c #2A3947",
"s  c #323E4C",
"d  c #353A46",
"f  c #2C3E52",
"g  c #333F52",
"h  c #242E40",
"j  c #413842",
"k  c #2E414C",
"l  c #32424F",
"z  c #3C424C",
"x  c #3B4343",
"c  c #2E4558",
"v  c #344353",
"b  c #3A4554",
"n  c #34465B",
"m  c #3A465A",
"M  c #34495D",
"N  c #3B4B5D",
"B  c #3B4A57",
"V  c #3C505E",
"C  c #354761",
"Z  c #344A61",
"A  c #3B4C62",
"S  c #3B4B65",
"D  c #3E5165",
"F  c #3C546A",
"G  c #2E4B66",
"H  c #454647",
"J  c #424D5B",
"K  c #464B55",
"L  c #585758",
"P  c #534E51",
"I  c #695648",
"U  c #775849",
"Y  c #665855",
"T  c #684F54",
"R  c #796656",
"E  c #736453",
"W  c #435264",
"Q  c #495768",
"!  c #575C66",
"~  c #46586D",
"^  c #6B5E64",
"/  c #59626B",
"(  c #596676",
")  c #4B627D",
"_  c #696668",
"`  c #776C66",
"'  c #797575",
"]  c #717071",
"[  c #862629",
"{  c #973535",
"}  c #922F30",
"|  c #A42B33",
" . c #B52D34",
".. c #BC343C",
"X. c #B3393D",
"o. c #A93136",
"O. c #C23A3F",
"+. c #8F573D",
"@. c #C63D43",
"#. c #895945",
"$. c #945C48",
"%. c #8B5D58",
"&. c #896757",
"*. c #966A56",
"=. c #97745F",
"-. c #8F684F",
";. c #A66A4C",
":. c #B26C4D",
">. c #A66953",
",. c #A97357",
"<. c #B8785A",
"1. c #A9714E",
"2. c #856D66",
"3. c #8C7B6E",
"4. c #897467",
"5. c #9C7B6C",
"6. c #967866",
"7. c #887A75",
"8. c #967B73",
"9. c #9B6F63",
"0. c #A87963",
"q. c #B67963",
"w. c #A05F47",
"e. c #D2464C",
"r. c #D74C52",
"t. c #DB5056",
"y. c #DE5359",
"u. c #DE585F",
"i. c #CC4849",
"p. c #C57959",
"a. c #C7754D",
"s. c #DD5E61",
"d. c #E35D65",
"f. c #DC6163",
"g. c #D07C65",
"h. c #E16165",
"j. c #E05258",
"k. c #9A846B",
"l. c #8D8378",
"z. c #998678",
"x. c #948973",
"c. c #AB856D",
"v. c #B9846A",
"b. c #A48C76",
"n. c #A38C7C",
"m. c #A88776",
"M. c #B88B74",
"N. c #A89379",
"B. c #B7957C",
"V. c #B5A57E",
"C. c #C7886A",
"Z. c #D38B69",
"A. c #D7936E",
"S. c #CA8B73",
"D. c #C6947A",
"F. c #D49574",
"G. c #DB9574",
"H. c #D49C7C",
"J. c #DA9B7C",
"K. c #D79778",
"L. c #D08E70",
"P. c #E19776",
"I. c #787A84",
"U. c #61788F",
"Y. c #857F83",
"T. c #7B808C",
"R. c #898588",
"E. c #968B84",
"W. c #969598",
"Q. c #949191",
"!. c #A99887",
"~. c #B69987",
"^. c #A69C96",
"/. c #B29D92",
"(. c #AB8E84",
"). c #AEA18B",
"_. c #B6A385",
"`. c #A9A29A",
"'. c #B9A797",
"]. c #BFB29A",
"[. c #9998A3",
"{. c #A9A7A9",
"}. c #B7AEA6",
"|. c #BCB5A9",
" X c #ABA7B2",
".X c #B8B6B7",
"XX c #AFB1AD",
"oX c #9FA2A6",
"OX c #C89984",
"+X c #D59B82",
"@X c #C4968B",
"#X c #CAA18B",
"$X c #C4A38B",
"%X c #D9A388",
"&X c #C8AA95",
"*X c #D8AB96",
"=X c #C9B497",
"-X c #D6B499",
";X c #C6B08E",
":X c #E1A488",
">X c #E2AA95",
",X c #E7B399",
"<X c #CAB7A7",
"1X c #D8B7A4",
"2X c #C4BBB9",
"3X c #D5B8AE",
"4X c #E6BCA7",
"5X c #E6BEB1",
"6X c #D7C5A9",
"7X c #D7C6B6",
"8X c #CDC4B3",
"9X c #E9C6A9",
"0X c #E8D5AC",
"qX c #EDCBB4",
"wX c #ECCCBB",
"eX c #E6C8B5",
"rX c #F3CCB5",
"tX c #F3CBB8",
"yX c #EED2BC",
"uX c #E6D7B6",
"iX c #F4D2BD",
"pX c #F5D8B4",
"aX c #F2CAAE",
"sX c #F4E2B6",
"dX c #F7E8AF",
"fX c #D4C89F",
"gX c #C2BFC4",
"hX c #CAC6C6",
"jX c #D5CBC9",
"kX c #D7D3CA",
"lX c #DBD9DC",
"zX c #D1CDD3",
"xX c #EDD4C3",
"cX c #E9D6CA",
"vX c #F2D4C3",
"bX c #F2D8C8",
"nX c #E1DED9",
"mX c #ECD4CA",
"MX c #F2E4C9",
"NX c #E8E5D9",
"BX c #F4E8D9",
"VX c #F8F0DC",
"CX c #E2DEE3",
"ZX c #EBE6E5",
"AX c #F5F0ED",
/* pixels */
"                                                                                                                                ",
"                                              ).<X].!.x.l.l.^.2X                                                                ",
"                                            ^.6X_.k.z.N.~.~.b.k.3.E.2X                                                          ",
"                                      hX^.E.` R 4.8.8.8.N.;X0X9X-X_.z.7.hX                                                      ",
"                                    E.l.z.I R 4.3.4.!._.N.6.k.=XpXpX0X;Xl.XX                                                    ",
"                                  }.fXR k.;XN.=X].-X_.;XuX6X;Xb.k.=XpXsX0X!.|.                                                  ",
"                                .X!._.4.k.sX0XN.6X=X;X=XB.0XpXpX6XB.b.-XuXMXkXW.{.                                              ",
"                              kX!.N.R n.x.uXsXuX).MX6X].6XN.6XsXdXsXuX].{.hXkXuX!.x.                                            ",
"                              `.=X;XuX=Xz.<XBXVX8X`.NXNX|.7X|.|.nXAXAXAXBX6XV.V._.!.!.^.                                        ",
"                              z.E !.-X0XN.3.6.N.B.b.4.=XcX8X<X7X<X`.}.6X0X0XsXpX0XuX6X^.                                        ",
"                              E 4.R E 4.t ,.p.:.:.,.;.+.-.6.n.k.(.$X=X_.N.N.N.n.!.'.XX                                          ",
"                              E.3.4.=Xz.*.F.G.K.C.v.S.K.L.v.q.q.*.e w I -.*.U 3.`                                               ",
"                              l.R x.'.=.v.G.F.0.6.b.b.4X,X%X<.%XM.6.b.6.r =.U 2.'                                               ",
"                              7.E 4._.*.S.L.M.OX~.m.=.~.wXwX-X1X=.M.0.M.-X-X6.3.^.                                              ",
"                              ' R E 0XM.K.C.=X~.&.#X-Xc.*.#X*X*.<.9X5XM.%XqXn.Y XX                                              ",
"                              7.E 2.$X0.L.:X,X>.1XbXxX*X$.&XxX-.#X'.}.3X-XH.$X3.`.                                              ",
"                              ` ` R #.1.L.%X>XD.!.l.E.3X+X#XbX~.*X'.`.'.*X%X4XR l.                                              ",
"                          oX` I z.I ;.a.G.*X9X~.<X7X3X*XL.D.bXwX1Xn.n.B.,XrX9XR z.                                              ",
"                            7.2.b.t :.a.A.aXvX5X/.~.@X%Xp.D.BXbXvXwXeXyXbXiX4X&.E.                                              ",
"                            7.&.&.+.:.a.Z.%XrXbXBXBXbX*X<.>XVXBXwXiXvXbXcXrX%X-.!.                                              ",
"                            Q.R D.#.+.p.p.G.>XaXyXvXtX%X*.-X>X*XB.*XrXaX4X%XD.U ^.                                              ",
"                              (.v.$.$.p.Z.L.F.H.%X*X+Xv.#.r <.$.U =.M.H.K.F.S.e `.                                              ",
"                                0.,.r :.G.L.G.P.G.K.<.F.4X4XM.-X1X*X;.J.G.G.,.2.                                                ",
"                                n.-X#X1.A.F.K.K.K.<.C.,XvXbXbXbXiXrX0.L.G.G.*.4.                                                ",
"                                ^.'.7X#.Z.J.:XaX*Xq.J.,XqXqXiX5X4XiXOX%X%XH.&.                                                  ",
"                                W.R U #.p.G.,XiXyX4XH.0.5 e e 5 5 m.*XtX4XH.3.                                                  ",
"                                ] R ,.<.w.G.,XiXxXyX#X5 0 0 7 7 0 e eXwX9XJ.3.                                                  ",
"                                  ` >.A.+.S.:XrXxXxXwX6.0.q.q.q.%.'.xXiX4X+X3.                                                  ",
"                                  R.9 F.v.,.K.,XrXvXvX3Xl.E.!.5.5.7XxXtX>X%X7.                                                  ",
"                                ' @ & *.J.-.K.%XD.aXiXeX~.!.8.(.~.1XiX~.*XOXl.                                                  ",
"                              z : = @ 6 q.<.q.aXOXOXrXqX~.5.6.9.D.wX5Xm.9X9.R.                                                  ",
"                        [._ d > u = @ - 5 q.+.,XqX5.4XyXiXbXbXxXyXvX~.$X&X5 & I.                                                ",
"                  W./ B l v N f u = % > - 9 >.J.rX'.m.wXyXxXxXxXxX1X4.7X4.& @ > b ]                                             ",
"              ] J J N N A M Z M n ; + > u & 5 q.,XiX5.c.1XeXqX5X&X&.&X$X2 < $ p m n v J (                                       ",
"          R.b D A M M Z Z Z Z Z Z p % > h , % * 0.%X4Xc.#.*.=.*.-.OXOXw % u $ v n Z Z Z N B / XX                                ",
"        / J N Z Z Z Z Z Z Z Z M Z p v a u , i @ 6 0.C.L.L.p.q.C.S.*.Y 1 d B p p Z Z Z S Z M A Q I.                              ",
"      K W M Z Z Z Z Z Z Z Z Z Z n p N n p i ; = 1 U #.<.g.g.g.<.&.2.[.i b n N a Z Z Z Z Z Z Z A Q ( {.                          ",
"      m Z Z Z Z Z Z M Z Z Z Z Z f v V n M v a > = Y.P 6 0 } [ 6 _ .XW.; Z Z N v c Z Z Z Z Z Z Z Z D Q R.                        ",
"      B Z Z M M M f n M Z Z Z Z n i l N M n N n a s ' ` 7 { 8 Y I.R.H > M Z Z D a M M Z Z Z Z Z S Z Q (                         ",
"      i v A M n n k y M Z Z Z Z Z c u = p D Z Z g d  X[.9 { q R. XI.z i v M Z F A p M M Z Z C Z Z f W (                         ",
"      K N M M n $ l i u M Z Z Z M n s J ~ Z Z C M :  XW.0 e.8 Q.CXzXK v v v B v > f Z Z Z Z Z M v u Q /                         ",
"      J A n J ! 1 = s $ p A C Z M a ! J n Z Z Z M > I.' { t.} 7.ZX.Xd N M N i $ d m Z Z Z Z Z n u v N z .X                      ",
"      B M v ! 2XR.2 L x < v M Z Z a B N M Z Z Z Z v K Y X.y.X.T CXQ.i n Z Z V m p m M M Z M M p i N a W.`.                      ",
"      N Z J Q.l.|.3.<X7X' < n M M f h W Z Z Z Z Z m d 9 i.s.i.9 zX/ p n Z c k m ~ p n n M M n > g B x jX`.          .X^.2Xl.'.`.",
"      D Z H |.cXz./.2.eXwXH k M Z M h m A Z M Z Z A = 0 e.d.e.8 {.z p M C L 5.d F l k n M n a > m k _ wXz.        Q.}.cXn.<X=X!.",
"    J Z Z v H E.6.6.!.4.3X/.1 M Z M g u W Z M Z Z Z - } e.d.r.[ Y.i v M n j %.1 F : v n n k $ g s < '.*X(.    |.^.7X1X3.<X$X8.  ",
"    W S Z M v 1 P ~.n.8.6.=XE.1 v M Z u B M M C Z M 2 { r.s.t.| T i M M M l 1 s Z = n Z n = > = = ` qXM.    E./.vX~.2.<X~.k.z.  ",
"    W M Z Z M v o R &Xl.<Xn./.^.x k c i ; W N C Z n O X.t.f.y.o.6 u C M Z Z N N g i Z Z a @ % @ _ xXyXm.l.!.6X9X#X5.eX&Xz.<X7.  ",
"    Q n Z M M c = w <XU !.xX1X<X<XH p u = B N C Z v * X.t.f.y.X.4 u Z M Z Z G S i p Z v = X = 1 8XvXvXwX).uX9XOXOX(.M.&.1X0.    ",
"    Q Z Z M n c > 6 <XU &.n.wXyXyX'.- = , ; N S Z a 4 ..y.f.y...4 > C C M M G N = n M i X # v _ cXyXyXbX!.6XaX+X%X6.m.B.M.4.    ",
"    ! S Z f i > < * (.].5.!.8XmXxXxX^ : : ; B Z Z > q ..y.f.u.O.q > M Z Z Z M m ; n v , + v s /.xXiXxXcX!.wXrXJ.J.v.@Xc.5.0.E.  ",
"    L W M N N l # % * ` &.N.}.jXmXxX7.- , ; i D Z > 7 ..y.s.s.@.8 # n Z Z Z N i a M p ; # N v <XxXiXvXcX`.MXqXH.K.D.R *.OX*.    ",
"    d W n i = $ ; = X 3 %.-X)./.z.|.L = ; , = V M < 7 ..y.s.s.@.8 % v Z Z M W ; v n i = # b d 7.bXqXvXxXcXbX9XF.J.OXv.C.&.      ",
"    K v y ; = % X X . * t M.1X9X9X'.1 : > : : v m = 8 ..y.s.s.e.[ % p N Z A g i v v u = # i : I wX*X4XvXbXiX>XK.C.$.&.3.        ",
"    / ~ M u : B Q Q K _ *.$.#.S.H.&XH ; > , > a A - 8 ..y.s.f.e.} o i n Z S u p N f > + = + X 3.-XC.F.,X9X*Xv.%.4.              ",
"    ( ( p a ( ) F D W  X&.q.:.a.C.I R.: , > > > N - 8 ..t.s.h.e.} o i v N N $ v v > = X = % ' n.:XL.>.0.0.e 3.                  ",
"    ( N a ( A C Z N J [.2XU ;.p.C.I Q.= > > > = B & 8 ..t.s.h.e.| o > a N i ; v i > X = d _ hXm.K.G.H.-.6 ^                     ",
"    ( F ~ F M M n s g T.hXcX(.&.&._ ! @ > > > : s & [ ..r.s.f.e.| O > > p # u i i # X z K .XnXz.D.G.G.p.I 7.                    ",
"    F U.~ M n a u i i ( oXCXZXNX.X_ z > = > > : ; - [ ..r.s.s.r.| O , > # = > > i + = J / lXZXjX4.S.G.:.T '                     ",
"    v A n k u > , : , z [..XZXkXQ.hXK , = : > , $ & [ ..e.s.s.r.| * : < + : > i = + p B ! zXZXZXkX8.9.U P ! XX                  ",
"    a v p > > > , : , i I.W.hXW.L {.d > = : > , + & [  .e.s.s.t.| * : = + > , , + = i i K gXZXZXZXNXjXXX_ _ {.                  ",
"    1 i > > , , , ; , d z [.[..X^.H , p = : , , + & [  .r.s.s.t.| * : % + , , : X ; > , : Q.lXZXZXZXlXW.j - _                   ",
"      , , > , > , , , > i ! Q.W.L % s u = > , , @ & [  .e.s.s.t.| * : + : > , : + ; > > : L XXlXZXlX{.I.: s I.                  ",
"      ! , , > > , , , > > , s = = - , + = > , , + & [  .e.u.s.t.| & > X : > , = + , > : > : ] W.{.[.I.: h Q                     "
};
