/* XPM */
static char *c562ec0a8e6c469bee7f7b79882a0621OK1VMX8ltclBeHzC[] = {
/* columns rows colors chars-per-pixel */
"64 64 181 2 ",
"   c None",
".  c #1E171F",
"X  c #0C350D",
"o  c #1C2B1C",
"O  c #193217",
"+  c #211920",
"@  c #1F3E21",
"#  c #282527",
"$  c #273427",
"%  c #322C33",
"&  c #382E38",
"*  c #2E3631",
"=  c #3C373D",
"-  c #0D5D0E",
";  c #124011",
":  c #164E15",
">  c #194D16",
",  c #16471A",
"<  c #164E19",
"1  c #194D19",
"2  c #19461D",
"3  c #155115",
"4  c #185116",
"5  c #145B14",
"6  c #155119",
"7  c #185218",
"8  c #185B18",
"9  c #22401D",
"0  c #22591D",
"q  c #10650F",
"w  c #126C0D",
"e  c #0E730E",
"r  c #0E7A0D",
"t  c #07750B",
"y  c #12720E",
"u  c #117F0C",
"i  c #0F6612",
"p  c #0F6C12",
"a  c #136414",
"s  c #126B13",
"d  c #136118",
"f  c #0F7110",
"g  c #0E7F11",
"h  c #127412",
"j  c #187017",
"k  c #127A12",
"l  c #1E7A1F",
"z  c #284626",
"x  c #2E552C",
"c  c #39483A",
"v  c #38583A",
"b  c #29622B",
"n  c #2C7D2C",
"m  c #307F34",
"M  c #404D3D",
"N  c #423D43",
"B  c #483B43",
"V  c #444544",
"C  c #4B4449",
"Z  c #414D43",
"A  c #485049",
"S  c #52504F",
"D  c #436342",
"F  c #497E49",
"G  c #4F6152",
"H  c #576B53",
"J  c #58755A",
"K  c #6B6C6A",
"L  c #6B766B",
"P  c #777676",
"I  c #0D840C",
"U  c #0D8A0D",
"Y  c #048803",
"T  c #11890D",
"R  c #0D940D",
"E  c #0B9B0C",
"W  c #089C07",
"Q  c #10910F",
"!  c #0E8611",
"~  c #0E8C11",
"^  c #138C13",
"/  c #138515",
"(  c #0E9211",
")  c #0E9B12",
"_  c #149115",
"`  c #1A921B",
"'  c #149817",
"]  c #0BA40B",
"[  c #07AC0A",
"{  c #0BAD0C",
"}  c #09AA07",
"|  c #06B306",
" . c #09B306",
".. c #07BE06",
"X. c #06B50A",
"o. c #0AB10A",
"O. c #07BC0A",
"+. c #09BC0A",
"@. c #0DA611",
"#. c #16A112",
"$. c #0CBC11",
"%. c #1CB91B",
"&. c #14B714",
"*. c #228423",
"=. c #289525",
"-. c #358D35",
";. c #2AA728",
":. c #24BF25",
">. c #35A335",
",. c #38B034",
"<. c #439A3D",
"1. c #40A23F",
"2. c #06C406",
"3. c #0AC307",
"4. c #05CC05",
"5. c #09CA07",
"6. c #06C409",
"7. c #0AC309",
"8. c #05CB09",
"9. c #0ACB0B",
"0. c #05D205",
"q. c #0AD106",
"w. c #06D208",
"e. c #0DD10E",
"r. c #0EC611",
"t. c #0DCC10",
"y. c #10C510",
"u. c #15CE15",
"i. c #14C618",
"p. c #1CC21C",
"a. c #1BCD1C",
"s. c #10D411",
"d. c #1DD21D",
"f. c #1BDA1D",
"g. c #2AC52A",
"h. c #2AD52B",
"j. c #3DC73C",
"k. c #38D93C",
"l. c #38D638",
"z. c #4B8148",
"x. c #4D924F",
"c. c #41A540",
"v. c #4CB34E",
"b. c #5BBD5A",
"n. c #6A8669",
"m. c #739472",
"M. c #5FAE62",
"N. c #6FAD6F",
"B. c #66B461",
"V. c #73BA6F",
"C. c #72A278",
"Z. c #3ED840",
"A. c #44D048",
"S. c #4BD748",
"D. c #4BDB4A",
"F. c #45D747",
"G. c #56C657",
"H. c #53D853",
"J. c #74C16E",
"K. c #62DD60",
"L. c #75C273",
"P. c #7AD57B",
"I. c #73E070",
"U. c #82927E",
"Y. c #80AD7D",
"T. c #989895",
"R. c #969598",
"E. c #A1AEA3",
"W. c #8DC38A",
"Q. c #89DD8A",
"!. c #8EC691",
"~. c #98D998",
"^. c #85E18A",
"/. c #90E68D",
"(. c #9DE89F",
"). c #94E898",
"_. c #A5CAA5",
"`. c #B4DCB4",
"'. c #C8EDC7",
"]. c #CEEDCC",
"[. c #D3EBD1",
/* pixels */
"                                                                                                                                ",
"                                                                                                                                ",
"                                                                                                                                ",
"                                                                                                                                ",
"                                                                                                                                ",
"                                                                                                                                ",
"                                                                                                                                ",
"                                                                                                                                ",
"                                                                                                                                ",
"                                                                                                                                ",
"                                                                                                                                ",
"                                                                                                                                ",
"                                                          K.D.D.S.~.                                                            ",
"                                                        ].q.{ R 7.G.                                                            ",
"                                                      ].Q.e.e , o.g.C.E.                                                        ",
"                                                  (.F.a.r.O.q 1 R 7.9.a.G._.                                                    ",
"                                                D.9.] h 5 3 3 4 3 8 s ~ 3.d.L.                                                  ",
"                                            '.h...s < < 3 : 1 : 3 3 : 1 8 R t.b.                                                ",
"                                            k.[ 5 4 > > 3 : 6 3 : : 3 7 : 3 U 9.M.                                              ",
"                                          I.7.a 7 3 3 : 5 I 8 1 a p > 3 3 > 6 E i.U.                                            ",
"                                        [.f./ : 3 < > g 7.0.y : { 5.Q 3 3 : : a 6.<.R.                                          ",
"                                        /.6.5 3 3 : w 2.E 4.y >  .+.8.! : 3 3 1 E %.P                                           ",
"                                        K.[ 3 3 : 3 o.W X 0.y > X.Y t 3.8 3 5 q W 9.J T.                                        ",
"                                        Z.E : 3 3 5 4.- O 0.e < o.I O 8.+.3.2.6.7.&.H R.                                        ",
"                                        l.R 3 3 6 d q.3 @ 4.y : | U # *.=.n b x c A K T.                                        ",
"                                        k.E 3 4 3 5 6./ z 0.y > | ^ & S                                                         ",
"                                        H.{ 3 : : 6 U 3.l 0.h >  ._ N                                                           ",
"                                        P.2.5 3 3 : 3 ] w.w.y >  .` C                                                           ",
"                                        `.s.r 1 3 3 > 3 I [ i : o.) Z                                                           ",
"                                          A.X.7 > : 3 : 3 3 1 > ) 0.r.,.Y.                                                      ",
"                                          _.a.R 3 3 : 3 < < 3 3 3 s R  .e.j.!.                                                  ",
"                                            J.e.R 5 : 3 : : 1 3 3 : : 6 h [ u.G.                                                ",
"                                              B.e.[ s : : 3 3 3 1 6 : 3 3 : I 8.j.                                              ",
"                                                C.:.9.{ h 8 4 < 3 : < 3 < < 3 h 7.v.                                            ",
"                                                    x.%.9.+.a 3 > : : : > 3 3 : U t.m.                                          ",
"                                                        z.w.h > R } g 3 : 3 < 3 8 3.>.                                          ",
"                                                          4.y : { 2.2.[ 5 : 3 > : E %.L                                         ",
"                                                          0.h > X.I X O.[ 4 3 : 6 u r.H                                         ",
"                                                          q.y > | ! . 0 8.f : 3 < y 8.D                                         ",
"                                      ).F.l.h.d.e.w.G.    0.y ,  .^ % M y.~ : : : s 4.v                                         ",
"                                      K.7.R I h a R a.    w.y 1 o._ = G i.U : < : h 4.v                                         ",
"                                      ^.$.3 < : < d 4.1.n.w.h > | ` N J e.k : 6 3 I +.c                                         ",
"                                      `.u.s < : < 3 R t.-.q.e : o.` B ;.2.8 : 3 3 ] @.c                                         ",
"                                        l.E 3 4 3 : 3 ] 9.0.y < o.#.` 9.r < 3 : i 5.j C                                         ",
"                                        P.9.a : : : : 5 R 2.s : { 0.7.r 3 3 4 1 ( ..$                                           ",
"                                          h.} 3 3 : 3 3 : 8 : 1 p k 5 < : 3 : e 4.s =                                           ",
"                                          W.u.R 5 3 : 3 : : : 3 3 : 3 3 > : y 3.( $                                             ",
"                                            V.e.] 5 > 3 3 3 : : : 3 3 : 3 U 4.) $ V                                             ",
"                                              N.p.6._ s 5 3 1 3 3 5 s ~ O.7.h $ V                                               ",
"                                                  c.y.9.O.[ d : Q 7.4.O.I 9 *                                                   ",
"                                                      F =.w.y > o.} ; o %                                                       ",
"                                                          w.y < | I +                                                           ",
"                                                          q.s 2 o.^ &                                                           ",
"                                                          0.] ( 6.`                                                             ",
"                                                          A.g.p.&.m                                                             ",
"                                                                                                                                ",
"                                                                                                                                ",
"                                                                                                                                ",
"                                                                                                                                ",
"                                                                                                                                ",
"                                                                                                                                ",
"                                                                                                                                ",
"                                                                                                                                ",
"                                                                                                                                "
};
