/* XPM */
static char *result[] = {
/* columns rows colors chars-per-pixel */
"64 64 151 2 ",
"   c #2B2975",
".  c #2D2C78",
"X  c #32337B",
"o  c #7E2951",
"O  c #783456",
"+  c #BF1D25",
"@  c #BF2126",
"#  c #BF2429",
"$  c #BF2A2D",
"%  c #C11E25",
"&  c #C12127",
"*  c #C12329",
"=  c #C2292E",
"-  c #C22D32",
";  c #C33235",
":  c #C43539",
">  c #C8363C",
",  c #C53A3D",
"<  c #C83B3D",
"1  c #8E2C4C",
"2  c #833659",
"3  c #C63D41",
"4  c #C64344",
"5  c #C84345",
"6  c #C74847",
"7  c #C54649",
"8  c #CA454A",
"9  c #C64B4C",
"0  c #C94B4C",
"q  c #C9504F",
"w  c #C74E50",
"e  c #CB4E51",
"r  c #C65151",
"t  c #CA5354",
"y  c #CD5559",
"u  c #CC5B5C",
"i  c #D1565B",
"p  c #CB615F",
"a  c #CF5E62",
"s  c #D15D61",
"d  c #CD6463",
"f  c #CD6967",
"g  c #CE6768",
"h  c #CE6D6C",
"j  c #D16366",
"k  c #D26669",
"l  c #D16B6C",
"z  c #CF706F",
"x  c #D0706D",
"c  c #D36E71",
"v  c #CD7373",
"b  c #D37373",
"n  c #D27875",
"m  c #D67678",
"M  c #D47C7C",
"N  c #D97A7C",
"B  c #D3827D",
"V  c #3A3A81",
"C  c #3F4082",
"Z  c #4B4E8E",
"A  c #4D508F",
"S  c #575892",
"D  c #6F6E9F",
"F  c #D67E81",
"G  c #DA7E81",
"H  c #B5A7BF",
"J  c #D58382",
"K  c #DA8385",
"L  c #D68986",
"P  c #DB8887",
"I  c #DB8789",
"U  c #D68C8A",
"Y  c #DC8B8D",
"T  c #D6908E",
"R  c #DA918E",
"E  c #DD8E90",
"W  c #DC9494",
"Q  c #DE9699",
"!  c #DD9C9B",
"~  c #E09596",
"^  c #E1969A",
"/  c #E19A9B",
"(  c #DDA19E",
")  c #E0A09D",
"_  c #E09FA0",
"`  c #DFA0A0",
"'  c #DFA9A6",
"]  c #DFACA8",
"[  c #E2A3A3",
"{  c #E4A8A7",
"}  c #E5A6A8",
"|  c #E3ACAC",
" . c #E2B1AD",
".. c #E5AEB0",
"X. c #E8AEB1",
"o. c #E5B4B4",
"O. c #E9B6B6",
"+. c #E3BAB7",
"@. c #E7B6B8",
"#. c #E8B7B9",
"$. c #E6BAB9",
"%. c #EABCBC",
"&. c #E6C0BD",
"*. c #B8B8CF",
"=. c #EBBEC0",
"-. c #C5C5D7",
";. c #CBCCDB",
":. c #D1D0DE",
">. c #E6C4C2",
",. c #EAC3C3",
"<. c #EACAC7",
"1. c #EDC6C8",
"2. c #E7CBC9",
"3. c #EDCCCC",
"4. c #F0CCCD",
"5. c #EED0CF",
"6. c #EECFD0",
"7. c #F1CFD0",
"8. c #EED3D3",
"9. c #EEDCDB",
"0. c #F1D4D5",
"q. c #F1D9D6",
"w. c #F3D7D8",
"e. c #F3DCDC",
"r. c #F3E1DE",
"t. c #D4D4E1",
"y. c #DBDBE7",
"u. c #DFDFEA",
"i. c #DFE0EA",
"p. c #EFE0E0",
"a. c #E4E4ED",
"s. c #F4E4E3",
"d. c #F8E6E7",
"f. c #F5E9E7",
"g. c #F8E8E7",
"h. c #F6E7E8",
"j. c #F6ECEB",
"k. c #F8ECEC",
"l. c #F6F1EF",
"z. c #F8F0EF",
"x. c #E6E7F1",
"c. c #E7E9F1",
"v. c #EAEBF1",
"b. c #EFF0F4",
"n. c #F3F2F5",
"m. c #FAF4F4",
"M. c #FBF8F6",
"N. c #F4F5F8",
"B. c #FBF7F9",
"V. c #FEFDFD",
"C. c None",
/* pixels */
"C.C.C.C.C.C.C.C.C.C.C.C.C.C.C.C.C.C.C.C.C.C.C.C.C.C.C.C.C.C.C.C.C.C.C.C.C.C.C.C.C.C.C.C.C.C.C.C.C.C.C.C.C.C.C.C.C.C.C.C.C.C.C.C.",
"C.C.C.C.C.C.C.C.C.C.C.C.C.C.C.C.C.C.C.C.C.C.C.C.C.C.C.C.C.C.C.C.C.C.C.C.C.C.C.C.C.C.C.C.C.C.C.C.C.C.C.C.C.C.C.C.C.C.C.C.C.C.C.C.",
"C.C.C.C.C.C.C.C.C.C.C.C.C.C.C.C.C.C.C.C.C.C.C.C.C.C.C.C.C.C.C.C.C.C.C.C.C.C.C.C.C.C.C.C.C.C.C.C.C.C.C.C.C.C.C.C.C.C.C.C.C.C.C.C.",
"C.C.C.C.C.C.C.C.C.C.C.C.C.C.C.C.C.C.C.C.C.C.C.C.C.C.C.C.C.C.C.C.C.C.C.C.C.C.C.C.C.C.C.C.C.C.C.C.C.C.C.C.C.C.C.C.C.C.C.C.C.C.C.C.",
"C.C.C.C.C.C.C.C.C.C.C.C.C.C.C.C.C.C.C.C.C.C.C.C.C.C.C.C.C.C.C.C.C.C.C.C.C.C.C.C.C.C.C.C.C.C.C.C.C.C.C.C.C.C.C.C.C.C.C.C.C.C.C.C.",
"C.C.C.C.C.C.C.C.C.C.C.C.C.C.C.C.C.C.C.C.C.C.C.C.C.C.C.C.C.C.C.C.C.C.C.C.C.C.C.C.C.C.C.C.C.C.C.C.C.C.C.C.C.C.C.C.C.C.C.C.C.C.C.C.",
"C.C.C.C.C.C.C.C.C.C.C.C.C.C.C.C.C.C.C.C.C.C.C.C.C.C.C.C.C.C.C.C.C.C.C.C.C.C.C.C.C.C.C.C.C.C.C.C.C.C.C.C.C.C.C.C.C.C.C.C.C.C.C.C.",
"C.C.C.C.C.C.C.C.C.C.C.C.C.C.C.C.C.C.C.C.C.C.C.C.C.C.C.C.C.C.C.C.C.C.C.C.C.C.C.C.C.C.C.C.C.C.C.C.C.C.C.C.C.C.C.C.C.C.C.C.C.C.C.C.",
"C.C.C.C.C.C.C.C.C.C.C.C.C.C.C.C.C.C.C.C.C.C.C.C.C.C.C.C.C.C.C.C.C.C.C.C.C.C.C.C.C.C.C.C.C.C.C.C.C.C.C.C.C.C.C.C.C.C.C.C.C.C.C.C.",
"C.C.C.C.C.C.C.C.C.C.C.C.C.C.C.C.C.C.C.C.C.C.C.C.C.C.C.C.C.C.C.C.C.C.C.C.C.C.C.C.C.C.C.C.C.C.C.C.C.C.C.C.C.C.C.C.C.C.C.C.C.C.C.C.",
"C.C.C.C.C.C.C.C.C.C.C.C.C.C.C.C.C.C.C.C.C.C.C.C.C.C.C.C.C.C.C.C.C.C.C.C.C.C.C.C.C.C.C.C.C.C.C.C.C.C.C.C.C.C.C.C.C.C.C.C.C.C.C.C.",
"C.C.C.C.C.C.C.C.C.C.C.C.C.C.C.C.C.C.C.C.C.C.C.C.C.C.C.C.C.C.C.C.C.C.C.C.C.C.C.C.C.C.C.C.C.C.C.C.C.C.C.C.C.C.C.C.C.C.C.C.C.C.C.C.",
"C.C.C.C.C.C.C.C.C.C.C.C.C.C.C.C.C.C.C.C.C.C.C.C.C.C.C.C.C.C.C.C.C.C.C.C.C.C.C.C.C.C.C.C.C.C.C.C.C.C.C.C.C.C.C.C.C.C.C.C.C.C.C.C.",
"C.C.C.C.C.C.C.C.C.C.C.C.C.C.C.C.C.C.C.C.C.C.C.C.C.C.C.C.C.C.C.C.C.C.C.C.C.C.C.C.C.C.C.C.C.C.C.C.C.C.C.C.C.C.C.C.C.C.C.C.C.C.C.C.",
"C.C.C.C.C.C.C.C.C.C.C.C.C.C.C.C.C.C.C.C.C.C.C.C.C.C.C.C.C.C.C.C.C.C.C.C.C.C.C.C.C.C.C.C.C.C.C.C.C.C.C.C.C.C.C.C.C.C.C.C.C.C.C.C.",
"C.C.C.C.C.C.C.C.C.C.C.C.C.C.C.C.C.C.C.C.C.C.C.C.C.C.C.C.C.C.C.C.C.C.C.C.C.C.C.C.C.C.C.C.C.C.C.C.C.C.C.C.C.C.C.C.C.C.C.C.C.C.C.C.",
"C.C.C.C.C.C.C.C.C.C.C.C.C.C.C.C.C.C.C.C.C.C.C.C.C.C.C.C.C.C.C.C.C.C.C.C.C.C.C.C.C.C.C.C.C.C.C.C.C.C.C.C.C.C.C.C.C.C.C.C.C.C.C.C.",
"C.C.C.C.C.C.C.C.C.C.C.C.C.C.C.C.C.C.C.C.C.C.C.C.C.C.C.C.C.C.C.C.C.C.C.C.C.C.C.C.C.C.C.C.C.C.C.C.C.C.C.C.C.C.C.C.C.C.C.C.C.C.C.C.",
"C.C.C.C.C.C.C.C.C.C.C.C.C.C.C.C.C.C.C.C.C.C.C.C.C.C.C.C.C.C.C.C.C.C.C.C.C.C.C.C.C.C.C.C.C.C.C.C.C.C.C.C.C.C.C.C.C.C.C.C.C.C.C.C.",
"C.C.C.C.C.C.C.C.C.C.C.C.C.C.C.C.C.C.C.C.C.C.C.C.C.C.C.C.C.C.C.C.C.C.C.C.C.C.C.C.C.C.C.C.C.C.C.C.C.C.C.C.C.C.C.C.C.C.C.C.C.C.C.C.",
"C.C.C.C.C.C.C.C.C.C.C.C.C.C.C.C.C.C.C.C.C.C.C.C.C.C.C.C.C.C.C.C.C.C.C.C.C.C.C.C.C.C.C.C.C.C.C.C.C.C.C.C.C.C.C.C.C.C.C.C.C.C.C.C.",
"C.C.C.C.C.C.C.C.C.C.C.C.C.C.C.C.C.C.C.C.C.C.C.C.C.C.C.C.C.C.C.C.C.C.C.C.C.C.C.C.C.C.C.C.C.C.C.C.C.C.C.C.C.C.C.C.C.C.C.C.C.C.C.C.",
"C.C.C.C.C.C.C.C.C.C.C.C.C.C.C.C.C.C.C.C.C.C.C.C.C.C.C.C.C.C.C.C.C.C.C.C.C.C.C.C.C.C.C.C.C.C.C.C.C.C.C.C.C.C.C.C.C.C.C.C.C.C.C.C.",
"C.C.C.C.C.C.C.C.C.C.C.C.C.C.C.C.C.C.C.C.C.C.C.C.C.C.C.C.C.C.C.C.C.C.C.C.C.C.C.C.C.C.C.C.C.C.C.C.C.C.C.C.C.C.C.C.C.C.C.C.C.C.C.G ",
"C.C.C.C.C.C.C.C.C.C.C.C.C.C.C.C.C.C.C.C.C.C.C.C.C.C.C.C.C.C.C.C.C.C.C.C.C.C.C.C.C.C.C.C.C.C.C.C.C.C.C.C.C.C.O 1 o 2 F Q { W c M ",
"C.C.C.C.C.C.C.C.C.C.C.C.C.C.C.C.C.C.C.C.C.C.C.C.C.C.C.C.C.C.C.C.C.C.C.C.C.C.C.C.C.C.C.C.C.C.C.C.C.C.C.C.C.H 8.$ g o.{ ` W ] ..| ",
"C.C.C.C.C.C.C.C.C.C.C.C.C.C.C.C.C.C.C.C.C.C.C.C.C.C.C.C.C.C.C.C.C.C.C.C.C.C.C.X X V X . X   . Z A S C S D v.V.f.l.n.j.h.8.w.8.3.",
"V.V.V.V.C.C.C.C.C.C.C.C.C.C.C.C.*.t.v.c.N.t.-.-.N.v.a.a.c.x.v.n.V.n.N.n.N.n.n.b.n.v.x.c.a.u.y.t.;.;.y.n.V.V.V.V.V.V.V.V.V.V.V.V.",
"V.V.V.V.V.V.V.V.V.V.V.V.V.V.V.V.V.V.V.V.V.V.V.V.V.V.V.V.V.V.V.V.V.V.V.V.V.V.V.V.V.V.V.V.V.V.V.V.V.V.V.V.V.V.V.V.V.V.V.V.V.V.V.V.",
"V.V.V.V.V.V.V.V.V.V.V.V.V.V.V.V.V.V.V.V.V.V.V.V.V.V.V.V.V.V.V.V.V.V.V.V.V.V.V.V.V.V.V.V.V.V.V.V.V.V.V.V.V.V.V.V.V.V.V.V.V.V.V.V.",
"V.V.V.V.V.V.V.V.V.V.V.V.V.V.V.V.V.V.V.V.V.V.V.V.V.V.V.V.V.V.V.V.V.V.V.V.V.V.V.V.V.V.V.V.V.V.V.B.m.m.M.s.3.3.e.e.0.0.3.#.3.0.h.w.",
"V.V.V.V.V.V.V.V.V.V.V.V.V.V.V.V.V.V.V.V.V.V.V.V.V.m.k.g.z.g.s.6.6.8.8.0.m.M.3.o.%.0.#.! j 8 d z t 0 f d 4 7 B ! : ; g ; * u - * ",
"s t i u d d l l g F y d a y a d Q q.&.d c M n ) 3.R , 4 9 p x B c Q n 0 d b 4 # + * * * = * * ; 3 e : : - * # = % = 3 * * * * - ",
"7 ; = 0 L @.|  .g z y - * * * * z 0 r 0 * * * = , f n q = = , , + $ * 0 t 3 $ * % + # * * = # 3 * * = - 7 9 u d h m d u a 4 3 t ",
"7 $ # $ * & & = * : * * = - 9 r u h M m b l k 4 0 u q ; 3 ; & - 7 r : x u $.{ 7 - w 9 $ # + * + ; % % * : = + # 5 = 6 n l * # % ",
"Y 4 $ 6 4 * , j - % $ : > l d 7 9 7 4 ; 9 l x f l = , q q - = = = = * * : ; + # * * - * * * * * * * % * % * * % * & & 4 = t * ! ",
"t z ! n.j.j.M.l.3.$.q.8.U ! L { - = ; ; = = 7 r J &.u # = q , 3 8 - 8 ; , , 4 ; - * % * % % * % * % % * % * * * * % & - * : d M ",
"u $ z m.V.V.V.V.V.V.V.V.V.V.V.V.j.>.&.@.,.q.s.>.o.o.$.5.r.e.s.V.V.3.m.3.8.2.s.M.o.} I l k e 3 = - - * * * % % % * * & * * * @ # ",
"M.J z s.j.V.V.V.V.V.V.V.V.V.V.V.V.V.V.V.V.V.V.V.V.V.V.V.V.V.V.V.V.V.V.V.V.V.V.V.V.V.V.V.V.V.m.s.h.6.e.' _ K F K I I Y W W ~ ) { ",
"V.M.>.&.r.V.V.V.V.V.V.V.V.V.V.V.V.V.V.V.V.V.V.V.V.V.V.V.V.V.V.V.V.V.V.V.V.V.V.V.V.V.V.V.V.V.V.V.V.V.V.V.V.V.V.V.V.V.V.V.V.V.V.V.",
",.4.m.V.m.m.n.h.M.m.h.e.m.V.V.V.V.V.V.V.V.V.V.V.V.V.V.V.V.V.V.V.V.V.V.V.V.V.V.V.V.V.V.V.V.V.V.V.V.V.V.V.V.V.V.V.V.V.V.V.V.V.V.V.",
"F / 8.V.8.9.g.3.w.,.#.o.n y O.e.8.0.w.0.K g.k.z.7.} { g.<.O.%.<.M.0.0.V.B.m.M.B.V.V.V.M.B.V.V.V.M.M.M.V.B.B.V.B.V.M.V.M.V.M.V.V.",
"M.V.V.V.V.M.V.z.m.V.V.O.3 ; k m | X.m s p M.W N 1./ 0 =.b 0 & = e.; - e.r.3 8 s G M.z.m ^ } c ^ k.0 4 5 t 7 y 9 8 0 0 t e e e e ",
"V.V.V.V.M.m.V.m.m.V.V.V.B.$.x J ^ Y * % % k.y ; c w.> =.c 8 = < d.3 - e.O.s & * ^ ,.0.y E G % % =.k * * , h l h J 0 , 0 m E 8 - ",
"6.w.,.| W Q | } ) [ Y Y Q ^ L 7 K I * * * d.% * I } * %.i * * * e.> * e.s X.% * w.c } * E G % - w.8 * % * * - - = & & - , - * * ",
"* * * & * % % + & & * > N y = - I Y % # * M.4.d.4.> * =.i * % & e.s * e.* d.8 k / K } * E e.1.e.K * - = * * 4 * & * - * * * * * ",
"0 * * & * * * * ; t q t >.s.| B | =.P P 3 g.0 [ w.; * %.i % * 0 e.8 K r.8 } I O.8 m } * E ~ s 3 s > % = * * ; & , = 4 , % * % * ",
"0 * * : * * * * * * & * * 9 > - ~ E * = = g.- * =.K % E / * * 8 e.= : e.* 3 w.4.8 k } % Y G 3 = e : = * , * ; u 0 5 ; * * * % * ",
"9 ( B %.J # + + + # $ ; * # 7 4 K e.J 9 v f.u $ , s.> - %.w.4.w.y b , e.7 u s.&.v K O.q @.K $ : ; - * - # & = t 4 J U  .t $ 4 , ",
"f.B.n.V.V.8.! =.8.e.e.E E K J m W M. .| L x n l T u q p d l x l o.W 0 7 n L L u 7 B ( f 0 , 9 M M h v 3 4 p 9 0 4 y U h y f L z ",
"&.q.r.g.M.V.B.B.f.r.p.V.V.V.M.s.B.p.m.V.V.V.q.M.V.V.M.M.V.M.M.V.V.V.M.M.q.M.M.M.M.M.m.M.z.( z.w.8.s.f.m.m.M.M.l.z.m.M.V.M.V.V.M.",
"| o.B +.>.8.V.B.2.9.V.V.V.V.V.V.V.V.V.V.V.V.V.V.V.V.V.V.V.V.V.V.V.V.V.V.V.V.V.V.V.V.V.V.V.V.z.n.9. .+.L p.j.s.V.m.M.m.V.n.8.+.+.",
"V.V.V.V.V.V.V.V.B.V.V.V.V.V.V.V.V.V.V.V.V.V.V.V.V.V.V.V.V.V.V.V.V.V.V.V.V.V.V.V.V.V.V.V.V.V.V.m.j.l.] 1.j.f.q.M.V.V.B.V.V.m.m.V.",
"M.n.B.V.V.V.V.V.V.V.V.V.V.w.V.V.V.B.V.V.m.l.V.V.f.M.B.B.V.V.m.V.V.V.V.V.n.V.M.j.V.V.M.=.V.V.B.V.m.V.j.V.V.N.n.V.V.V.V.V.V.V.V.V.",
"V.M.m.f.j.V.V.V.V.m.z.j.f.9.5.3.w.p.<.| T | #.#.o.#.5.s.3.<.7.8.z.r.k.g.e.m.m.N.M.s.m.s.V.l.n.V.f.m.j.V.V.m.3.V.V.B.M.M.m.V.V.V.",
"9.6.,.8.V.>.T F M B J J : : $ M K - - = @ * ; + * 7 = h L 0 7 0 3 : = * e 4 3 $ : 7 7 t k s e y a j k l b N ` Q W { K I Y R Y Y ",
"k % % ; l - * , = * * * * * * + # * t - y R [ 8 * * * # * , 3 ; 3 u , * p L R = 4 B R r n n e % 6 t , = : ; u 0 8 , * = < j ; = ",
"3 * , 4 l ( U ,.J = % * * - # * 3 4 d T <.| 3 * * - - # * 3 , y 5 3 4 * & * * & # , , ; e d = - ; : ; b d U g b 3 - & * > ; = 5 ",
"! [ / W M u 0 - % % % % * * f I e > r M t # * ; 3 5 ; ; * - * - w c d v U x M x J ! { e - b 3.! , ; : t , w 3 d * * , 5 - , 0 t ",
"m b j j j i e 8 5 3 : - * % * % * * > , , * * = t 7 7 h t - 6 ; = 4 n ,.O.W d 7 d d t 5 = * 3 + & & ; : - * - - * : = 5 : 5 / M.",
"C.C.C.C.C.C.C.C.C.C.C.C.#.{ Q [ / ` W { o.U N y 3 * - - u ; 7 h m r 0 3 5 = * * = - - = * x d M ! p - & * * * * * * * - * b o._ ",
"C.C.C.C.C.C.C.C.C.C.C.C.C.C.C.C.C.C.C.C.C.C.C.C.C.C.C.C.C.C.C.C.C.C.3.o.| ) ~ ~ E Y K N b l y > & & % ; c Y K N c j y y 8 e w 0 ",
"C.C.C.C.C.C.C.C.C.C.C.C.C.C.C.C.C.C.C.C.C.C.C.C.C.C.C.C.C.C.C.C.C.C.C.C.C.C.C.C.C.C.C.C.C.C.C.C.C.C.C.C.C.C.C.C.C.C.C.C.C.C.C.C.",
"C.C.C.C.C.C.C.C.C.C.C.C.C.C.C.C.C.C.C.C.C.C.C.C.C.C.C.C.C.C.C.C.C.C.C.C.C.C.C.C.C.C.C.C.C.C.C.C.C.C.C.C.C.C.C.C.C.C.C.C.C.C.C.C."
};
