/* XPM */
static char *_2a8cdc9e62d4160dd69cf0c0165f1b8sAvc2fEWFawixN4t[] = {
/* columns rows colors chars-per-pixel */
"64 64 205 2 ",
"   c None",
".  c black",
"X  c #010101",
"o  c #020202",
"O  c gray1",
"+  c #040404",
"@  c gray2",
"#  c #060606",
"$  c #070707",
"%  c gray3",
"&  c #090909",
"*  c gray4",
"=  c #0B0B0B",
"-  c #0C0C0C",
";  c gray5",
":  c #0E0E0E",
">  c gray6",
",  c #101010",
"<  c #111111",
"1  c gray7",
"2  c #131313",
"3  c gray8",
"4  c #151515",
"5  c #161616",
"6  c gray9",
"7  c #181818",
"8  c #191919",
"9  c gray10",
"0  c #1B1B1B",
"q  c #1D1D1D",
"w  c #1E1E1E",
"e  c gray12",
"r  c gray13",
"t  c gray14",
"y  c gray15",
"u  c #272727",
"i  c #282828",
"p  c gray16",
"a  c #2A2A2A",
"s  c gray17",
"d  c #2C2C2C",
"f  c #2D2D2D",
"g  c gray18",
"h  c #2F2F2F",
"j  c gray19",
"k  c #313131",
"l  c #323232",
"z  c gray20",
"x  c #343434",
"c  c #353535",
"v  c gray21",
"b  c #373737",
"n  c gray22",
"m  c #3A3A3A",
"M  c #3C3C3C",
"N  c gray24",
"B  c #3E3E3E",
"V  c #3F3F3F",
"C  c gray25",
"Z  c #414141",
"A  c gray26",
"S  c #434343",
"D  c gray27",
"F  c #464646",
"G  c #484848",
"H  c #494949",
"J  c gray29",
"K  c gray30",
"L  c #4E4E4E",
"P  c gray31",
"I  c #505050",
"U  c gray32",
"Y  c #535353",
"T  c gray33",
"R  c #565656",
"E  c gray34",
"W  c #585858",
"Q  c #5A5A5A",
"!  c #5B5B5B",
"~  c gray36",
"^  c #5D5D5D",
"/  c #5F5F5F",
"(  c gray38",
")  c #626262",
"_  c gray39",
"`  c #646464",
"'  c #656565",
"]  c gray40",
"[  c #676767",
"{  c #686868",
"}  c DimGray",
"|  c #6A6A6A",
" . c #6C6C6C",
".. c #6D6D6D",
"X. c #6F6F6F",
"o. c gray44",
"O. c #717171",
"+. c #727272",
"@. c gray45",
"#. c #747474",
"$. c #767676",
"%. c #777777",
"&. c gray47",
"*. c gray48",
"=. c #7B7B7B",
"-. c #7C7C7C",
";. c gray49",
":. c #7E7E7E",
">. c #818181",
",. c gray51",
"<. c #838383",
"1. c gray52",
"2. c #888888",
"3. c #898989",
"4. c gray54",
"5. c #8B8B8B",
"6. c gray55",
"7. c #8E8E8E",
"8. c gray56",
"9. c #909090",
"0. c gray57",
"q. c #929292",
"w. c #939393",
"e. c gray59",
"r. c #979797",
"t. c #989898",
"y. c gray60",
"u. c #9A9A9A",
"i. c gray61",
"p. c #9D9D9D",
"a. c gray62",
"s. c #9F9F9F",
"d. c #A0A0A0",
"f. c gray63",
"g. c gray64",
"h. c #A4A4A4",
"j. c #A5A5A5",
"k. c #A7A7A7",
"l. c #A9A9A9",
"z. c #AAAAAA",
"x. c gray67",
"c. c #ACACAC",
"v. c gray68",
"b. c #AEAEAE",
"n. c #AFAFAF",
"m. c gray69",
"M. c #B1B1B1",
"N. c #B2B2B2",
"B. c gray70",
"V. c #B4B4B4",
"C. c gray71",
"Z. c #B7B7B7",
"A. c gray72",
"S. c #B9B9B9",
"D. c gray73",
"F. c #BBBBBB",
"G. c #BCBCBC",
"H. c gray74",
"J. c gray",
"K. c gray75",
"L. c #C1C1C1",
"P. c gray76",
"I. c #C3C3C3",
"U. c gray77",
"Y. c gray78",
"T. c gray79",
"R. c #CACACA",
"E. c #CBCBCB",
"W. c gray80",
"Q. c #CECECE",
"!. c #D0D0D0",
"~. c gray82",
"^. c #D2D2D2",
"/. c gray84",
"(. c #D7D7D7",
"). c #DADADA",
"_. c gray86",
"`. c #DDDDDD",
"'. c #DFDFDF",
"]. c gray88",
"[. c #E2E2E2",
"{. c gray89",
"}. c gray90",
"|. c #E7E7E7",
" X c gray91",
".X c #E9E9E9",
"XX c gray92",
"oX c #ECECEC",
"OX c gray93",
"+X c #EEEEEE",
"@X c gray94",
"#X c #F1F1F1",
"$X c #F3F3F3",
"%X c #F4F4F4",
"&X c gray96",
"*X c #F6F6F6",
"=X c gray97",
"-X c #F8F8F8",
";X c #F9F9F9",
":X c gray98",
">X c #FBFBFB",
",X c gray99",
"<X c #FDFDFD",
"1X c #FEFEFE",
"2X c white",
/* pixels */
"                                                                                                                                ",
"                                                                                                                                ",
"                                                                                                                                ",
"                                                                                                                                ",
"                                                                                                                                ",
"                                                                                                                                ",
"                                                                                                                                ",
"                                                                                                                                ",
"                                                                                                                                ",
"                                                                                                                                ",
"                                                                                                                                ",
"                                                                                                                                ",
"                                                                                                                                ",
"                                                                                                                                ",
"                                                                                                                                ",
"                                                                                                                                ",
"                                                                                                                                ",
"                                                                                                                                ",
"                                                                                                                                ",
"                                                            a > o o o o > a }                                                   ",
"                                                      0 o o o o o o o 1 m % o o 1 V -.                                          ",
"                                                  ^ o w +.B.K.L.F.-.1 o I _.C.#.V % o o y  .v.                                  ",
"                                                  o g OX<X<X<X<X<X<X'.m o j }.<X<XOXu.L 0 $ o % R K.        I $ o o $ a B.      ",
"                                                a.o >.^.C.v.C.^.&X<X<X@X! o v OX<X<X<X<XOXL.-.y o $ j B.  g o y ^ ] A $ $ B.    ",
"                                              8.V o o o o o o o 0 >.&X<X&XR o *.<X<X<X<X<X<X<X>XK.^ $ o j o ^ >X<X<X<XF.$ R     ",
"                                            1 o % r V ^ #.*.+.! 5 o V '.<X}.1 0 <X<X<X<X<X<X<X<X<X<XR.A o o z.<X<X<X<X@X0 v     ",
"                                          5 > 1.].&X>X<X<X<X<X<X}.J o 0 R./.> r <X<X<X<X<X<X<X<X<X<X<X>X! o F.<X<X<X<X&Xa a     ",
"                                          o -.<X<X<X<X<X<X<X<X<X<X&X>.$ 5 0 o 2.<X<X<X<X<X<X<X<X<X<X<X<X+.o F.<X<X<X<X&Xg r     ",
"                                          o j.<X<X&XOX X&X<X<X<X<X<X<X0.$ o +.>X<X<X<X<X<X<X<X<X<X<X<X<X#.o F.<X<X<X<X>Xj 0     ",
"                                        0.o m ! g % o o $ j 2./.<X<X<X<X*.o J <X<X<X<X<X<X<X<X<X<X<X<X<X#.o F.<X<X<X<X>Xv 0     ",
"                                      A $ o o $ % 0 a j r % o % J U.>X<X>Xa > }.<X<X<X<X<X<X<X<X<X<X<X<X#.o F.<X<X<X<X>Xv 0     ",
"                                    V o J a.K.^.j.-.8.}.>X'.r.g o $ J R.g.% w &X<X<X<X<X<X<X<X<X<X<X<X<X#.o F.<X<X<X<X>Xv 0     ",
"                                  L.o L >X<X<X*.o o o 1 a.<X<X>Xz.V o o o > v.<X<X<X<X<X<X<X<X<X<X<X<X<X+.o F.<X<X<X<X>Xj 0     ",
"                                  1.o g.<X<X/.% w g.*.1 o a.<X<X<X>Xj.1 o >.<XOXQ.j.2.+.] ] } -.a.>X<X<X .o K.<X<X<X<X>Xj 0     ",
"                                  -.o z.<X<XK.o +.<X<XR.> > Q.<X<X<X<XL.o v L 0 o o o o o o o o o Q.<X<X .o K.<X<X<X<X>Xj 0     ",
"                  8.2.2.8.r.g.j.g.} o V +.] F o A <X<X<Xa.o I <X<X<X<XF.o o o y ] 0.v.K.U.U.L.C.F.<X<X<X} o K.<X<X<X<X>Xj 0     ",
"          v o o o o o o o o o o o o o o o o $ $ $ OX<X<X&Xg o j } u.B.v o y z.>X<X<X<X<X<X<X<X<X<X<X<X<X} o K.<X<X<X<X>Xj 0     ",
"        % $ A -.a.z.v.v.z.a.0.0.0.u.j.v.L.^.].! o F.<X<X<Xr.o $ o o o o A OX<X<X<X<X<X<X<X<X<X<X<X<X<X<X] o K.<X<X<X<X>Xj 0     ",
"        o a.<X<X<X<X<X<X<X<X<X<X<X<X<X<X<X<X<X8.o r.<X<X<XR.o R U.+.o r }.<X<X<X<X<X<X<X<X<X<X<X<X<X<X<X_ o K.<X<X    >Xj 0     ",
"        o a.<X<X<X<X<X<X<X<X<X<X<X<X<X<X<X<X<Xa.o 2.<X<X<XB.o o g g o v.<X<X<X<X<X<X<X<X<X<X<X<X<X<X<X<X^ o K.<X<X<X<X&Xg w     ",
"        % $ ] v.^.]. X&X>X<X<X<X<X<X<X<X<X<X<Xg.o >.<X<X<X X! m 1 o y &X<X<X<X<X<X<X<X<X<X<X<X<X<X<X<X<XL o K.<X<X<X<X&Xa y     ",
"            o o $ 1 0 w y j v A F L R ! _  .+.R o >.<X<X<X<X<X<X_.J 0.<X<X<X<X<X<X<X<X<X<X<X<X<X<X<X>X#.$ o g.<X<X<X<XOX5 j     ",
"                    m y 0 1 % $ o o o o o o o o o ^ >X<X<X<X<X<X<X<X<X<X<X<X<X<X<X<X<X<X<X<X<X<X<XOXR o w % > R #.#._ y o       ",
"                                                y $ a.<X<X<X<X<X<X<X<X<X<X<X<X<X<X<X<X<X<X<X<X<XQ.j o V       $ o o $ 0         ",
"                                                  1 $ 0.>X<X<X<X<X<X<X<X<X<X<X<X<X<X<X<X<X<X&X2.> $ ]                           ",
"                                                    5 o ^ &X<X<X<X<X<X<X<X<X<X<X<X<X<X<X&Xu.g o 5                               ",
"                                                      v o g F.<X<X<X<X<X<X<X>X_.C.8. .F 5 o % }                                 ",
"                                                          $ o L u.j.a.8. .A 1 o o o $ 1 a                                       ",
"                                                              $ o $ o o $ % 0 J                                                 ",
"                                                                                                                                ",
"                                                                                                                                ",
"                                                                                                                                ",
"                                                                                                                                ",
"                                                                                                                                ",
"                                                                                                                                ",
"                                                                                                                                ",
"                                                                                                                                ",
"                                                                                                                                ",
"                                                                                                                                ",
"                                                                                                                                ",
"                                                                                                                                ",
"                                                                                                                                ",
"                                                                                                                                ",
"                                                                                                                                "
};
