/* XPM */
static char *a7ab6a73b5974027aba93ec7fb89d9f8QVpdg5iOw9JxntPo[] = {
/* columns rows colors chars-per-pixel */
"64 64 216 2 ",
"   c None",
".  c black",
"X  c #010101",
"o  c #020202",
"O  c gray1",
"+  c #040404",
"@  c gray2",
"#  c #060606",
"$  c #070707",
"%  c gray3",
"&  c #090909",
"*  c gray4",
"=  c #0B0B0B",
"-  c #0C0C0C",
";  c gray5",
":  c #0E0E0E",
">  c gray6",
",  c #101010",
"<  c #111111",
"1  c gray7",
"2  c #131313",
"3  c gray8",
"4  c #151515",
"5  c #161616",
"6  c gray9",
"7  c #181818",
"8  c #191919",
"9  c gray10",
"0  c #1B1B1B",
"q  c gray11",
"w  c #1D1D1D",
"e  c #1E1E1E",
"r  c gray12",
"t  c #202020",
"y  c gray13",
"u  c #222222",
"i  c #232323",
"p  c gray14",
"a  c #252525",
"s  c gray15",
"d  c #272727",
"f  c #282828",
"g  c gray16",
"h  c #2A2A2A",
"j  c gray17",
"k  c #2D2D2D",
"l  c gray18",
"z  c #2F2F2F",
"x  c gray19",
"c  c #313131",
"v  c #323232",
"b  c gray20",
"n  c #343434",
"m  c #353535",
"M  c gray21",
"N  c gray22",
"B  c #3A3A3A",
"V  c gray23",
"C  c #3C3C3C",
"Z  c gray24",
"A  c #3E3E3E",
"S  c #3F3F3F",
"D  c gray25",
"F  c #414141",
"G  c gray26",
"H  c #434343",
"J  c #444444",
"K  c gray27",
"L  c #464646",
"P  c gray28",
"I  c #484848",
"U  c #494949",
"Y  c gray29",
"T  c #4B4B4B",
"R  c #4C4C4C",
"E  c gray30",
"W  c #4E4E4E",
"Q  c gray31",
"!  c #505050",
"~  c #515151",
"^  c gray32",
"/  c #535353",
"(  c gray33",
")  c #555555",
"_  c #565656",
"`  c #585858",
"'  c gray35",
"]  c #5A5A5A",
"[  c #5B5B5B",
"{  c gray36",
"}  c #5D5D5D",
"|  c gray37",
" . c #606060",
".. c gray38",
"X. c #626262",
"o. c #646464",
"O. c #656565",
"+. c #676767",
"@. c #686868",
"#. c #6A6A6A",
"$. c gray42",
"%. c #6C6C6C",
"&. c #6D6D6D",
"*. c gray43",
"=. c #6F6F6F",
"-. c gray44",
";. c #717171",
":. c #727272",
">. c #747474",
",. c gray46",
"<. c #767676",
"1. c #777777",
"2. c gray47",
"3. c #797979",
"4. c gray48",
"5. c #7B7B7B",
"6. c #7C7C7C",
"7. c gray49",
"8. c #7E7E7E",
"9. c gray50",
"0. c #808080",
"q. c #818181",
"w. c gray51",
"e. c #838383",
"r. c #848484",
"t. c gray52",
"y. c #868686",
"u. c #8D8D8D",
"i. c #8E8E8E",
"p. c gray56",
"a. c #909090",
"s. c #929292",
"d. c gray58",
"f. c #959595",
"g. c gray59",
"h. c #979797",
"j. c #989898",
"k. c #9B9B9B",
"l. c gray62",
"z. c #A0A0A0",
"x. c gray63",
"c. c #A4A4A4",
"v. c #A5A5A5",
"b. c gray65",
"n. c #A7A7A7",
"m. c gray66",
"M. c #A9A9A9",
"N. c #AAAAAA",
"B. c gray67",
"V. c #ACACAC",
"C. c gray68",
"Z. c #AFAFAF",
"A. c gray69",
"S. c #B2B2B2",
"D. c gray70",
"F. c #B4B4B4",
"G. c gray71",
"H. c #B6B6B6",
"J. c #B7B7B7",
"K. c gray72",
"L. c gray73",
"P. c #BBBBBB",
"I. c #C0C0C0",
"U. c #C1C1C1",
"Y. c #C3C3C3",
"T. c gray77",
"R. c #C5C5C5",
"E. c #C6C6C6",
"W. c gray78",
"Q. c gray79",
"!. c #CACACA",
"~. c #CBCBCB",
"^. c gray80",
"/. c #CDCDCD",
"(. c #CECECE",
"). c #D0D0D0",
"_. c gray82",
"`. c #D2D2D2",
"'. c LightGray",
"]. c gray83",
"[. c #D7D7D7",
"{. c #D8D8D8",
"}. c gray85",
"|. c #DADADA",
" X c gainsboro",
".X c #DDDDDD",
"XX c gray87",
"oX c gray88",
"OX c gray89",
"+X c #E4E4E4",
"@X c gray90",
"#X c #E6E6E6",
"$X c #E7E7E7",
"%X c gray91",
"&X c #E9E9E9",
"*X c #EAEAEA",
"=X c gray92",
"-X c #ECECEC",
";X c gray93",
":X c #EEEEEE",
">X c gray94",
",X c #F1F1F1",
"<X c gray95",
"1X c #F3F3F3",
"2X c #F4F4F4",
"3X c gray96",
"4X c #F6F6F6",
"5X c gray97",
"6X c #F8F8F8",
"7X c #F9F9F9",
"8X c gray98",
"9X c #FBFBFB",
"0X c gray99",
"qX c #FDFDFD",
"wX c #FEFEFE",
"eX c white",
/* pixels */
"                                                                                                                                ",
"                                                                                                                                ",
"                                                                                                                                ",
"                                                  7.* o ; s.                                                                    ",
"                                                  o r X.5 *                                                                     ",
"                                                I o T.wXh.o 1.                                                                  ",
"                                                r d wXwX#X+ I                                                                   ",
"                                                * ` wXwXwX5 x                                                                   ",
"                                                o 3.wXwXwXd d                                                                   ",
"                                                o s.wXwXwXg d                                                                   ",
"                                                o z.wXwXwXg d                                                                   ",
"                                              j.o B.wXwXwXd d                                                                   ",
"                                              s.o K.wXwXwXr g                                                                   ",
"                                              q.o I.wXwXwX2 x                                                                   ",
"                                              1.o Q.wXwXwX; M                                                                   ",
"                                              *.+ /.wXwXwX2 M                                                                   ",
"                                              X.+ _.wXwXwX5 z                                                                   ",
"                                              ` + }.wXwXwXt + * o ; A                                                           ",
"                                              ^ + XXwXwXwXg + ^ :.A o 9                                                         ",
"                                              F + OXwXwXwXM 9 ;XwXwXq.o 1.                                                      ",
"                                              M + ;XwXwXwXF 2 %XwXwX#X5 * * * r h.                                              ",
"                                              z * >XwXwXwX( * XX9XwX9Xg o ^ } 5 + V.                                            ",
"                                              r ; }.XX}.T.P o ; 2 1.>XF o %XwXQ.+ M                                             ",
"                                            S.+ o ; ; * o o o ; ; o @.} o I.wXwXP ;                                             ",
"                                          h.* * F P I ^ @.u.T.3X#X5 t 1.o h.wXwX7.o ; 5 X.                                      ",
"                                        B.+ 9 I.wXwXwXwXwXwXwXwX9X9 r u.o 7.wXwXl.o r d o A                                     ",
"                                      T.; * Q.wXwXwXwXwXwXwXwXwXr.o ( c.o 1.wXwXI.o o.>X( o G.                                  ",
"                                      d + V.wXwXwXwXwXwXwXwX3Xr.* 5 XXj.o 7.wXwXXXo P wXT.+ `                                   ",
"                                    @.o :.wXwXwXwXwX%X;X#XG.M o 9 K.wX*.o c.wXwX#Xo V wX3Xr *                                   ",
"                                    * z >XwXwXwXwXXX9 9 5 o o I XXwX3Xg * %XwXwX#Xo V wXwXM o                                   ",
"                                  ( o B.wXwXwXwXwXG.o 2 ; o u.9XwXwXI.+ ( wXwXwX_.o ^ wXwXV o s.                                ",
"                                  g 9 wXwXwXwXwXwX3.o j.I o XXwXwXwXE o S.wXwXwXh.o 7.wXwXx o X.                                ",
"                                  t z wXwXwXwXwX].2 + T.d r wXwXwXQ.+ z 9XwXwXOX5 ; }.wX>X9 o M                                 ",
"                                  t z wXwXwXwXwXT.; o * + A wXwXwXE o V.wXwX>XV o q.wXwXh.o o M                                 ",
"                                  g r wXwXwXwXwXwX;Xu.t o t /.3Xh.o M 3XwX3X` o ^ wXwX_.; + o E                                 ",
"                                  A * 3XwXwXwXwXwXwXwX%X( o * t * o ( wX3X( o M ;XwX;Xg o o.o                                   ",
"                                    o _.wXwXwXwXwXwXwXwX9X^ o + x t + @.x o o c.wXXXx o o.r.o                                   ",
"                                    o c.wXwXwXwXwXwXwXwXwX#X2 2 %XT.9 o + A + 2 *.2 o ` wXP o                                   ",
"                                    o 1.wXwXwXwXwXwXwXwXwXwX7.o c.wX%XG./.9Xh.* o * r.3X%X; d                                   ",
"                                    + ^ wXwXwXwXwXwXwXwXwXwXI.o *.wXwXwXwXwXwXXXK.XXwXwXK.o                                     ",
"                                    9 z 9XwXwXwXwXwXwXwXwXwX#X2 V wXwXwXwXwXwXwXwXwXwXwXq.o                                     ",
"                                    A 5 ;XwXwXwXwXwXwXwXwXwX3Xr 5 9XwXwXwXwXwXwXwXwXwXwXx 2                                     ",
"                                      + }.wXwXwXwXwXwXwXwXwXwXz + >XwXwXwXwXwXwXwXwXwX].o F                                     ",
"                                      o B.wXwXwXwXwXwXwXwXwXwXA o %XwXwXwXwXwXwXwXwXwXu.o                                       ",
"                                      o I wXwXwXwXwXwXwXwXwXwXA o #XwXwXwXwXwXwXwXwXwXE +                                       ",
"                                      M * Q.wXwXwXwXwXwXwXwXwXV o %XwXwXwXwXwXwXwXwX3X5 x                                       ",
"                                        + E 9XwXwXwXwXwXwXwXwXz + >XwXwXwXwXwXwXwXwXS.o                                         ",
"                                        P o j.wXwXwXwXwXwXwX9Xd 5 wXwXwXwXwXwXwXwXwX^ o                                         ",
"                                          5 2 ].wXwXwXwXwXwXwXS.V.wXwXwXwXwXwXwXwXXX; z                                         ",
"                                            + z %XwXwXwXwXwXwXwXwXwXwXwXwXwXwXwXwX1.o                                           ",
"                                              o I 3XwXwXwXwXwXwXwXwXwXwXwXwXwXwX_.* r                                           ",
"                                              I o } j.l.z.c.c.B.B.V.S.S.S.S.S.S.A +                                             ",
"                                                o o o o o o o o o o o o o o o o o o M                                           ",
"                                              o r 7.q.7.7.7.7.7.3.3.3.3.1.1.1.1.*.F + 9                                         ",
"                                              + T.wXwXwXwXwXwXwXwXwXwXwXwXwXwXwXwXwX1.o                                         ",
"                                              5 %XwXwXwXwXwXwXwXwXwXwXwXwXwXwXwXwXwX/.o                                         ",
"                                            A 9 %XwXwXwXwXwXwXwXwXwXwXwXwXwXwXwXwXwXXXo                                         ",
"                                              2 #XwXwXwXwXwXwXwXwXwXwXwXwXwXwXwXwXwXQ.o                                         ",
"                                              + T.wXwXwXwXwXwXwXwXwXwXwXwXwXwXwXwX9X:.o                                         ",
"                                              o t ` o.@.*.*.*.*.*.*.:.:.:.*.@.X.^ M + 9                                         ",
"                                                ; o o o o o o o o o o o o o o o o * A                                           ",
"                                                                                                                                ",
"                                                                                                                                ",
"                                                                                                                                "
};
