/* XPM */
static char *_32cc3e999b24887ed1a0838210d13fcBoyfLS0HTKwP5qP1[] = {
/* columns rows colors chars-per-pixel */
"64 64 216 2 ",
"   c None",
".  c black",
"X  c #010101",
"o  c #020202",
"O  c gray1",
"+  c #040404",
"@  c gray2",
"#  c #060606",
"$  c #070707",
"%  c gray3",
"&  c #090909",
"*  c gray4",
"=  c #0B0B0B",
"-  c #0C0C0C",
";  c gray5",
":  c #0E0E0E",
">  c gray6",
",  c #101010",
"<  c #111111",
"1  c gray7",
"2  c #131313",
"3  c gray8",
"4  c #151515",
"5  c #161616",
"6  c gray9",
"7  c #181818",
"8  c #191919",
"9  c gray10",
"0  c #1B1B1B",
"q  c gray11",
"w  c #1D1D1D",
"e  c #1E1E1E",
"r  c gray12",
"t  c #202020",
"y  c gray13",
"u  c #222222",
"i  c #232323",
"p  c gray14",
"a  c #252525",
"s  c gray15",
"d  c #272727",
"f  c #282828",
"g  c gray16",
"h  c #2A2A2A",
"j  c gray17",
"k  c #2D2D2D",
"l  c gray18",
"z  c #2F2F2F",
"x  c gray19",
"c  c #313131",
"v  c #323232",
"b  c gray20",
"n  c #343434",
"m  c #353535",
"M  c gray21",
"N  c #373737",
"B  c gray22",
"V  c #3A3A3A",
"C  c gray23",
"Z  c #3C3C3C",
"A  c gray24",
"S  c #3E3E3E",
"D  c #3F3F3F",
"F  c gray25",
"G  c #414141",
"H  c gray26",
"J  c #434343",
"K  c #444444",
"L  c gray27",
"P  c #464646",
"I  c gray28",
"U  c #484848",
"Y  c #494949",
"T  c gray29",
"R  c #4B4B4B",
"E  c #4C4C4C",
"W  c gray30",
"Q  c #4E4E4E",
"!  c gray31",
"~  c #505050",
"^  c #515151",
"/  c gray32",
"(  c #535353",
")  c gray33",
"_  c #555555",
"`  c #565656",
"'  c #585858",
"]  c gray35",
"[  c #5A5A5A",
"{  c #5B5B5B",
"}  c gray36",
"|  c #5D5D5D",
" . c gray37",
".. c #606060",
"X. c gray38",
"o. c #626262",
"O. c #646464",
"+. c #656565",
"@. c #676767",
"#. c #686868",
"$. c #6A6A6A",
"%. c gray42",
"&. c #6C6C6C",
"*. c #6D6D6D",
"=. c gray43",
"-. c #6F6F6F",
";. c gray44",
":. c #717171",
">. c #727272",
",. c #747474",
"<. c gray46",
"1. c #767676",
"2. c #777777",
"3. c gray47",
"4. c #797979",
"5. c gray48",
"6. c #7B7B7B",
"7. c #7C7C7C",
"8. c gray49",
"9. c #7E7E7E",
"0. c gray50",
"q. c #808080",
"w. c gray51",
"e. c #838383",
"r. c #848484",
"t. c gray52",
"y. c #868686",
"u. c #8D8D8D",
"i. c #8E8E8E",
"p. c gray56",
"a. c #909090",
"s. c gray58",
"d. c #959595",
"f. c gray59",
"g. c #979797",
"h. c #989898",
"j. c #9B9B9B",
"k. c gray61",
"l. c gray62",
"z. c #A0A0A0",
"x. c gray63",
"c. c #A4A4A4",
"v. c #A5A5A5",
"b. c gray65",
"n. c #A7A7A7",
"m. c gray66",
"M. c #A9A9A9",
"N. c gray67",
"B. c #ACACAC",
"V. c gray68",
"C. c #AFAFAF",
"Z. c gray69",
"A. c #B1B1B1",
"S. c #B2B2B2",
"D. c gray70",
"F. c #B4B4B4",
"G. c gray71",
"H. c #B6B6B6",
"J. c #B7B7B7",
"K. c gray72",
"L. c gray73",
"P. c #BBBBBB",
"I. c #C0C0C0",
"U. c #C1C1C1",
"Y. c #C3C3C3",
"T. c gray77",
"R. c #C5C5C5",
"E. c #C6C6C6",
"W. c gray78",
"Q. c gray79",
"!. c #CACACA",
"~. c #CBCBCB",
"^. c gray80",
"/. c #CDCDCD",
"(. c #CECECE",
"). c #D0D0D0",
"_. c gray82",
"`. c #D2D2D2",
"'. c LightGray",
"]. c gray83",
"[. c #D7D7D7",
"{. c #D8D8D8",
"}. c gray85",
"|. c #DADADA",
" X c gainsboro",
".X c #DDDDDD",
"XX c gray87",
"oX c gray88",
"OX c gray89",
"+X c #E4E4E4",
"@X c gray90",
"#X c #E6E6E6",
"$X c #E7E7E7",
"%X c gray91",
"&X c #E9E9E9",
"*X c #EAEAEA",
"=X c gray92",
"-X c #ECECEC",
";X c gray93",
":X c #EEEEEE",
">X c gray94",
",X c #F1F1F1",
"<X c gray95",
"1X c #F3F3F3",
"2X c #F4F4F4",
"3X c gray96",
"4X c #F6F6F6",
"5X c gray97",
"6X c #F8F8F8",
"7X c #F9F9F9",
"8X c gray98",
"9X c #FBFBFB",
"0X c gray99",
"qX c #FDFDFD",
"wX c #FEFEFE",
"eX c white",
/* pixels */
"                                                                                                                                ",
"                                                                                                                                ",
"                                                        D.D.D.F.  F.F.F.F.I.                                                    ",
"                                          A & X X X X X X X X X X X X X X X X > 7.                                              ",
"                                        0 # n / o.#.=.>.>.>.=.=.=.=.=.=.#.@.[ y X F.                                            ",
"                                        X >.8XqXqXqXqXqXqXqXqXqXqXqXqXqXqXqXqXT.# =.                                            ",
"                                        X ~.qXqXqXqXqXqXqXqXqXqXqXqXqXqXqXqXqX$X< U                                             ",
"                                        X XXqXqXqXqXqXqXqXqXqXqXqXqXqXqXqXqXqX&X0 A                                             ",
"                                        X ^.qXqXqXqXqXqXqXqXqXqXqXqXqXqXqXqXqX&X6 F                                             ",
"                                        X <.qXqXqXqXqXqXqXqXqXqXqXqXqXqXqXqXqXT.# @.                                            ",
"                                        0 # F =.<.<.<.<.5.5.5.5.7.7.7.7.7.q.7.w X                                               ",
"                                          n X X X X X X X X X X X X X X X X X X 7.                                              ",
"                                            # A D.D.D.D.D.D.V.N.N.n.n.z.l.j.} X U                                               ",
"                                          w & ).qXqXqXqXqXqXqXqXqXqXqXqXqXqX3XU X #.                                            ",
"                                        d.X <.qXqXqXqXqXqXqXqXqXqXqXqXqXqXqXqX&Xk # l.                                          ",
"                                        k > XXqXqXqXqXqXqXqXqXV.D.qXqXqXqXqXqXqX[.< 6                                           ",
"                                      P.X / qXqXqXqXqXqXqXqXqX6 a 8XqXqXqXqXqXqXqXj.X K                                         ",
"                                      =.X F.qXqXqXqXqXqXqXqX1X# k qXqXqXqXqXqXqXqX8XW # D.                                      ",
"                                      c 6 3XqXqXqXqXqXqXqXqX&XX B qXqXqXqXqXqXqXqXqX^.& n                                       ",
"                                      # W qXqXqXqXqXqXqXqXqX$XX A qXqXqXqXqXqXqXqXqXqXU X                                       ",
"                                    a.X p.qXqXqXqXqXqXqXqXqX&XX A qXqXqXqXqXqXqXqXqXqXN.X t.                                    ",
"                                    F X [.qXqXqXqXqXqXqXqXqX1X# c qXqXqXqXqXqXqXqXqXqX{.# o.                                    ",
"                                    < c qXqXqXqXqXqXqXqXqXqX8X6 w 3XqXqXqXqXqXqXqXqXqX-X0 A                                     ",
"                                    X q.qXqXqXqXqXqXqXqXqXqXqXB < $XqXqXqXqXqXqXqXqXqX8Xk 0                                     ",
"                                  <.X P.qXqXXXP.XXqXqXqXqXqXqX=.X I.qXqXqXqXqXqXqXqXqXqX/ #                                     ",
"                                  a > &X3Xt.& X & d.8X^.F.&XqXn.X 7.qXqXqXqXqXqXqXqXqXqX<.X                                     ",
"                                  X K qX[ X < =.< & A # X 0 T.&X< < $XqXqXqXqXqXqXqXqXqXn.X 5.                                  ",
"                                  X t.@.X c XXqXn.X X c #.# y c # X / 8XqXqXqXqXqXqXqXqX).X )                                   ",
"                                  X @.X f -XqX-Xn X ) 3XqX) X & y & X ) -XqXqXqXqXqXqXqX3X& A                                   ",
"                                W X # > ).qXqX/ X [ 3XqX3Xn X d.3X^.y X y p.-XqXqXqXqXqXqXw f                                   ",
"                                n X X d.qXqXq.X B 1XqXqXV.X W qXqXqXA # & X > T.qXqXqXqXqXk y                                   ",
"                                n X 0 1XqX{.> 6 oXqXqX8Xk # ~.qXqXqXw a T.# < {.qXqXqXqXqXk y                                   ",
"                                  X c qXqX7.X d.qXqXqXD.X W qXqXqXXXX U l.X 5.qXqXqXqXqXqX0 f                                   ",
"                                  X B qXqX/ X ).qXqXqX) # I.qXqX8Xp.X > < X F.qXqXqXqXqXV.X                                     ",
"                                  X n qXqXB X $XqXqX&X& f 3XqXXXU X X 6 0 0 XXqXqXqXqX1Xk &                                     ",
"                                  & w 3XqXB X $XqXqXn.X =.qXP.0 X n F.$X-X&XqXqXqXqXqX>.X                                       ",
"                                    # T.qXK X XXqXqX7.X j.XX6 & t.3XqXqXqXqXqXqXqXqXV.# a                                       ",
"                                    X ) 1X@.X I.qXqX<.X n.) X t.qXqXqXqXqXqXqXqXqX~.& >                                         ",
"                                    A X a w X l.qXqX7.X p.w 0 8XqXqXqXqXqXqXqXqXI.0 #                                           ",
"                                        6 > X 7.qXqXd.X <.y 6 $X3XT.p.#./ U K F & &                                             ",
"                                            > K qXqXI.X } #.X > > X X X & > > X #                                               ",
"                                            n # ~.qX&XX F 1X<.< > X K T.{.XX{.> w                                               ",
"                                              # 6 } / X f 8XqX8XXX& ) qXqXqX1X& k                                               ",
"                                                w & & & 6 $XqXqX&X< F qXqXqX-X# n                                               ",
"                                                        X q.qXqX-X0 n qXqXqXoX# F                                               ",
"                                                        0 X A >./ # f qXqXqXXX# /                                               ",
"                                                          A > X & # y qXqXqX{.# [                                               ",
"                                                                  k 6 qXqXqX).#                                                 ",
"                                                                  n < qXqXqX^.#                                                 ",
"                                                                  n > qXqXqX~.X                                                 ",
"                                                                  c < qXqXqXI.X                                                 ",
"                                                                  f w qXqXqXP.X                                                 ",
"                                                                  a a qXqXqXN.X                                                 ",
"                                                                  a f qXqXqXz.X                                                 ",
"                                                                  a f qXqXqXa.X                                                 ",
"                                                                  a a qXqXqX5.X                                                 ",
"                                                                  c 6 qXqXqX[ &                                                 ",
"                                                                    # $XqXqXa w                                                 ",
"                                                                    X d.qXT.X                                                   ",
"                                                                    & 6 o.w X                                                   ",
"                                                                      > X &                                                     ",
"                                                                                                                                ",
"                                                                                                                                ",
"                                                                                                                                "
};
