/* XPM */
static char *result[] = {
/* columns rows colors chars-per-pixel */
"64 64 250 2 ",
"   c #3F3F3F",
".  c gray25",
"X  c #414141",
"o  c #464646",
"O  c #4B4B4B",
"+  c #4C4C4C",
"@  c gray30",
"#  c #4E4E4E",
"$  c gray31",
"%  c #505050",
"&  c #515051",
"*  c #515151",
"=  c gray32",
"-  c #535353",
";  c gray33",
":  c #555555",
">  c #565656",
",  c gray34",
"<  c #585858",
"1  c gray35",
"2  c #5A5A5A",
"3  c #5B5B5B",
"4  c gray36",
"5  c #5D5D5D",
"6  c gray37",
"7  c #5F5F5F",
"8  c #606060",
"9  c gray38",
"0  c #626262",
"q  c gray39",
"w  c #646464",
"e  c #656565",
"r  c gray40",
"t  c #676767",
"y  c #686868",
"u  c DimGray",
"i  c #6A6A6A",
"p  c #6B6A6B",
"a  c gray42",
"s  c #6C6B6C",
"d  c #6C6C6C",
"f  c #6D6D6D",
"g  c gray43",
"h  c #6F6F6F",
"j  c gray44",
"k  c #717071",
"l  c #717171",
"z  c #727272",
"x  c gray45",
"c  c #747474",
"v  c gray46",
"b  c #767676",
"n  c #777777",
"m  c gray47",
"M  c #797979",
"N  c gray48",
"B  c #7B7B7B",
"V  c #7C7C7C",
"C  c #7D7C7D",
"Z  c gray49",
"A  c #7E7E7E",
"S  c gray50",
"D  c #807F80",
"F  c #808080",
"G  c #818181",
"H  c #828182",
"J  c gray51",
"K  c #828283",
"L  c #838383",
"P  c #848484",
"I  c gray52",
"U  c #868586",
"Y  c #868686",
"T  c gray53",
"R  c #878788",
"E  c #888888",
"W  c #898989",
"Q  c gray54",
"!  c #8B8B8B",
"~  c #8B8C8B",
"^  c gray55",
"/  c #8D8D8D",
"(  c #8E8E8E",
")  c #8F8E8F",
"_  c gray56",
"`  c #909090",
"'  c gray57",
"]  c #929292",
"[  c #939393",
"{  c gray58",
"}  c #959495",
"|  c #959595",
" . c gray59",
".. c #979797",
"X. c #989798",
"o. c #989898",
"O. c gray60",
"+. c #9A9A9A",
"@. c #9B9B9B",
"#. c gray61",
"$. c #9D9C9D",
"%. c #9D9D9D",
"&. c #9E9D9E",
"*. c gray62",
"=. c #9F9F9F",
"-. c #A0A0A0",
";. c gray63",
":. c #A2A1A2",
">. c #A2A2A2",
",. c gray64",
"<. c #A4A4A4",
"1. c #A5A5A5",
"2. c gray65",
"3. c #A7A7A7",
"4. c #A8A7A8",
"5. c gray66",
"6. c #A9A9A9",
"7. c #AAAAAA",
"8. c gray67",
"9. c #ACACAC",
"0. c gray68",
"q. c #AEADAE",
"w. c #AEAEAE",
"e. c #AFAEAF",
"r. c #AFAFAF",
"t. c #B0AFB0",
"y. c gray69",
"u. c #B1B1B1",
"i. c #B2B2B2",
"p. c gray70",
"a. c #B4B3B4",
"s. c #B4B4B4",
"d. c gray71",
"f. c #B6B6B6",
"g. c #B7B7B7",
"h. c #B7B7B8",
"j. c #B8B7B8",
"k. c gray72",
"l. c #B9B9B9",
"z. c gray73",
"x. c #BBBBBB",
"c. c #BCBCBC",
"v. c gray74",
"b. c gray",
"n. c gray75",
"m. c #C0C0C0",
"M. c #C1C1C1",
"N. c gray76",
"B. c #C3C3C3",
"V. c gray77",
"C. c #C5C4C5",
"Z. c #C5C5C5",
"A. c #C6C6C6",
"S. c gray78",
"D. c #C8C7C8",
"F. c #C8C8C8",
"G. c gray79",
"H. c #CAC9CA",
"J. c #CACACA",
"K. c #CBCBCB",
"L. c gray80",
"P. c #CDCDCD",
"I. c #CECDCE",
"U. c #CECECE",
"Y. c gray81",
"T. c #D0D0D0",
"R. c gray82",
"E. c #D2D2D2",
"W. c LightGray",
"Q. c #D4D3D4",
"!. c gray83",
"~. c #D5D5D5",
"^. c #D6D5D6",
"/. c gray84",
"(. c #D7D7D7",
"). c #D8D8D8",
"_. c #D9D8D9",
"`. c gray85",
"'. c #DADADA",
"]. c gray86",
"[. c #DCDBDC",
"{. c gainsboro",
"}. c #DDDDDD",
"|. c #DEDDDE",
" X c gray87",
".X c #DFDEDF",
"XX c #DFDFDF",
"oX c #DFDFE0",
"OX c gray88",
"+X c #E1E1E1",
"@X c #E2E2E2",
"#X c gray89",
"$X c #E4E4E4",
"%X c #E5E4E5",
"&X c gray90",
"*X c #E6E6E6",
"=X c #E7E6E7",
"-X c #E7E7E7",
";X c gray91",
":X c #E9E8E9",
">X c #E9E9E9",
",X c #EAE9EA",
"<X c #EAEAEA",
"1X c #EBEAEB",
"2X c gray92",
"3X c #EBEBEC",
"4X c #ECECEC",
"5X c #EDECEC",
"6X c #ECEDEC",
"7X c #ECECED",
"8X c #EDECED",
"9X c gray93",
"0X c #EDEDEE",
"qX c #EEEDEE",
"wX c #EEEEEE",
"eX c #EFEEEF",
"rX c #EFEFEF",
"tX c #EFEFF0",
"yX c #F0EFF0",
"uX c gray94",
"iX c #F1F0F1",
"pX c #F1F1F1",
"aX c gray95",
"sX c #F3F3F3",
"dX c #F3F3F4",
"fX c #F4F3F4",
"gX c #F4F4F4",
"hX c #F4F4F5",
"jX c #F5F4F5",
"kX c gray96",
"lX c #F5F6F5",
"zX c #F6F5F6",
"xX c #F5F6F6",
"cX c #F6F6F6",
"vX c #F6F6F7",
"bX c gray97",
"nX c #F8F8F8",
"mX c #F9F8F9",
"MX c #F9F9F9",
"NX c #FAF9FA",
"BX c gray98",
"VX c #FAFBFA",
"CX c #FBFAFB",
"ZX c #FBFBFB",
"AX c gray99",
"SX c #FDFDFD",
"DX c #FDFEFD",
"FX c #FEFDFE",
"GX c #FEFEFE",
"HX c white",
/* pixels */
"9X2XT ;XSXGXSXK.#.rXs.a.BXGXGX2X( 4X}.| 2XSXSXuX[ &XrX| W.aXGXAX-.`.rXm.8.wXcXSXr.c.MX'.( 9X9XBXXX/ BXgX%.M.9XeXR.*.BXSX!.[ 9X9X",
"9X9X}.f sXSX).G 4X9X4X^ P.SXpXZ `.9X9XS...BXnXE (.pX9X$XZ &XSX;.i.BXwXeXO.x.cXb.O.ZXBX9XM.^ uXOXS <XGXkX>XJ T.+XN wXSXGXrX6.,.wX",
"9X9X4X!.F OXB sX4X9X9XrXc '.( U.kX9X9XwXw.0.+.M.SXpX9X9X'.F f.o.AXAXwX9X9XP p.E mXGXBX9XwX0.] M >XGXGXkX4X4Xa i -XSXGXGXuXwX( 1.",
"kXkXkXgXl.$ {.sXkXkXkXgX<X> y.gXgXkXkXkXzXM ] sXjXgXkXkXkXk.9 gXkXgXgXkXgXOX* ;XgXjXgXkXkXbXe R.gXkXkXgXkXgXb.G kXkXkXgXgXgX~.t ",
"GXHXGXkX@Xr 2XwXGXGXGXGXaXc R.4XsXGXGXGXAX..[ wX4XMXGXGXSXU.u rX9XqXAXGXFX&X1 *X9X9XuXGXGXMX8 v.9X9X8XgXGXSX,.7 <X4X9X4XBXSX9.B ",
"GXGXGXkXz.7 p.rXGXGXGXSXJ.m Q 2XgXGXGXGX+XP W Y.9XnXGXGXuXP ,.@.rXwXAXGXNX_ 6. .9X9XuXGXSX[ z.W W.wX9XkXSXZ._ S./ wX9X9XMXZ...sX",
"GXGXSXY.F 9XP T.GXGXSX[.B 9Xv.+.kXGXGX4XL *X;XF }.MXSXbXT W.wX2.t.rXAXSXO.m.sXl.*.rXuXAX3.u.AX&XZ $X9XgXL.Q cXZXz.>.rX4X(.J kXGX",
"ZXCX+Xa wXrXrXv OXZX@XZ 9XrXpX3.f.ZXuXW  XrXrXXXG 4XNXO.m.kXrXpX{ F.MXp.,.MXsXpX=.e.pXm.o.nXBXuX XF <XI.L uXZXMXuX1.x.+Xx 9XZXZX",
"T.'.n <XGXGXSX9Xm U.F  XBXGXGXZX' n.] J.wXSXGXSXT.Y =.0.wXaXGXGXcX^ 5.{ uX9XcXGXFXo.>.^ 2X9X9XZXSX~.x V *X9X9XwXGXnXW d XX9X9X9X",
"n.- ~.gXGXGXGXBX(.# P.9XBXGXGXGXgXw 0.wXwXSXGXGXSX=.L rX9XsXGXGXSX).9 <X9X9XcXGXGXpX<  X9X9X9XZXGXSXg ~.9X9X9XrXGXAXp.*.rX9X9X9X",
"{.i wXgXGXGXGXZX3Xt &X4XBXGXGXGXMXx G.4XrXSXGXGXSX<.{ wX9XsXGXGXFX).7 4XwX9XcXGXSXgX: ).9X9X9XZXSXcX, <.wX9X9XeXGXZXI h pX9X9X9X",
"j.; J.gXGXGXGXZXS.w $.9XBXGXGXSXV.W A 1XwXSXGXSX}.+.I P.9XaXGXGXsX` 9.+.rX4XcXGXZX' k.V *X9X9XBXAXY /.E A.9X4XwXAX=.x.A.( eX9X9X",
"{.wXN ].rXuXrX).S cX;.k.uXrXrXR.! ZXW.} sXrXrXOX_ uXMXP  XcXuX9X_ /.MX,.i.MXsXuX*.y.pX(.T aXBXpX;.z.wX4XL }.MXnX6.2.rXuX5.6.nXBX",
"GXSXwXn  X9X}.V uXSXMX' Z.wX'.T 4XGXGXb.1.9X*XY ].nXSX;XT -XwX` A.rXAXSXo.V.gXw.<.rXpXSXG.` bXl.,.9X9XsX;XI <X9.o.wX9X9XkX| M.MX",
"GXGXSX+XA [.G }.GXGXGXcXS S.P ].gXGXGXZX1.y.A P.9XnXGXSX(./ ` g.wXwXAXGXcX` -...4X9XuXGXSXn.Z ' 2X9X9XkXGX{.e I 4X9X9X9XBXgXA o.",
"GXGXGXkXG.% L.wXGXGXGXGX4X* A.9XfXGXGXGXZXw 7.9X4XMXGXGXSX3.J wXqXwXAXGXGX$X8 ;X9X9XuXGXGXSXc }.4X9X9XkXGXSXs OX4X9X9X4XBXGXk.` ",
"cXcXcXgX2Xt 4XdXcXcXcXcXsXz ^.sXgXcXcXkXbXn Z.aXgXgXcXcXzXi...aXgXgXkXcXkX{.= ;XgXgXgXcXcXsX, M.aXgXgXgXkXwX: r.aXgXgXgXkXkX .J ",
"9X9X9XsXz.l 0.BX4X9X9X4X!.c ` gXcX9X9X9XL.W B aXGXpX9X9X}.^ V ).GXAXwX4X,X^ r.] cXGXBX9X9XQ Z.! `.GXGXkX2X_ E.*.n.SXGXGXuXu.=.@X",
"0X9X9XG./ gX*.x.wX9X9X{.Z pXU.+.pX9X9X`./ aX(.~ kXpX9X-X/ oXuXS  XZXwXwX .Z.cXZ...AXMXqX%.c.wX,XW $XGXkX<.l.wX9X .G.GXSXA.' 2X9X",
"9X9X/.N xXSXnXQ Z.9X&XD 2XSXSXz.;.wX&XT OXAXAXS.X.wXrXQ R.aXGXuXI *XtX-.z.wXbXSXn.@.BX0.9.9X9XBX$XG aXb.,.9X9XwXaXY W.'.G >X9X9X",
"R.{.h uXZXZXZXnXV E.Y ~.nXAXAXMX=.0.I ).rXZXAXBXs.2.Q Z.wXaXAXBX>XI 5.8.rXwXkXAXBXs.M | 9XrXrXMXZX}.r E rXwXwXuXZX4Xi l 4XwXrXrX",
"Z.$ OXgX4X9X9XwXrX* v.SXrX9X9X9XgXq s.SXAX9X9X9XrXG { SXGXnX4X9X9XF.t MXGXGXsX4X9X9Xr >XGXGXSXrX9XuXc (.SXGXGXAX4X9X/ v.nXGXGXGX",
";Xa nXkX9X9X9XwXBXu ].GXrX9X9XwXsXZ N.SXAX9X9X9XwX>.@.SXGXbX9X9X4XW.r sXSXGXsX9X9X@X> Y.SXGXSXrXwX4X6 &.ZXGXGXAX4X<Xc G bXSXGXGX",
"v.l 9.gX9X9X9XwXG.A ` bXrX9X9XqX!.A J wXZX9X9X9X$XI c E.SXbX9X9X;X' i.' SXGXsX9X9XL S.T +XFXSXrXwX/ A.1.f.SXGXAX2X{ N.c.| AXGXGX",
"$XkX| p.wX9X9X(.F cXB...rX9X4XXXP kX'.Y pX9X4X,X!  XgXZ +XbX4XwX{ T.ZXn...SXaXeXE U.uX&XA pXSXuX=.k.9XuX .J.GXZX>.y.8X8Xq.7.SXGX",
"rXrXuXE A.MX-Xj 9XwXuX5.2.nXwXP $XeXrXB.` cXkX] J.aXrX&XA *XnX-.V.MXuXyXr.<.sXO.K.ZXbXeX[.M rXl.5.BXZXgX4XV ].v.*.CXBXZXuX` v.>X",
"9X9X9XuXI S.S #X4X9X9XrXo.i.[ ~.kX9X9XwX9.2.1.d.SXpX9X9X].T 5.y.SXAXwX9XwX;.Z u.AXGXBX9X9X/.h ] MXSXGXlX9X&Xe W SXGXGXGXuX<Xc ` ",
"wX9X9XgX9X= F.ZX9X9X9X4XnXt i.SXcX9XwX9XrXJ / GXGXpX9X9X9Xk.x SXGXAXwX9XwX#Xq kXGXGXBX9X9XpXe +XSXGXGXkX9XrXv R.SXGXGXGXuXwX] 7.",
"9X9X9XgXBXw XXZX4X9X9X4XMXL k.SXcX9X9X9XwX#.*.SXGXpX9X9X9XR.r BXSXAXwX9X8X~.: '.GXGXBX9X9X<X7 8.SXGXGXkX9X+Xd G nXGXGXGXrX$Xl #.",
"kXkXjXgXn.I G aXfXgXgXsX].b E @XgXjXkXsX2Xm N ~.kXgXkXgX>X^ x.T cXkXgXsXwXK W.S 2XkXgXfXaXm ).*.M.cXkXsX2XA +XD.| cXkXkXwXP !.9X",
"GXGXGX!.Y wXJ.E BXGXGX;Xl 2XOXH 4XGXGXcX! `.;XN ].nXGXgX( '.wXx.] wXZXMXQ  XpX Xm <XuXBX/ W.SXrX^ Y.9XwX/ R.AXAX0.9.9XrX] S.SXGX",
"cXAX}.N <X9XwXx. .MXrXJ OX4X9XW.P kXMX#.L.9X9X.XJ -XbX{ Y.bX9XwX9.#.aX' H.SXgX4XW.J >X<.n.SXSXrX>XJ ).*.b.SXGXZX9X .b.@.s.SXGXGX",
"k.c.B ;X4XwX9XrXy.%.( (.rX9X9XwXA.P 1.b.BX9X9X9XW.Y ! Z.SXbX9X9X9XO.u z.AXGXgX9X9XS.y 0.ZXGXSXrX9X*X> 7.SXGXGXAX9X<Xw ;.BXGXGXGX",
">X% '.sXrXrXrXuXnXj s.BXuXrXrXrXaX+.' MXBXrXrXrXrX*./ BXZXcXwXrXeXOXr cXZXZXsXrXrX9Xr <XBXZXZXuXrXaXd @XBXZXAXMXwXpXB W.cXZXAXAX",
"4X3 &XgXGXGXGXZX9Xv p.9XBXGXGXGXgX<.^ rXwXSXGXGXSXb.n uX9XaXGXGXSXE.# W.4X8XcXGXSX;X: 6.wXwX9XBXSX Xf G wX9X9XeXSXOXx c uX4X9X9X",
"M.m J sXGXGXGXBXB.Q J W.BXGXGXSXOXM o.z.wXSXGXGX>XT ( ;.wXaXGXSX;X^ @XM XX8XcXSXgXV @Xo.v.9X9XMX#XZ bXF...4X9XwX>XI 4XY.T 4X9X9X",
"E.2Xc.! nXGXAXW.Y 4X#XA :XGXGX;XJ -X2X[ A.SXGXrX` {.rX-.9.aXSXwX( >XwX$XB OXkXgXY }.MX4X_ S.wX-XW -XSXkX8.5.9X*XT OXSXSXl.#.4XwX",
"9X9XwXd.+.CX XP >X9X4X{.n rXuXW |.4X4X;XY `.bX| (.uX9X9X>.d.wXI &XAXwX4X'.F &X' !.SXBX4X<XG A./ ].GXGXkX9XO.p.I ~.SXGXGXrX2.7.M.",
"BXBXBXsX7. .V &XMXBXBXBX`.l T T.sXBXBXMXrXc I Z.rXcXBXMXnXO.i '.rXuXnXBXBXP.1 M.rXuXaXBXMXsX# F.rXuXuXgXBXbX: K.rXuXuXuXbXbXd ,.",
"GXGXGXcXwXe L.wXGXGXGXGXrX+.,.wXsXGXGXGXBXc.G wX4XMXGXGXSXQ.V 9XwXwXAXGXGX2X5 ;X9X9XuXGXGXZX9 OX9X9X9XkXGXAX2 (.4X9X9X4XMXSX! S.",
"GXHXGXkX9Xt x.wXGXGXGXGXuX! Y 4XgXGXGXGXAX#.w *X9XMXGXGXGXl.& #X9XwXAXGXAXx.l 3.9X9XuXGXDXN.Q ^ ;X9X9XgXSXg.O.N XX9X9X9XMX@Xk O.",
"GXHXGXkXk.o.P E.SXGXGXSXx. .s.,.sXGXGXSXF.{ !.Q -XnXGXSX(.Q !.V }.wXAXAXY.' rX7.8.rXuXSXV.[ BXL.| <X6XsXF.O.MX$XI $X9X5X&XL +XuX",
"kXcXcXT.) aX2XM XXcXcXK.I sXsX5.y.bXcXW.( rXsXY.Q rXkX$XL &XsX&XF  XgX'.P 9XgXgX,.0.sXL.` rXkXfXN.X.aXE./ wXzXkX!.W 2X2XA (.cXcX",
"(.2X].b cXSXSXuXj XX).S gXSXGXZX] g.XXJ *XSXGXSXZ.T 2XB  XsXGXGX<XJ Y.Z 4X9XvXGXZXO.#.W ;X9X9XZXAX6.( S *X9X9XrXSXS.! b /.9X9X9X",
"h.O.v uXGXGXGXBX|.h V #XBXGXGXGXMXb g OXwXSXGXGXSX6.: ].4XsXGXGXSX X+ @X9X9XcXGXGXsX2 #X9X9XwXZXGXSX+ XX9X9X9XrXGXAXi U.rX9X9X9X",
"rX5 Y.fXGXGXGXAX9X^ i.8XBXGXGXGXgXl.' wXwXSXGXGXSXW.t pX9XsXGXGXSX$X5 *X9X9XcXGXSX9X3 ~.9X9X9XZXSXgX@ L.wX9X9XrXGXnX0 A.rX9X9X9X",
"wX7 l.gXZXZXZXMX4XF I 2XnXZXZXZXcXU b /.rXZXZXZXnX` ` >.rXaXAXZXbX+.3.Q wXwXkXZXMX( z.! OXwXrXnXbXW m.T /.wXrXuXBX4.y.F !.wXrXrX",
"v.0.E L.wXwXwXuX6.w.c.+.rXwXwXrXO.m.>XI *X9XqXwX<.l.ZXw.8.bX9XrXO.h.BXK.W ZXsXuX` n.uXOXP gXZXpX+.b.wX@XI <XAXBXi.3.6X;XZ *XSXSX",
">XBXMXm ~.9X9Xz. .AXAXe.,.rXwX6.0.SXGX$XV <X9Xp.1.MXSXZX,.s.uX#.u.rXZXSXm. .gX=.f.9XuXGX_.Z ZX8.u.wX9XgX+XG cXA.[ wX9X4X$XA uXZX",
"GXGXGXrXm (.J.T SXFXGXSX+.w.x.O.gXGXGXSXW.A n.[ 9XnXGXGXBX..A 1.rXwXAXGXAX1.m <.wX9XuXGXSXm.p *.rXwX9XkXSXG.c P rX9X9X9XMXY.F *.",
"GXGXGXkX'.y Z 2XGXGXGXGXuXF V <XsXGXGXGXZX6.w 9X4XnXGXGXSX`.g rX9XwXAXGXGX>X0 2X9X9XuXGXGXZX4 4X9X9X9XgXGXSX* sX4X9X9X4XBXAXf !.",
"aXaXaXgXnXI A.bXpXaXaXpXkXu.=.MXkXaXaXpXuXb.w cXMXsXaXaXpXk.3 ;XnXnXaXaXpXP.1 K.nXMXvXpXpX(.> s.MXMXMXgXiXOX- 0.nXMXMXMXaX<X5 y.",
"9X9X9XgXcXg S bX4X9X9X4XnXM B ~.kX9X9X4X*Xn k.#.SXpX9X9X(.W '.N aXAXwX9X@XB $XW XXSXMX4X}.v &X@.Z.SXGXkX*XM {...M.SXGXGXrXQ B.B.",
"9X9X9XpXo.B.C._ wX9X9XwXI Y.uXN  X4X4X<XF XXAXu.3.uX4X@XF <XSX+XV aXwX>Xj @XcXsXc <XnX#Xv ;X9XgXP ).SXpXL R.9X9XT ).SXZX+.f.wX9X",
"2X9XwX3.y.SXSXb.] 9X9X#.l.SXGX2XC #X2X{ B.SXGXAX;.u.*XV {.pXGXSXR.Q $XA '.7XcXGX<Xm }.P ).9X9XBXuXN {.] B.9X9XwXrXG #X;.2.rX9X9X",
"d.U.r.+.kXbXbXcXf.o.9.6.kXbXbXcXOXn *.u.aXcXbXcXaX( r /.sXgXbXbXcXk.3 R.aXsXgXbXcXR.% Y.sXsXsXzXcX$Xo x.gXsXsXsXcX].4 :.gXsXsXsX",
"4Xy Q pX9X9X9XwXZXQ I BXrX9X9X9XaXg.B BXAX9X9X9X4XK.S SXGXnX9X9X4X].h BXGXGXsX9X9X=X3 cXSXGXSXrX9XsX+ kXGXGXGXAX9XpX2 -XMXGXGXGX",
"SXG Y.gX9X9X9XrXSX7.-.SXrX9X9X9XaXg.w MXAXwX9X9XwX2., rXGXbX9X9X9X*.v b.SXGXgX9XtX2.F @.ZXGXSXwXwXw.Z ) GXGXGXAXwXA.u _ ZXGXGXGX",
"uXf n wX9X9X9XwXwXB F T.rX9X9X9X}.b g.@.MXwX9XwXA.] $XZ uXbX9X9Xz.*.AX[ T.SXsX9Xl.] sX0.u.SXSXrXM.[ pXw.7.AXSXZX!.Z <X3.1.AXGXGX",
"f.K.~.B >XwXwX<XL  XuXG !.rXwX@XA 2XMX3.6.wXwXE.^ aXBX)./ 9XwXG.[ rXBXbX! /.sXm._ uXpXBXO.v.AXP.( 4XwXuX@.x.VX;XS @XwXpX..v.AXSX",
">XwXwXS.Y sXcXI L.wX9X%Xm }.aXR ).9XwX9X=.l.$XJ 4XpXqXwXF.( Y.W cXZXrXqX;X! d.^ kXAXnX0XwXG 7.Q uXAXAXgX2XQ n.M +XAXAXAX4XP A.z.",
"9X9X9XsXz.W _ B.9X9X9X4X<Xx J F.hX9X9X9XwXI 0 OXGXpX9X9XwX7.< sXGXAXwX9X9XE.3 9XGXGXBX9X9X<XO <XSXGXGXkX9X>XX (.SXGXGXGXuX@X# f.",
"wX9X9XgXAXE ( nX9X9X9X9XMXk.F SXcX9X9X9X9XP.a SXGXpX9X9X9XW.g AXGXAXwX9X9X`.1 gXGXGXBX9X4X9X. rXGXGXGXkX9XuX  wXGXGXGXGXuX2X; OX",
"wX9X9XgXGXK.].ZX9X9X9X9XBXOXF.GXcX9X9X9XwX*Xi.SXGXpX9X9X9X{.@.cXGXAXwX9X9XF.3.].SXGXBX9X9XG.l.Z.SXGXGXkX9XE.3.m.GXGXGXGXuX>X%.W."
};
