/* XPM */
static char *result[] = {
/* columns rows colors chars-per-pixel */
"64 64 223 2 ",
"   c black",
".  c #010101",
"X  c #020202",
"o  c gray1",
"O  c #040404",
"+  c gray2",
"@  c #060606",
"#  c #070707",
"$  c gray3",
"%  c #090909",
"&  c gray4",
"*  c #0B0B0B",
"=  c #0C0C0C",
"-  c gray5",
";  c #0E0E0E",
":  c gray6",
">  c #101010",
",  c #111111",
"<  c gray7",
"1  c #131313",
"2  c gray8",
"3  c #151515",
"4  c #161616",
"5  c gray9",
"6  c #181818",
"7  c #191919",
"8  c gray10",
"9  c #1B1B1B",
"0  c gray11",
"q  c #202020",
"w  c gray13",
"e  c gray14",
"r  c #252525",
"t  c gray15",
"y  c #272727",
"u  c #282828",
"i  c gray16",
"p  c #2C2C2C",
"a  c #2D2D2D",
"s  c gray18",
"d  c #2F2F2F",
"f  c gray19",
"g  c #313131",
"h  c #323232",
"j  c gray20",
"k  c #343434",
"l  c #353535",
"z  c gray21",
"x  c #373737",
"c  c #3A3A3A",
"v  c gray23",
"b  c #3C3C3C",
"n  c gray24",
"m  c #3F3F3F",
"M  c gray25",
"N  c #414141",
"B  c gray26",
"V  c #434343",
"C  c #444444",
"Z  c gray27",
"A  c #464646",
"S  c #484848",
"D  c #494949",
"F  c gray29",
"G  c #4B4B4B",
"H  c #505050",
"J  c #515151",
"K  c gray32",
"L  c #535353",
"P  c gray33",
"I  c #555555",
"U  c #565656",
"Y  c gray34",
"T  c #585858",
"R  c gray35",
"E  c #5A5A5A",
"W  c #5B5B5B",
"Q  c gray36",
"!  c #5D5D5D",
"~  c gray37",
"^  c #5F5F5F",
"/  c #606060",
"(  c gray38",
")  c #626262",
"_  c gray39",
"`  c #646464",
"'  c gray40",
"]  c DimGray",
"[  c #6A6A6A",
"{  c gray42",
"}  c #6C6C6C",
"|  c #6D6D6D",
" . c gray43",
".. c #6F6F6F",
"X. c gray44",
"o. c #717171",
"O. c #727272",
"+. c gray45",
"@. c #747474",
"#. c gray46",
"$. c #767676",
"%. c #777777",
"&. c gray47",
"*. c #797979",
"=. c gray48",
"-. c #7B7B7B",
";. c #7C7C7C",
":. c #7E7E7E",
">. c gray50",
",. c #808080",
"<. c #818181",
"1. c gray51",
"2. c #868686",
"3. c gray53",
"4. c gray55",
"5. c #8E8E8E",
"6. c gray56",
"7. c gray57",
"8. c #929292",
"9. c #939393",
"0. c gray58",
"q. c #959595",
"w. c gray59",
"e. c #979797",
"r. c #989898",
"t. c gray60",
"y. c #9A9A9A",
"u. c #9B9B9B",
"i. c gray61",
"p. c #9D9D9D",
"a. c gray62",
"s. c #9F9F9F",
"d. c #A0A0A0",
"f. c gray63",
"g. c #A2A2A2",
"h. c #A4A4A4",
"j. c gray65",
"k. c #A7A7A7",
"l. c #A9A9A9",
"z. c #AAAAAA",
"x. c gray67",
"c. c #ACACAC",
"v. c gray68",
"b. c #AEAEAE",
"n. c #AFAFAF",
"m. c gray69",
"M. c #B1B1B1",
"N. c #B2B2B2",
"B. c gray70",
"V. c gray71",
"C. c #B6B6B6",
"Z. c #B7B7B7",
"A. c gray72",
"S. c #B9B9B9",
"D. c gray73",
"F. c #BBBBBB",
"G. c #BCBCBC",
"H. c gray74",
"J. c gray",
"K. c gray75",
"L. c #C0C0C0",
"P. c #C1C1C1",
"I. c gray76",
"U. c #C3C3C3",
"Y. c gray77",
"T. c #C5C5C5",
"R. c gray78",
"E. c #C8C8C8",
"W. c gray79",
"Q. c #CACACA",
"!. c #CBCBCB",
"~. c gray80",
"^. c #CDCDCD",
"/. c #CECECE",
"(. c gray81",
"). c #D0D0D0",
"_. c gray82",
"`. c #D2D2D2",
"'. c LightGray",
"]. c gray83",
"[. c #D5D5D5",
"{. c gray84",
"}. c #D7D7D7",
"|. c #D8D8D8",
" X c gray85",
".X c #DADADA",
"XX c gray86",
"oX c gainsboro",
"OX c #DDDDDD",
"+X c gray87",
"@X c #DFDFDF",
"#X c gray88",
"$X c #E1E1E1",
"%X c #E2E2E2",
"&X c gray89",
"*X c #E4E4E4",
"=X c gray90",
"-X c #E6E6E6",
";X c #E7E7E7",
":X c gray91",
">X c #E9E9E9",
",X c #EAEAEA",
"<X c gray92",
"1X c #ECECEC",
"2X c gray93",
"3X c #EEEEEE",
"4X c #EFEFEF",
"5X c gray94",
"6X c #F1F1F1",
"7X c gray95",
"8X c #F3F3F3",
"9X c #F4F4F4",
"0X c gray96",
"qX c #F6F6F6",
"wX c gray97",
"eX c #F8F8F8",
"rX c #F9F9F9",
"tX c gray98",
"yX c #FBFBFB",
"uX c gray99",
"iX c #FDFDFD",
"pX c #FEFEFE",
"aX c white",
/* pixels */
"aXaXwX3X3X6XpXiXyX4X3X3XrXaXaXwX4X5X8XpXaXpX4X3X3XrXuXuXwX3X3X6XpXaXpX6X5X5XrXaXaXwX3X3X6XuXiXpX4X3X3XrXaXaXrX4X4X6XpXaXpX4X3X3X",
"aXaXwX3X3X5XqX..h `.3X3XrXaXaXeXC.s 4.pXpXpX4X3X2X,XY b ;X2X3X6XpXaXiXm.a 0.yXaXaXwX3X2XoXZ U rX4X3X3XrXaXpXp.p v.7XpXaXpX4X3X3X",
"pXpXwX3X3X6X<Xu O n.3X3XrXpXpXyX>.X Z iXpXpX5X3X2XXX2 X /.3X3X6XpXpXiX#.X K yXpXpXwX3X3XL.@ = <X4X3X3XrXpXiXW O #.9XpXpXpX5X3X3X",
"7X7X0XtXtXeX-Xy O m.rXtX0X7X7XqX<.. C 7X7X7XrXtXtXXX< X !.eXwXqX6X7X0X%.X L 0X7X7X0XtXtXR.+ & *XrXtXtX0X7XwXR O #.eX7X7X7XrXtXtX",
"3X3X0XaXaXyX=Xt O N.uXaX8X3X3X9X<.. C 3X2X3XiXaXpXXX, X Q. Xv.9.0.n.<X%.X P 8X2X3X0XaXpXW.+ & %XuXaXaX8X2X0XY O #.rX3X3X3XiXaXaX",
"3X3X0XaXaXtX=Xt O N.uXpX8X3X3X9X<.. C 3X2X3XiXaXpXXX, X E._ X X X # Y.$.X P 8X2X3X0XaXpXW.+ & %XuXaXpX8X2X0XY O #.rX3X3X3XiXaXpX",
"wXwXqXqXqX0X:Xy O m.0X0XqXwXwXeX,.. C qXqXwXqXqX9XXX< X Q./ X     @ U.+.X K wXqXwXqXqXqXY.+ * -X0XqX0XqXqXrXR O #.qXwXwXwXqXqX0X",
"aXaXwX3X3X6X<Xy O b.3X3XrXaXaXyX>.. Z iXpXpX4X3X_.].1 X ~.~ X     # T.O.X J =X<XpXwX3X3XJ.+ * <X4X3X3XrXpXiXW O +.9XpXaXpX4X3X3X",
"aXaXwX3X3X6X<Xy O b.3X3XrXaXaXyX>.. Z iXpXpX4X!.L ).< X ~.~ X     # T.O.X H S.( rXwX3X3XJ.+ * <X4X3X3XrXpXiXW O +.9XpXaXpX4X3X3X",
"tXtXwX8X8X8X>Xy O n.7X8XeXtXtXrX>.. Z rXrXrX4XK h _.< X !./ X     @ Y.+.X J Z.& z.wX8X8XI.+ * :X7X8X8XeXrXtXE O @.0XtXtXrX8X8X8X",
"2X2X0XpXpXtX=Xt O N.uXpX8X2X2X9X<.. C 3X2X2XG.: f _., X E.( X     @ I.#.X K V.X l 7XpXpXW.+ & $XuXpXpX8X2X9XY O #.rX3X2X3XiXpXpX",
"3X3X0XaXaXyX=Xt O N.uXaX8X3X3X9X<.. C 3X2X7X] X f _., X E.( X     @ I.$.X K V.. O R.iXpXW.+ & %XuXaXaX8X2X0XY O #.rX3X3X3XiXaXaX",
"4X4X0XpXpXtX=Xt O M.uXpX8X4X4X9X<.. C 4X3X5Xp . f _., X E.( X     @ I.#.X K V.. . 5.iXiXW.+ & %XyXpXpX8X3X0XY O #.rX4X4X4XuXpXpX",
"pXpXwX3X3X6X,Xy O b.3X3XeXpXpXyX>.. Z uXuX,X1   f _.< X ~.~ X     # T.o.X H Z..   ' 4X4XK.+ * <X4X3X3XeXiXuXW O +.9XiXpXiX5X3X3X",
"aXaXwX3X3X5X<Xy O b.3X3XrXaXaXyX>.. Z iXiX@X:   f _.< X ~.~ X     # T.O.X H Z..   ^ 3X3XJ.+ * <X4X3X3XrXpXiXW O +.9XpXaXpX4X3X3X",
"aXaXwX3X3X6X<Xy O b.3X3XrXaXaXyX>.. Z iXiX1X2   f _.< X ~.~ X     # T.O.X J Z..   ] 3X3XJ.+ * <X4X3X3XrXpXiXW O +.9XpXaXpX4X3X3X",
"7X7X0XtXtXeX-Xt O M.rXtX0X7X7XqX,.. C 7X6X7Xd . f _., X Q.( X     @ U.@.X K C.. . 9.rXtXR.+ & *XrXtXtX0X6XqXT O #.eX7X7X7XrXtXtX",
"2X2X0XaXaXyX=Xt O N.uXaX8X2X2X9X<.. C 3X2X7X..X f _., X E.( X     @ I.$.X K V.. + /.pXpXW.+ & $XuXaXaX8X2X9XY O #.rX3X2X3XiXaXaX",
"3X3X0XaXaXyX=Xt O N.uXaX8X3X3X9X<.. C 3X2X2XL., f _., X E.( X     @ I.$.X K V.X N 0XpXpXW.+ & %XuXaXaX8X2X0XY O #.rX3X3X3XiXaXaX",
"wXwXqXqXqX0X:Xy O m.0XqXqXwXwXeX,.. C qXqXqX8XE h _., X Q./ X     @ Y.@.X J C.& Z.qXqXqXU.+ * -X0XqXqXqXqXrXR O #.wXqXwXqXqXqXqX",
"aXaXwX2X2X5X<Xy O b.2X2XrXaXaXyX>.. Z iXpXpX3X{.Y (.< X ~.~ X     # T.o.X H A.] pXwX2X3XJ.+ * <X3X2X2XrXpXiXW O +.8XpXaXpX4X2X2X",
"aXaXwX3X3X6X<Xy O b.3X3XrXaXaXyX>.. Z iXpXpX4X3X.X[.1 X ~.~ X     # T.O.X J *X<XpXwX3X3XJ.+ * <X4X3X3XrXpXiXW O +.9XpXaXpX4X3X3X",
"tXtXwX7X7X8X>Xy O n.7X7XeXtXtXrX>.. Z rXtXtX8X7X7XXX1 X !.^ X     @ Y.+.X K rXtXtXwX7X8XP.+ * :X7X7X7XeXtXtXE O @.0XtXtXtX8X7X7X",
"3X3X0XpXpXtX=Xt O N.uXpX8X3X3X9X<.. Z 3X3X3XiXpXpXXX, X W.{ # X . : R.$.X P 8X3X3X0XpXpXW.+ & $XuXpXpX8X3X9XY O #.rX3X3X3XiXpXpX",
"3X3X0XaXaXyX=Xt O N.uXaX8X3X3X9X<.. C 3X2X3XiXaXpXXX, X Q.oXZ.j.a.A.1X%.X P 8X2X3X0XaXpXW.+ & %XuXaXaX8X2X0XY O #.rX3X3X3XiXaXaX",
"4X4X0XiXiXtX-Xt O M.yXiX9X4X4X9X<.. C 5X4X5XuXiXiXXX, X !.tXiXtX6X3X8X%.X P 9X4X4X0XiXiXE.+ & &XyXiXiX9X4X0XT O #.rX4X4X5XuXiXiX",
"iXiXwX3X3X6X,Xy O b.3X4XeXiXiXyX>.. Z yXqXqX2X<X1XXX1 X ^.2X<X3XqXqXtX@.X J tXqXqX7X<X2XK.+ * <X3X3X4XeXiXuXW O @.9XiXiXiX5X3X4X",
"aXaXwX3X3X6X<Xy O b.3X3XrXiX8X-X:.. Z %Xq 7 4 4 B `.1 X ~.[ 5 5 7 7 K.O.X J R.7 7 6 4 Q K.O * ,XXX4X2XrXpXiXW O +.9XpXaXpX4X3X3X",
"aXaXwX3X3X6X<Xy O b.3X2XqXG.g y.:.. Z #X= o X X g _.< X ~.^ o X X # S.O.X J L.X X X X J K.O * >XL E {.rXpXiXW O +.9XpXaXpX4X3X3X",
"7X7X0XyXyXeX-Xt O m.rXqXg.4 o w.>.. C .X= X . . g _., X Q.( o . . @ C.#.X L K.. . . X J R.+ & *XF @ j ~.7XqXT O #.wX7X7X7XtXyXtX",
"3X3X0XaXaXyX=Xt O N.uXL.a 7 6 p.,.. C  Xq 8 7 7 C _., X E. .8 7 7 0 F.$.X L Y.7 7 7 7 ^ W.+ & &XE 8 7 F @X9XY O #.rX3X3X3XiXaXaX",
"3X3X0XaXaXyX=Xt O N.uX&X^.~.!.=X<.. C <X~.^.).). X X, X Q.+X).(.~.!.,X%.X P 1X~.~./.).+XW.+ & %XXX).)./.=X9XY O #.rX3X3X3XiXaXaX",
"wXwXqX0X0X0X:Xy O m.9X0X0X0X0XwX,.. C qX0X0X0X9X9XXX< X ~.9X9X0X0X0XeX$.X K wX0X0X0X9X0XU.+ & -X9X9X9X0XqXrXR O @.qXqXwXqXqX0X0X",
"aXaXwX2X2X5X<Xy O b.1X1XwXiXiXtX>.. Z iXiXiX3X1X1X.X1 X ^.1X1X4XiXiXiX@.X J yXiXiXqX1X2XJ.+ * <X2X1X1XwXiXuXW O +.8XpXaXpX4X2X2X",
"aXaXwX3X3X6X<Xy O b.*X.XOX+XOX3X:.. Z rX+X+X.X.XOX.X1 X ^.$X.XXX+XOX8X@.X J 0X+X+XoX.X$XK.+ * <X@X.X.XOXOXwXW O +.9XpXaXpX4X3X3X",
"tXtXqX7X7X8X>Xy O v.1., , , < i.:.. Z +X8 < , > b _.< X !.] < , , 4 F.+.X J U., , , , T P.O * :XF < , , 0 ].T O @.0XrXtXrX8X7X7X",
"3X3X0XpXpXtX=Xt O m.;.X     . q.,.. C |.= .     f _., X E.( X   . + V.#.X L K.      . J E.+ & &Xm .     = (.I O #.rX3X3X3XuXpXpX",
"3X3X0XaXaXyX=Xt O m.;.X X X X q.,.. C |.= X X X g _., X E.( o X X @ V.$.X L K.. X X X J W.+ & *XM o X X - (.U O #.rX3X3X3XiXaXaX",
"4X4X0XiXiXrX-Xt O m.e.v c c x x.,.. C oXm c v v / '., X W.<.v v c c Y.$.X L !.c c v v %.E.+ & *X] b v v M  XU O #.eX4X4X5XyXiXiX",
"iXiXwX4X4X6X<Xu O b.5X5XwXyXyXtX:.. C yXyXyX6X5X4XXX1 X ^.4X5X7XyXyXuX@.X J yXyXyXqX5X5XK.O * ,X6X5X5XeXyXuXW O @.9XiXiXiX5X4X4X",
"aXaXwX3X3X6X<Xy O b.3X3XrXpXpXrX>.. N rXuXpX4X3X2X.X1 X ^.2X3X6XpXpXiX@.X J uXpXpXwX1X6XF.O * <X2X3X3XrXpXiXW O +.9XpXaXpX4X3X3X",
"aXaXwX2X2X7X<Xy O b.2X4XtXpXiXu.q   + z n.uX3X1X1X.X1 X ^.3X3X6XpXaXiX@.X J uXaXaXwX#X .5   X )  X3X5XtXpXiXW O +.9XpXpXpX4X2X2X",
"7X7X0XeXx.t.oXt O m.W.B.{.6X5.* .     X - 7.b.b.L..X< X Q.J.a.s.a.p.#X$.X L OXi.a.d.C O .     X f {.XXM.f.%XY O #.#Xa.).7XrXtXtX",
"3X3X9X~.0 w /.r O m.:.c.,X X3             + % % D }., X E.) + o o # V.$.X K V.o o o .           . X.6X}.u.F.I O @.Z.+ S 4XiXaXaX",
"3X2X6X} _ k.@Xt O m.;.5.7Xk..                   C }., X E.( X     + V.$.X K V..                   k ,X8Xv.V.I O #. XQ h N.uXaXaX",
"qX9XU.b %X7X:Xy O b.;.J 8Xr.X               . X C |.< X Q./ o . . # Z.@.X J Z.X .               . u @X9X@.A.Y O #.wXrX-X^ <X0XqX",
"aXiXK * I.5X<Xy O c.-.e %Xt.X             . G } 5. X1 X ^.h.&.%.-.;.}.+.X J }.=.;.5             . u oX,XD H.R O +.9XpX,X; j.3X2X",
"iX<X> X 8.8X<Xy O v.-.- H.y.X             X c.8X7X.X1 X ^.6X7X9XuXiXiX@.X J uXuXiXg .           . i OX|.q H.R O +.9XuXC.. Y 2X2X",
"eX}.$ . Y 7X>Xy O v.-.X 2.S..             X U.7X6XXX< X ~.7X7X8XrXrXtX#.X K rXrXyXT .             m 2Xb.% G.T O @.0XrX$.X V 1X7X",
"2X#X: . a $X*Xt O m.;.X G :Xh .         . h 4XuXiXXX, X !.uXiXyX7X7X8X%.X P 9X7X7XM.*           O 8.yX@.$ G.I O #.eX,Xn X T wXiX",
"2X7XP o > P.=Xt O m.;.o q @XP.e .     . . N O.@.r. X, X W.u.` ` ( ( /.$.X L ^./ / ^ >   .     + ^ 1X5XM % G.I O #.rX}.1 @ l.iXaX",
"4X4X[.x @ 6.>Xt O m.e.! 0.=X5X{.G   1 U o . X X Z }., X W.( o . . @ V.#.X K C.X . . . d U . + 0.3XyX3X3.F E.U O #.rXb.= | 7XuXuX",
"iXiXwXoX3.5.1Xy O b.3X5XtXiXiXtX>.. Z ].O .   . C |.1 X ~.^ X   . @ A.O.X H Z..     . H P.O * <X4X4X4XrXuXtXW O @.9XV.b.eX5X4X4X",
"aXaXwX2X5X8X<Xy O b.3X3XrXaXaXyX>.. Z [.$ @ + @ A |.1 X ~.) % $ $ = D.O.X H A.$ $ $ $ K K.O * <X4X3X3XrXpXiXW O +.9XiXpXpX4X3X3X",
"aXaXwX2X2X6X<Xy O b.2X2XrXaXaXyX>.. Z 4Xl.l.l.l.D..X1 X ^.(.K.L.L.J.,X+.X J <XK.L.L.K.~.J.+ * <X3X2X2XrXpXiXW O +.8XpXaXpX4X2X2X",
"6X6X0XtXtXeX-Xt O M.rXtX9X6X6XqX<.. C 6X4X5XeXrXrXXX< X !.rXrXwX5X4X0X%.X P 0X4X5X9XrXtXR.+ & *XrXtXtX9X6XqXT O #.wX6X6X6XtXtXtX",
"3X3X0XaXaXyX=Xt O N.uXaX8X3X3X9X<.. C 3X1X2XuXpXiXXX, X !.uXpXtX2X2X7X&.X P 7X1X2X9XpXiXW.+ & $XuXaXaX8X2X9XY O #.rX3X3X3XiXaXaX",
"2X2X0XaXaXyX=Xt O N.uXaX8X2X2X9X<.. C 2X$X$X=X=X,X.X, X Q.1X=X=X$X#X4X%.X P 5X$X$X&X=X2XW.+ & $XuXaXaX8X2X9XY O #.rX3X2X3XiXaXaX",
"qXqXqX0X0X0X:Xy O m.9X0XqXqXqXeX,.. C @Xk a a s I `., X !.*.d a a f I.@.X K W.a a a s } U.O & ;X0X0X0XqXqXrXR O #.qXqXqXqXqX0X0X",
"aXaXwX2X2X5X<Xy O b.2X2XrXaXaXyX>.. Z $X- o X X h _.< X ~.~ O X X # S.O.X J P.X X X o J K.O * <X3X2X2XrXpXiXW O +.9XpXaXpX4X2X2X",
"aXaXwX3X3X5X<Xy O b.3X3XrXaXaXyX>.. Z #X= o X X g _.< X ~.~ O X X # S.O.X J L.X X X X J K.O * <X4X3X3XrXpXiXW O +.9XpXaXpX4X3X3X",
"tXtXwX7X7X8X>Xy O n.6X7XwXtXtXrX>.. C +Xw 8 9 9 Z `.< X ~.| 9 9 8 0 J.+.X J Y.8 8 8 9 ~ I.O * >X7X7X7XwXrXtXE O @.0XrXtXrX8X7X7X",
"3X3X0XpXpXtX=Xt O N.uXpX8X3X3X9X<.. Z 3X&X*X2X4X6X.X, X Q.8X3X1X*X&X4X%.X P 6X&X&X:X3X7XW.+ & $XuXpXpX8X2X9XY O #.rX3X3X3XiXpXpX",
"3X3X0XaXaXyX=Xt O N.uXaX8X3X3X9X<.. C 3X2X3XiXpXpXXX, X !.iXpXyX2X2X7X&.X P 8X2X2X0XpXpXW.+ & %XuXaXaX8X2X0XY O #.rX3X3X3XiXaXaX"
};
