/* XPM */
static char *result[] = {
/* columns rows colors chars-per-pixel */
"64 64 240 2 ",
"   c #020202",
".  c #070806",
"X  c #090906",
"o  c #0B0B0A",
"O  c #0E120A",
"+  c #14140D",
"@  c #151514",
"#  c #171810",
"$  c #191B13",
"%  c #1B1B1B",
"&  c #22221D",
"*  c #262B1C",
"=  c #2A331B",
"-  c #35331E",
";  c #252525",
":  c #2B2D23",
">  c #2D2D2C",
",  c #2B3422",
"<  c #363827",
"1  c #32342B",
"2  c #3A3D2D",
"3  c #343434",
"4  c #3A3B34",
"5  c #383837",
"6  c #3B3B3A",
"7  c #3C421E",
"8  c #384828",
"9  c #3F413A",
"0  c #5A4D1C",
"q  c #454827",
"w  c #4B542C",
"e  c #464838",
"r  c #524E36",
"t  c #4B5439",
"y  c #52553B",
"u  c #555A39",
"i  c #5C613E",
"p  c #5B733C",
"a  c #677336",
"s  c #434343",
"d  c #4D4F44",
"f  c #4E4E4E",
"g  c #4E5543",
"h  c #545644",
"j  c #5A5E43",
"k  c #5A5E49",
"l  c #535353",
"z  c #5E5F56",
"x  c #5C5D5C",
"c  c #5B6141",
"v  c #5D604A",
"b  c #5C7341",
"n  c #616644",
"m  c #66694F",
"M  c #607B45",
"N  c #656759",
"B  c #6D7456",
"V  c #787955",
"C  c #636363",
"Z  c #696A62",
"A  c #6B6B6B",
"S  c #717466",
"D  c #767676",
"F  c #787870",
"G  c #7B7B7B",
"H  c #887E43",
"J  c #7A843B",
"K  c #6D903D",
"L  c #79A23F",
"P  c #6F8D4B",
"I  c #779B44",
"U  c #778758",
"Y  c #76A246",
"T  c #7CA444",
"R  c #7AAA44",
"E  c #7DA94A",
"W  c #7FA553",
"Q  c #8C8B38",
"!  c #A49D39",
"~  c #8BA83E",
"^  c #98AA3D",
"/  c #9DB13F",
"(  c #A9AC3D",
")  c #B3AD3D",
"_  c #B1B43E",
"`  c #D0B538",
"'  c #EBC93A",
"]  c #95934E",
"[  c #868A5A",
"{  c #88945C",
"}  c #A5984F",
"|  c #84A543",
" . c #89A747",
".. c #84AB43",
"X. c #8BAA44",
"o. c #95AB44",
"O. c #90B54B",
"+. c #85AC52",
"@. c #8AAD5A",
"#. c #9CAC5B",
"$. c #8BB159",
"%. c #97B459",
"&. c #A9AB43",
"*. c #B5A649",
"=. c #B0B149",
"-. c #BAAE59",
";. c #A8B158",
":. c #BAB759",
">. c #868B65",
",. c #869563",
"<. c #8C9467",
"1. c #8E9568",
"2. c #929968",
"3. c #858775",
"4. c #929777",
"5. c #98A766",
"6. c #8DB465",
"7. c #94B462",
"8. c #9AB463",
"9. c #99B66A",
"0. c #9CA673",
"q. c #9DBC75",
"w. c #ACAE68",
"e. c #A8B969",
"r. c #B8B963",
"t. c #A2AB73",
"y. c #A4AB7A",
"u. c #A9B777",
"i. c #B9BB75",
"p. c #B4BE7D",
"a. c #C5B745",
"s. c #D4BD49",
"d. c #C7BC56",
"f. c #D1B852",
"g. c #C5AF68",
"h. c #C3BB63",
"j. c #C2BF72",
"k. c #97C15D",
"l. c #9DC46D",
"z. c #A8C86C",
"x. c #B6C06D",
"c. c #A9C279",
"v. c #B6C775",
"b. c #B6C27C",
"n. c #BAC37D",
"m. c #BAD378",
"M. c #CDC153",
"N. c #D5C657",
"B. c #CBC767",
"V. c #C5C36B",
"C. c #D3CC66",
"Z. c #D8D069",
"A. c #C7C878",
"S. c #C8D47A",
"D. c #CBD27C",
"F. c #D1D275",
"G. c #848483",
"H. c #8B8B8A",
"J. c #959B87",
"K. c #959593",
"L. c #9D9D9D",
"P. c #9EA295",
"I. c #ABBC83",
"U. c #B4BD81",
"Y. c #A8AB98",
"T. c #B1B290",
"R. c #A2A2A2",
"E. c #AAABA6",
"W. c #ADADAD",
"Q. c #B2B2AE",
"!. c #B9BCA8",
"~. c #B3B4B3",
"^. c #B9B9B5",
"/. c #BBBBBA",
"(. c #C5B788",
"). c #BAC684",
"_. c #B7CC86",
"`. c #BCC998",
"'. c #BCC2A2",
"]. c #C6CA86",
"[. c #C4D383",
"{. c #CCD483",
"}. c #C5DA82",
"|. c #CBDC86",
" X c #C6D38A",
".X c #C9D58A",
"XX c #CEDB8B",
"oX c #D1D985",
"OX c #D5D689",
"+X c #D2DD8C",
"@X c #C6CA97",
"#X c #D1CA95",
"$X c #CCD596",
"%X c #D2DE92",
"&X c #D6DA9A",
"*X c #CCE087",
"=X c #D5E38E",
"-X c #D8E38F",
";X c #D6E391",
":X c #D8E492",
">X c #DAE59D",
",X c #C3C7AE",
"<X c #CAD7A5",
"1X c #D5DBA6",
"2X c #C4C5BA",
"3X c #C8D1B4",
"4X c #D6DAB8",
"5X c #DCE5A7",
"6X c #DEE9AC",
"7X c #DEE5B9",
"8X c #E0E7AD",
"9X c #E0EAAC",
"0X c #E2EAB2",
"qX c #E8E3BA",
"wX c #E4EBBC",
"eX c #C3C3C3",
"rX c #CCCCCC",
"tX c #D6D9CC",
"yX c #D3D3D3",
"uX c #D9DAD3",
"iX c #DDDDDD",
"pX c #DDE3C8",
"aX c #DEE3D1",
"sX c #E6E9CA",
"dX c #EAF1CC",
"fX c #E2E5D6",
"gX c #E6E9D4",
"hX c #E3E5DC",
"jX c #EAECDF",
"kX c #F0EDD6",
"lX c #EEF2D6",
"zX c #E5E5E5",
"xX c #E7E9E3",
"cX c #EBEBE2",
"vX c #EDEDEC",
"bX c #F4F5E5",
"nX c #F1F2ED",
"mX c #F3F3F3",
"MX c #F8F9F4",
"NX c #FCFCFC",
/* pixels */
"9X6X9X5XT.< r 1Xc.A. Xq.].<X,XV & 0.0X6X6X6X6X9X6X@X9 9 (.&X9X8X`.x.OXu.V & S OX9X9X9X9X9X9X@X9 e <X8X9X&X@X9X9X5XU & B e.$X,X#X",
".X=X=X=X2.X # i.v.~ M.+.E ^ W <   i ;X;X=X=X-Xc. X0.o   p.=X;X;X|.R a.$.8   = r.C.=X=X=X=X=X9.. . u.;X=X=X=X-X-X=Xw   - R E o.%.",
"].+X=X=X2.X $ b.+X+.I o.L =.e.,   i -X=X=Xz.z.W A.4.o . u.=X=X=X;Xe.Y ~ 7   2 +.s.=X=X=X=Xm.{ . X t.+X:X=X-X:X:X+Xc   = ~ ~ B.$.",
"X.9.oX-X1.X $ b.;XXXV.F.%.( 5.,   c =X=Xv...&.R  .P o . I.=X Xp.u.).i.A.r   5 6.M.+X;X=X*XE J . . U w.=X-X-X-X:X=Xn   2 n.E ` $.",
"w.8.F.=X<.. # b.+X=Xm.r.v.R T <   i ;X;X9._ w...B.H.o . !.H.# @ + # e #.e   e ].F.=X=X=Xv.~ ] . . ,.:.+X;X;Xm.m.=Xn   - V.%.R ^ ",
"=Xr.XX=X1.. # b.=X=Xz.....X. .<   h ;X;X$.) 8.^ oXE.o . eX3.        & I 8   6 1X;X+X=X=Xz.^ ] .   Y.V.;X;X;X=X=X=Xn   = ~ T E ( ",
".X=X=X=X5.o + b.=X=X;Xe.:.A.} 1   u ;X:X;.L Y $.<X~.o . eXG         : u.e   6 qX;X;X=X=Xx.L p .   ^.5X=X=X=X=X=X=Xc   2 #.B.x.=.",
"7.A.=X=X1.o # b.=X=X-X-X:X=X$X4   c ;X;X|.N. .Q P.W.o . eXG.        : ).e   6 iX5.=X=X=X=XB.]     /.>X=X;X=X=X=X=Xn   < XX:X-X:X",
"+.f.=X;X1.X # b.=X=Xz.m.-X=X$X4   u ;X8.;.+XY q G.W.o . eXG         * @.d   6 iX> 5.=Xv. .oX[     ^.&X=X=X&XA.OX=Xc   , [.;X=X;X",
"Y M.;X=X[ . + i.=X;Xm.|.-X=X<X6   u ;X$.X.8.b . H.W.o   eXG.        * u.d   6 iX% , |.x...%.P     !.>X=X=Xf.' -.=Xv   1 |.=X=X;X",
"` F.=X=X>.X + p.=X;X;X;X Xf.#X6   u ;X[.=.X.*   G.W.o . eXG.        : @Xl   6 iX@ o 1.=X;.) P .   Q.5X-X=X-.) A.=Xj   2 oXi.s.i.",
"F.%X=X=X1.o # b.+X}.m.=Xj.' #X6   j ;X;X+X[     G.W.o . /.G.        > yXl   6 iX%   t XX-Xv.a .   ~.9X-X=X=X=X=X=Xk   2 XXf.' g.",
"=X=Xz.k.<.X $ n.=X=X:X;X{.-.1X6   c ;X=X;Xm     H.W.o . eXG.        > yXl . 6 zX@   * ].=X+X] X   ^.8XO.v.=X=X=X*Xv   3 XXA.g.+X",
";X=X=Xm.2.X # p.=X=X=X=X-X=X1X6   c ;X=X%Xd     G.W.o . eXG.        3 yXl   6 iX%   o ).=X-Xt.    ^.9X}.+X-X=X=X=Xv . 2 XX;X=X=X",
";X=X=X$X[ o # b.=X=X;X=X;X;X$X6   c ;X;XXXe     G.W.o . eXG.        > uXf   6 iX@   . p.-X:Xt.X   /.9X=X X+X|.+X+Xv   1 XX;X=X=X",
";X;X=X7.>.X + w.=X=X*X*X=X;X4X6   u m.;XXXe     G.W.o . eXG         3 yXf   6 iX%   X b.-X;Xt.X   /.9X X9.p.6.r.{.v   5 5X;X=X=X",
"=X=X*X+.M X O ] =X=X|.*X=X=XaX6   u ;X;X;Xh     G.~.o . eXG.        3 yXl   6 zX@   $ ].&XOX]     /.0XD.R | ;. .r.k . 5 gX:X;X=X",
"=X=X+.^ p X # b.=X-X=X-X;X:XgX6   j ;X;X:XV     G.W.o   eXG.        > yXl   6 iX%   2 oX-Xj.Q .   ^.1XE ^ R d.+X+Xk   5 jX>X=X=X",
"=X=XE a.U . + u.A.D.-X-X=X:XhX6   h :X=X;X).O   G.W.o . eXG.        > iXl   6 iX@ X V %X-X-X] .   Q.<XR N.%.=.A._.k . 6 cX>X;X=X",
";X=Xz.~ ] . O Q $.M.+X-X;X;XfX6   e .X;X;X+Xk   G.W.o   /.G.        > yXl   9 iX@ $ y.OX-X-Xt..   ~.5X+.) 8.R | ^ t   5 jX>X=X=X",
"=X=X+XW p   O } 8.&.F.-X-X:XfX6   8 j.XX;X:XU.& H.W.o . eXG.        > yXf   6 iX% u v.].=X=Xt.. . /.wXm.Y I X.^ r.t   5 sX;X;X}.",
"-X-X=X|.[   O ! 8.X.Z.-X;X:XaX6   8  .7.A.:X:X>.H.W.o . eXG         3 uXf   6 iXr I T $.i.=Xt..   /.wX;XS.C.D.E d.t . 4 7X;X;X$.",
"v.=X=X=X{ X O K | a.|.;X;X:XtX6   q B.+.N.-X:X%X3XQ.o . eXG.        3 yXf   6 hXi.Y a.%.r.=Xt..   /.wX:X;Xe.F.$.T e . 5 pX-XXXY ",
"-X-X=X=XU X O K ^ S.;X;X;X:XtX6   q oXx.A.%X:X:XsXW.o . eXG         > iXl   4 kXn.R C.S.:.=Xt.o   2XwX:X%XE | ..R r . 4 sX-X_.T ",
"=X=X=X=X<.. + 5.=.V.=X=X;X:XuX6   e $X+X=X-X-X:XwXE.o X eXG.        > yXl   6 hX@...v.;X=X=Xy.o   ~.0X;X:X[.#.B.e.r   6 jX>X}.I ",
"=X=X=X=X<.. # b.;X=X=X;X;X;XhX6   q O.p.:X=X-X=XwXE.o X eXrXG C x C L.zXl . 9 nX).~ ^ I.5X0XY.X   ~.8X;X:X:X;X-X+Xv . 5 jX>X:XF.",
"|.=X=X=XU . # b.=X;X=X}.-X8.uX6   y 8.h.oX:X;X#XsXW.o   eXNXNXNXvXvXvXvXl   s mXzX#XU.`.sXdX!..   ~.6X;X+X%.+X=X=Xv   6 cX;X| D.",
"*.=X;X;X{ . # p.;X;X=Xm.-X%.tX6   l fXqXkXdXgXsXnX~.o   eXmXmXmXmXmXmXmXl   6 NXmXMXmXmXnXMX~..   /.wX=X=Xm.=X:X%Xv   4 sX+XT %.",
"g.=X=X=X2.O + *.r.;X;X=X=X_.tX4   l mXR.R.R.L.L.rXW.o . eXeXL.L.R.R.W.zXl   6 mXW.R.R.R.L.eXW.    /.lX>X:X;X;XV.s.d   6 7X=Xe._ ",
"-X=X=X}.U X o ` *.=X=X=X[.4.iX5   l zX@   . . . H.W.o . eXG.  . . o > rXf   6 zX; .   . . G ~..   /.2XP._.%X5Xf.` y . 5 aX=X=X{.",
"=X=X=X=X2.o + } OX;X;Xt.< ; yX5   x zX@         G.W.o . eXG.        > yXl   6 vX%         G W.    /.K.+ N 4XwXj.g.v . 5 sX;X=X=X",
"=X=X=X;X,.O # b.+X+X0.@   ; yX4   l iX@         H.W.o . eXG.        ; rXl   6 zX%         G /.    ~.K.    e 4X9X&Xz   6 jX>X;X=X",
"%X;X=X=X1.X # n.=XU.1 % % 6 yX6   x iX; ; % % ; K.W.o . eXH.% ; % ; 6 yXl   6 vX5 % % % % H./.    ~.L.; % ; C pX8Xx . 5 cX>X;X;X",
"w.F.-X;X<.X # n.=X XU.u.I.3XzX6   l vXrXrXyXyXyXzXW.o . eXzXrXyXyXrXyXzXl   6 mXyXrXyXyXyXzX/..   ~.zXrXyXyXrXxXjXC   5 aX;X;X=X",
"+.-.=X-X<.X # p.=XS.|.;X:X5XxX6   l mXmXmXmXmXmXmXW.o . eXmXmXMXmXmXmXvXl   s mXmXmXmXmXmXNX~.    /.mXmXmXmXmXmXnXC . 5 gX>X;XXX",
"|.+X=X=X2.X $ p.=Xk.m.;X;X:XaX5   l NXNXNXmXvXvXvX~.o . eXmXvXvXmXNXNXmXl   6 NXNXNXNXvXvXvXW..   /.mXmXvXvXNXNXMXZ . 5 sX;X;X|.",
"V. XA.+X1.o @ n.|.XXXX=X+X%XaX6   l NXmXmXvXvXzXvXW.o o eXvXvXvXmXmXmXmXl   6 mXmXmXmXvXvXvXW.    /.mXvXvXvXmXmXMXA   5 fX>X;X=X",
"..o.7.N.4.o # p.2.y t t y m iX5   l vXx f l f f W.W.o o eXR.f f l l C iXl   6 mXC f f f f L.~..   /.W.f f f l C iXC . 5 hX%X=X;X",
"~ V.%.&.H o @ `.S       o ; yX5   l iX@         G.W.o   /.G.        ; yXl   6 zX%         G ~.    /.H.        % yXC   5 cX#X;X=X",
"E ` #.X.[ o @ rXD         ; yX6   l iX@         G.W.o . eXG.        ; yXl   6 zX%         G /..   ~.G.        % yXC . 5 xXq.u.|.",
"e.R ..d.4.o % rXD         ; yX5   l iXO   .     G.W.o . eXG.        ; rXl   6 zX%         G /.    ~.G.        % yXC   6 vX).%.B.",
"R L ) %XJ.o @ '.J.Z Z N Z F tX6   l aXS N N m g W.W.o X eXW.A A C A G iXl   6 vXG A C A A W.~.    ~./.A A A A G zXC   5 cX&X:.=X",
"M.z.&.].L.o @ ,X3XI.l.).<X0X4X5   h 5X>X>X:X:Xu.<XW.o   eXvXnXmXNXNXNXmXf   6 NXNXNXNXmXvXvXW.    eXmXvXvXnXNXNXNXA   5 hX<X=X=X",
"=X;X:XdXY.o % 2X1Xr._.x.c.7XaX5   d %X;X;X;X:X;X5X~.o . eXnXvXvXNXNXNXmXl   6 NXNXNXNXvXvXmXE.    /.mXvXvXvXNXNXMXC   5 hX).S.=X",
"=X=X;XlXL.o @ rXgXsXpXbXnXhXA o   . 4 0.=X:Xm.z.sXW.o . eXvXvXvXNXNXNXmXl   6 NXNXNXNXmXrXC @     f eXmXvXmXNXNXNXC   5 xXq.N.;X",
";X[.y.tXL.o % rXyXeXyXvXiXs .         o >.,X'.`.zXW.o . eXiXeXeXeXeXeXvXl   6 mXrXeXeXW.3           % W.vXyXeXeXvXC . 5 xX5.=.+X",
"].q . H.L.o @ rXG K.iXvXD               o @ @ % R.W.o . eXG.. . X . ; yXl   6 iX% . .                 ; iXiXW.A eXC   6 zX9 O y.",
"] % s W.L.o % rXD K.mXiX>                     . L.W.o . eXG.        ; yXl   6 iX%                       E.NXmXE.eXx   5 zXl o e ",
"d /.vXvXL.o @ rXD l mXrX%                     . L.W.o . eXG.        ; yXl   6 iX@                       G.NXmXA eXC   6 mXzXeXH.",
"% ~.vXMXR.o % rXD ; vXyX% .                 o @ L.Q.o   eXG.o o o o 3 rXl   6 zX; o .                   G.mXvXs eXC   5 vXmXNXeX",
"  G.vXNXR.o % eXD o /.yX%                 d T.T.uXW.o o eXzXyXyXiXiXiXvXl   6 mXuXiXK..                 G.mXrX3 eXC . 5 vXmXNXH.",
"  s vXmXR.o @ rXD   G.yX;                 v ;X=XgX~.o . eXvXmXnXNXmXNXmXl   6 NXNXNXW.o                 H.mXR.% eXC . 5 vXNXNXl ",
"  @ iXnXL.o % rXG   f iX5                 [ *X|.dXW.o . eXmXMXmXmXmXmXmXl   6 mXmXmXyX%               . ~.mXC @ eXC   5 vXmXvX% ",
"    W.<XJ.o @ rXD   % iXH.              & ).-X5XbXW.o . eXNXNXNXmXmXmXvXl   s mXmXmXmXC             . 6 zXmX> @ eXC   6 mXmX~.o ",
".   S >X4.o @ rXD     ~.vXA o           4 { n.$XyXW.o . eXW.x x Z x A iXl   6 zXC x l s             > rXMXrXo % eXx . 5 mXmXG . ",
"1 X e $X<.o $ `.3.e B ,XgXgXJ.@   O q a P *.{.[.,XW.o . eXG.+ , 2.j > rXl   6 iX%         4 <     C uXbX0X'.d 4 '.x   6 vXvXs @ ",
"[.B t 5.V X @ p.+X:X=X-X=X;X.X1   q +.M.z.^ N.=X4XQ.o X eXG.  $ U i 3 rXl   6 iX%         w } .   eXsX}.e.8.c.A.%Xv   5 vXiXm 0.",
"=X%X@.| a X O <.{.-X-X=X-X:X.X2   r 7.( r.K M.|.rXQ.o   /.3.  o $ # 1 rXf   6 iX%       . w Q .   '.6XE ^ ..+.$.u.n . 5 vXwX+X+X",
":X-XE ` >.o + W B.=X-X-Xz.:X.X2   u S.R L ) S.=X7XW.o . y.U i t i B >.4Xf   6 cXB u n g g J ] .   /.&X..N.+.) #.;.k   5 cX<X=X-X",
":X+XR N.U X @ o.{.=X:X=X=X=X.X4   q R ..^ F.=X=X>XW.O . { o.C.v.B.-X-XoXg   6 lX XR X...R M.0.X   /.`.o.B.E :.[.:.k   5 vX6X;X=X",
";X-X| I p . # b.=X=X;X;X=X=X.X2   q :.x.o.B.-X=X:XY.o . P X.m.;X=X=X;XXXy   s wX:Xm.#.N.%.*.0..   ~.@XT Y L x.XX%Xk   6 nX0X=X=X",
"=X:XD.=.p   O w.=X;X=X;X=X=X|.2   c ;X;X=X-X=X=X:XY.O   K ^ o.U.+X=X;X+Xy   e wX:X:X-X-X-X;Xy.    ~.6XB.( ../ q.{.k   5 nX0X=X;X",
":X$.V.S.K   O *.+X=X+X].[.;X.X2   u ;X;X=X;X=X|.-XP.o . P a.x.:.F.-X-X Xe   s dX*Xk.-X=X=X=XI.    Q.).{.e.=.j.%.N.k   6 vX8X=X=X",
":XE o.7.a . X *.=X=X].' f.|..X2   u ;X=X;X;X-Xm.>XY.o   K d.$.=.{.=XoXf.0   6 bX=Xz.-X=X=X-Xy..   ^.c.%.+.&.e. .B.n . 5 cX].:X=X"
};
