/* XPM */
static char *result[] = {
/* columns rows colors chars-per-pixel */
"64 64 235 2 ",
"   c #739A3E",
".  c #7C9A3D",
"X  c #75A23F",
"o  c #7CA53F",
"O  c #79AA3F",
"+  c #6E9B40",
"@  c #749D43",
"#  c #7B9E42",
"$  c #75A342",
"%  c #7AA543",
"&  c #76AC43",
"*  c #7BAB44",
"=  c #76A449",
"-  c #7CA54B",
";  c #7DAC4B",
":  c #7AB146",
">  c #7EA650",
",  c #839E3E",
"<  c #8B9E3A",
"1  c #83A43E",
"2  c #8CA43E",
"3  c #83A83E",
"4  c #8DAA3E",
"5  c #9FA737",
"6  c #93A43D",
"7  c #9BA43C",
"8  c #93AB3E",
"9  c #9CAC3E",
"0  c #98B03B",
"q  c #A2A43B",
"w  c #A3AC3D",
"e  c #ACA93A",
"r  c #ACAD3D",
"t  c #B7AC3A",
"y  c #B3AD3C",
"u  c #A6B23E",
"i  c #B4B33D",
"p  c #BCB33B",
"a  c #B8B83A",
"s  c #CAA43B",
"d  c #D1AF39",
"f  c #C3B63B",
"g  c #C8B93A",
"h  c #DBBB36",
"j  c #D4BA3D",
"k  c #D8B83B",
"l  c #E0BE3A",
"z  c #DFC139",
"x  c #E9C937",
"c  c #EECC36",
"v  c #F6D038",
"b  c #839D41",
"n  c #83A543",
"m  c #8BA541",
"M  c #83AA42",
"N  c #8CAA42",
"B  c #87A54D",
"V  c #82AC4D",
"C  c #8BAC4A",
"Z  c #96A541",
"A  c #93AB42",
"S  c #9CAC42",
"D  c #97A84B",
"F  c #84B74B",
"G  c #9EB14E",
"H  c #83A552",
"J  c #85AC52",
"K  c #8BAE54",
"L  c #8BAC59",
"P  c #93AC54",
"I  c #98AD59",
"U  c #85B054",
"Y  c #8BB155",
"T  c #89B853",
"R  c #8DB35B",
"E  c #98B654",
"W  c #92B45C",
"Q  c #9AB55D",
"!  c #94BA5D",
"~  c #A3A746",
"^  c #A6AC42",
"/  c #ABAC42",
"(  c #ACAC4A",
")  c #B6AB47",
"_  c #AEB14D",
"`  c #B6B242",
"'  c #BDB344",
"]  c #BEB945",
"[  c #B5B24C",
"{  c #BBB44A",
"}  c #A9AC51",
"|  c #BFAB54",
" . c #B9AC5B",
".. c #AAB253",
"X. c #A5B45E",
"o. c #ACB45B",
"O. c #BCB455",
"+. c #B3B45C",
"@. c #B9B758",
"#. c #BBBA59",
"$. c #8FB369",
"%. c #94B564",
"&. c #9AB662",
"*. c #9CBA64",
"=. c #98B768",
"-. c #9EBA69",
";. c #9BBA71",
":. c #BBAD61",
">. c #A5B766",
",. c #ACB763",
"<. c #A2BC66",
"1. c #AAB56A",
"2. c #A4BC6C",
"3. c #ACBB6A",
"4. c #BDBA63",
"5. c #B8B669",
"6. c #BCBC6C",
"7. c #A7BC76",
"8. c #B7BB76",
"9. c #BCBC74",
"0. c #B2BC7C",
"q. c #C19C44",
"w. c #C1A448",
"e. c #C3B543",
"r. c #CBBB45",
"t. c #C6B749",
"y. c #CCBD4D",
"u. c #D5BC44",
"i. c #D5BB49",
"p. c #C2A554",
"a. c #C4AC54",
"s. c #C2AB58",
"d. c #C7B454",
"f. c #C5BC55",
"g. c #CCBC53",
"h. c #C3BC5C",
"j. c #C9BB5A",
"k. c #D4BD54",
"l. c #D5BE5E",
"z. c #C3AD61",
"x. c #C5BE66",
"c. c #C9BD64",
"v. c #C3B36C",
"b. c #C6B868",
"n. c #C5BF6E",
"m. c #C5BA73",
"M. c #C4BC73",
"N. c #99C25D",
"B. c #9BC660",
"V. c #A4C567",
"C. c #AAC36D",
"Z. c #A6CB69",
"A. c #ACCD6D",
"S. c #B5C16A",
"D. c #BCC36E",
"F. c #ADC472",
"G. c #AFCE70",
"H. c #ACC37A",
"J. c #B3C373",
"K. c #BBC373",
"L. c #B4CC74",
"P. c #BDC37B",
"I. c #B5CB79",
"U. c #B7C87A",
"Y. c #BCCC7C",
"T. c #AFD070",
"R. c #B4D274",
"E. c #B9D377",
"W. c #BCD57B",
"Q. c #BFD87D",
"!. c #CCC04F",
"~. c #D8C040",
"^. c #D3C04D",
"/. c #CAC359",
"(. c #CDC25B",
"). c #D2C354",
"_. c #D9CA57",
"`. c #D2C65B",
"'. c #E2C342",
"]. c #EECC40",
"[. c #CBC563",
"{. c #CDCA65",
"}. c #C4C56B",
"|. c #C5C36C",
" X c #CAC46B",
".X c #CCCB6C",
"XX c #D3CB64",
"oX c #D8D167",
"OX c #D4D06E",
"+X c #C4C373",
"@X c #CAC473",
"#X c #C4C873",
"$X c #CBCC73",
"%X c #C5C47B",
"&X c #CAC57A",
"*X c #C4CB7B",
"=X c #CBCC7B",
"-X c #D3CF75",
";X c #CED275",
":X c #C2D47D",
">X c #CCD27C",
",X c #C1D97E",
"<X c #CED97E",
"1X c #D3D275",
"2X c #D1D57B",
"3X c #D4D87D",
"4X c #ACBF83",
"5X c #ACC382",
"6X c #B4C383",
"7X c #BCC582",
"8X c #B6CA8A",
"9X c #BBCD91",
"0X c #C7C886",
"qX c #CBCC80",
"wX c #C4CD8B",
"eX c #C5D483",
"rX c #CCD583",
"tX c #C5DA83",
"yX c #CBDC85",
"uX c #C2D28F",
"iX c #CBD58B",
"pX c #CEDC8A",
"aX c #D1D782",
"sX c #D1DA85",
"dX c #D2DD8B",
"fX c #C4CF91",
"gX c #C8D691",
"hX c #C9D694",
"jX c #D3DE91",
"kX c #CFE08A",
"lX c #D5E38F",
"zX c #D8E38F",
"xX c #D7E88F",
"cX c #D6E390",
"vX c #D8E391",
/* pixels */
"cXlXcX&Xm.lXlXdXV r.3.M 6.5XK.>XlXlXlXlXlXlXcXlXcXcXcXlXn.=XlXlXF.4 XXJ q 6X5X@XpXxXlXcXlXlXlXlXzXcXlXlXrXv.dXzXzXY i D.& @.H.H.",
"yXlXlXlXvXvXzXzX*.8 ..* n ` J ^.dXcXlXlXlXlXcX=.0XcXlXlXlXlXcXlXlXJ i L & 6 9 X.`.lXlXlXlXlXlXpX7.qXcXcXlXlXlXcXzXI.n [ ; = ` B ",
"7XpXlXzXvXcXcXcXdXH , w 3 (.*.9 .XcXlXlXpX! R U 4XfXlXlXlXlXlXlXlXL.# 6 6 w *X- g pXlXlXlXI.R K ;.0.iXcXlXlXzXzXzXzXI . r % r.U.",
"n ,.lXzXvXjXdXcXzXcX>XdXR r J 7 XXlXlXlX*.6 / * 6 U +XlXlXlXkXlXlXlXpXrXeX* { = g >XlXlXlX- q N 1 N &.rXlXlXlXkXzXzXlXrXdX*.9 I ",
">.O.sXcXlXtXE.cXcXlX>.#.<.: m `.lXlXlXxXR g F.N {.H |.lXlXlXA.lXlXlXyXI #XB & ` ;XlXlXlXeXo _.R p J.G =XlXlXkXA.zXlXzXF.O.L.: n ",
"yX|.cXlXlXlXlXlXlXlX&.& N N / >XlXcXlXcXJ / W w rX2X>XlXlXlXlXlXlXlXpX; * 9 % { kXlXlXlXL.3 }.; t.cX}.lXlXlXlXlXlXlXlXF.= o A 8 ",
"hXlXlXlXlXcXcXcXcXlXlX8.$X:X#.rXlXlXcXvXX., & C 8XpXxXlXlXlXlXcXlXlXlXtXK.>XJ.h.lXlXlXlXrX2 X : ! fXlXlXlXlXcXlXlXlXcXcXI.$XrX+.",
"$.>XlXlXlXcXlXlXlXcXcXlXzXlXlXlXlXlXlXdXdXOXn t 9 8.kXlXlXlXlXlXlXcXlXlXlXlXlXcXlXlXlXlXpXaX..3 p R [.lXcXcXlXlXlXlXcXcXcXcXlXcX",
"Q XXlXlXiXn.=XlXlXcXT E.lXlXlXlXdXR.lXK _ sX% `.W h.rXlXcX0Xx.pXlXlXW.T lXlXcXzXlXW.tX:Xn -X<.i *XC _.lXcXiXM.$XlXlXlXN.T.lXlXlX",
"^ 1XlXlXd.c :.xXlXcXtXcXlXpXdXlXlXyXlXR = L M X.$ t.kXlXqX'.~.5.cXlXlXtXjXjXiXlXcXkXlXrXX B V S *.n _.lXlXx.c a.zXlXlX<XkXlXpXdX",
"j yXlXlX6.a.&XlXlXkXlXcX%Xh  .zXzXvXlXrX[ m 1 S r _.xXlXlXs.a.lXlXlXkXlXjXj.j P.cXcXcXlX+X( * Z S g >XlXlX+X| b.lXlXlXlXzXeXj | ",
"sXlXkXlXlXzXlXlXlXQ.kXcXc.h s.cXcXcXvXcXvXQ f >X=XlXlXtXlXlXlXlXlXlXL.zXdXd d &XvXvXvXzXvXpX, j.>XrXlXlXpXlXlXlXlXzXyX,XzX@Xl q.",
"lXcXT T.cXcXcXcXlXcXlXlXrX@XdXzXlXlXlXlXlXsX.XlXcXlX,X& kXlXlXlXlXlXcXvXlX+X=XcXlXcXcXlXlXlX1XaXzXzXlXN.V.lXlXlXcXlXlXlXvXdX+XaX",
"lXlXpXlXcXcXlXlXlXcXlXlXzXlXlXlXzXlXlXcXcXcXvXzXlXlXlXyXlXlXlXlXlXlXcXcXcXcXlXlXcXlXcXlXzXvXvXzXzXzXlXlXpXlXlXlXlXlXcXcXlXlXcXvX",
"lXlXlXwXaXiXrXcXlXlXlXlXlXlXlXlXxXlXlXcXcXlXvXvXzXvXlXpX%XlXwXsXlXlXlXlXlXcXlXcXcXlXlXcXlXzXvXvXvXvXzXlXfXrXpXiXlXlXlXcXlXcXcXcX",
"cXcXeXR 3.R 3.1XlXcX,XlXlXlXlXlXxX8XW.cXcXlXdXlXzXcXcX2.7.-.W x.lXlXlXW.lXcXcXcXlXcXA.lXvXjXjXjXjXvXvXdXJ 0.%.&.[.lXcXyXtXlXlXcX",
"lXlXL.& * O.L x.cXlXlXlXlXcXcXR.tXcXcXcXcX#.k.=XlXzXdX&.O 7 ,.G :XcXcXyXlXcXlXpXA.dXvXlXvXiXd.c.sXvXvXeXU & ) W @.zXlXlXlXlXlXcX",
"lXeXX ~ * t.cXvXzXzXlXlXcXlXlXZ.tXlXcXcXcXp.'.h.lXlX*.N D N {.lXxXlXlXlXlXcXlXyXZ.lXcXvXjXaXs ~.=XvXdX= 7 C i dXcXlXcXcXlXlXcXlX",
"lXtX% ^.<.A P.H.@XsXlXzXlXcXxXxXlXcXcXcXcXsXm.iXcXlX<.^ .X; ( 8X5X[.lXlXlXcXlXcXcXcXvXzXvXvX&X%XlXzXzX% f 2.n 6.H.P.2XvXlXcXlXlX",
"lXxXW ^ I & n r R ^.lXzXlXlXlXlXlX;.*XlXcXcXlXlXcXcXyX* ' J * w A #.;XlXcXlXcXcXvXY.4XsXvXvXcXcXlXlXlXC.A #.& % i J g.sXlXlXlXlX",
"lXlXrX= , S 8 XXR ` >XvXzXlXiXW R R 6.iXvXcXvXlXcXcXcX2.# Z n i *X@ r.kXlXlXlXJ.R J 7.7XpXcXcXcXlXcXcXdXH # S n ).F.^ oXlXlXlXkX",
"lXcXcXdX>XdXB / J e $XlXlXlX! 7 Z o m $.=XvXjXvXdXjXcXcXrXrXI.N +.  j kXlXlXyX$ e n n N 1.lXcXcXlXdXcXcXcX=XsXW q W m XXlXlXlXF.",
"eXlXlXlXQ {.&.: 6 [.cXcXlXvX; r.2.S 6.> OXjXvXzXZ.cXcXcXeX..K.* * { <XlXcXlXL.4 oX; e.2.o.rXcXcXyXR.vXvXcX2./.2.* 2 f.dXcXcXcXR ",
"lXlXlXlXY * 4 M i pXxXcXcXdX= ) R / dX$XrXvXcXvXcXcXcXcXeX% & 9 o f.xXlXlXlXC.8 #X% ).dX}.xXcXcXcXjXvXcXcX*.% M Z 8 >XlXlXcXcX; ",
"lXlXlXlXpXJ.-XU.O.yXlXcXcXvXD @ & Y 9XlXzXzXzXvXcXvXvXvXlX*XD.3X3.#.lXlXlXlXY.< X & <.hXcXlXlXcXjXvXvXvXvXcXJ.$XeX+.=XlXlXlXlXX.",
"lXlXlXcXlXzXzXlXcXcXlXcXlXdXsX[.* t C M.zXvXzXcXvXjXjXvXlXlXzXzXvXvXlXlXlXlXpX<XG 8 i %..XcXcXvXcXvXvXvXcXvXvXvXcXcXlXlXlXlXlXdX",
"yXlXlXkXF pXcXcXcXlXpX,XlX% 4.Y.N XXJ j.sXzXdX%Xn.dXvXvXL.N.zXvXvXzXzXE.lXL.A >X! ] %XT _.xXlXiXM.>XvXcXvX! E.zXvXcXcXcXE.xXL ~ ",
"6.lXlXcX,XvXlXsXcXlXkXpXlX; B K N >.@ y.zXzX*Xx u.0XzXvXdXyXzXdXdXvXlXyXlXY.% Y ; 9 &.Z XXxXlXf.c z.vXcXcXQ.dXlXsXjXvXcXkXcXL n ",
"=XlXlXlXcXlX@Xk 9.cXcXlXlX*X/ M m S i XXlXlXrXa.z.zXzXzXlXcXdXd.t.qXlXcXlXcX,.q O A 9 j yXlXlXn.s.+XcXvXcXlXzX0Xk :.cXcXcXkXyX( ",
"lXlXlXE.lXcXg.d b.lXlXlXlXlXvXC t.>X>XcXlXpXlXzXzXzXzXvXR.lXiXh s rXlXlXcXzXzXU.< {.;X<XlXdXlXvXcXlXcXcX,XtXlX[.h | xXxXcXlXcXcX",
"lXcXlXlXlXcX:X@XdXlXlXcXxXlXcX3X;XlXlXlXG.F lXzXzXlXcXzXzXlXlX+XqXjXlXlXcXlXlXlX.X<XzXxXlXT A.lXlXlXcXlXlXlXzXyX+XdXlXcXcXlXcXcX",
"zXlXcXcXlXcXcXlXlXlXzXlXcXlXlXlXlXlXlXlXzXyXlXzXzXlXlXzXvXzXzXlXcXcXcXcXcXcXlXlXzXzXzXzXzXkXdXlXlXlXcXlXlXlXlXzXlXlXlXcXlXcXcXcX",
"sXlXlXlXcXcXcXcXcXcXlXcXlXlXlXcXlXcXcXcXcXiX=XjXiXlXlXzXzXzXlXlXlXlXcXlXlXlXlXlXzXzXlXlXlXjXwXsXrXsXvXcXlXlXlXlXzXlXlXlXlXcXcXlX",
"+.aXcXzXQ.vXlXlXlXlXlXE.yXlXlXlXcXlXlXlXcXW J.;.%./.lXlXlX,XcXcXlXlXlXcXA.lXlXlXzXdXlXcXlXiX$.8.$.>.$XlXcXQ.lXlXlXlXlXlXtXW.lXlX",
"I $XlXvXpXzXcXlXcXA.kXcXlXcXcXd.l.eXlXlXpXR & q &.~ pXlXcXyXcXlXcXeXG.cXcXcXlX=Xk.m.dXlXlXY.; % O.Y j.lXlXpXlXxXcXcXR.tXcXcXcXcX",
"cXlXlXlXcXlXlXlXlXV.kXcXlXlXcXq.'.c.lXzXW Z C 9 =XvXlXlXcXlXcXcXlX,XA.zXcXcXcX+Xd u.iXlXtX% ~ ; e.cXlXcXlXlXlXlXcXvXA.tXlXlXlXcX",
"P.5X XlXlXcXxXcXlXxXlXzXlXlXcXrXm.iXzXzX! i #X% f.8X6X[.lXlXlXxXlXlXlXlXcXlXzXlX+X0XlXlXyX$ t.*.N 9.6X%XrXlXcXcXcXlXlXlXlXlXlXlX",
"m Z &.`.lXcXcXlXlXlXpX7.=XcXlXlXcXcXlXlXU.% t.; = w C !.>XlXlXlXlXlXlXI.6XjXvXcXlXcXlXlXcX! u +.* n / L i.lXlXcXlXlXzXxXV.0XkXcX",
"r $XJ g pXcXcXcX*XW W ! #XiXcXcXlXlXlXlXlX&.% 6 $ e.U.# ).lXlXlXlXC.W V 0.9XdXlXcXlXcXlXlXrX= . 8 4 `.! i 1XcXlXzXpXQ &.U 9.gXcX",
"= [ V p >XcXcXcXY 6 4 * 2 $.2XcXlXlXlXcXlXzX=XqXF.S o.+ ~.lXlXlXY.* ~ * m M 8.lXcXcXkXlXcXcXlX=XpXH ` R w OXlXlXcX<.2 2 * m %. X",
"Y & 5 {.cXcXlXkX% y.W w 1.P -XcXlXdXA.vXlXlXI.#.K.& M ] rXlXlXlXC.u OX* y.&.o.lXlXlXW.W.lXlXcX1.{.&.* 6 /.dXlXlXcX; t *.8 #XB `.",
"A O { lXcXcXcXeX$ f.J ` lX@XsXlXlXcXlXlXcXlXL.* $ Z m .XzXlXlXlX<.u 3.M XXyX@XlXlXlXcXlXcXlXcXY M 3 M w sXcXlXlXdX= [ *.i sX#X>X",
";XJ.t.pXlXlXcXkXb % & Q uXzXlXcXcXcXcXcXlXlXlXU.|.sX..|.zXlXlXlX6.. % * H.hXlXxXlXcXcXcXlXcXlXdXJ.$XY.O.rXlXcXlXlXD @ & Y 9XlXlX",
"lXlXcXcXlXcXlXpXaX#.M y R +XlXlXlXcXlXlXlXzXzXzXlXzXcXlXlXlXlXlXkX;XD 7 w *.<XlXcXlXlXlXlXlXlXzXcXcXlXlXlXlXlXzXdXsX[.. y N 8.cX",
"cXcXlXlXtXtXyX@ .XF.9 +X- /.cXlXdX&X#XcXlXlXZ.V.cXvXcXlXcXE.lXF.S dXR e.J.E XXlXlXiXm.rXvXcXvXT tXcXcXlXlXpXQ.lX- #.:Xo XXK j.kX",
"lXsXlXlXkXkXpX$ P J 8 2.% `.cXcX+Xc d.yXlXlXtXyXvXdXdXcXlXtXcXF.* &.& _ ! u $XlXvXy.c 5.lXcXlXE.lXvXpXlXlXlXtXlXH C R A S.% ^.cX",
"n.u.*XlXlXcXvX8.^ * Z 8 g OXlXlX*Xw.v.cXcXlXlXlXiXi.a.iXcXcXcXpX( Z * 0 w z pXcXxXb.p.=XlXlXlXlXcX@Xu.v.cXcXzXzX*X/ N n 0 i `.lX",
"u.d @XzXlXlXlXcXcX1 g.2X2XjXlXlXxXlXxXlXlXlXW.lX$Xh q.dXcXcXlXlXvX>.q {.1X<XcXlXlXlXlXlXlXvXE.lXlXj.h z.cXcXcXlXlXcXB t ;X2XkXlX",
"&X@XlXzXcXlXcXlXxX;X*XlXlXzXV.N.lXcXcXlXcXlXvXvXdXM.rXcXcXcXcXcXlXlX XkXlXvXcX: W.cXcXvXcXcXvXcXzXrXn.dXlXcXlXlXlXcX>X$XlXlXlXE.",
"jXzXlXlXlXlXcXcXlXlXlXlXlXlXlXtXvXcXlXzXzXlXcXvXcXvXzXlXlXlXlXlXlXlXlXlXlXcXcXyXlXcXcXvXcXcXcXvXvXvXzXzXlXlXcXlXcXlXlXlXlXcXlXlX",
"lXlXlXlXcXcXlXlXlXlXlXlXlXcXzXiXrXsXrXjXcXzXcXcXcXcXlXlXlXcXlXlXlXlXlXlXcXcXcXlXwXdXiXsXcXjXvXcXcXcXcXcXlXlXcXlXlXcXlXlXlXcXlXcX",
"cXlXcXlXcXR.lXlXlXlXlXlXlXlXlXR 8.;.1.[.vXzXdXtXvXlXlXvXlXlXT.lXlXlXlXlXlXlXcX7X-.3.$.,.aXvXvXE.lXlXlXcXcXcX,XyXlXcXlXlXcXlXlXlX",
"cXlXlXA.lXlXlXlXjXd.c.yXxXlXtXU & / I } lXzXlXyXlXlXlXW.E.lXcXcXlX+Xl.m.lXlXlXL.* 1 +.B [.cXcXyXlXlXcXcXA.pXlXlXcXcX .l.iXlXlXlX",
"cXlXlXN.lXlXcXcXdXs x |.lXlXK 9 V r rXlXlXzXzXzXlXlXlXL.T.lXcXcXlXb.k j sXlXY.% ~ ; g.lXlXcXcXjXlXlXlXlXB.tXvXlXcXcXq.x h.cXlX&.",
"cXlXlXcXlXlXlXcXcX=Xv.lXlXlXU f J.n [.8X8.2XzXzXzXcXcXvXvXzXzXvXlXdXM.%XlXlXY.% ).Y ~ U.8X|.sXlXzXlXcXvXvXzXzXlXcXcXrXv.yXlXlX&.",
"lXcXzXlXeX5XrXlXvXcXlXcXlXlX2.N f.= & w Y i.sXzXlXcXlXzXvXH.7XvXzXlXlXlXzXzXlXK p >.* n 9 &.).lXzXlXlXlXzXvX7.qXcXvXcXcXcXcXcXW.",
"lXxX7X*.! ! %XsXlXzXlXlXzXlXvXJ # Z O y.C.2 XXzXlXlXlXC.*.V P.gXlXlXzXzXzXzXzXY.X 1 4 9  XJ f >XzXzXzXeX*.*.%.+XiXzXlXcXcXcXlXzX",
"lXxX; 5 4 M M 1.sXzXzXlXlXlXcXlX.X>X&.w I . ).lXlXlXJ.V q & 4 J 9.cXzXvXlXlXzXzXrX.XeX% ' Y a >XlXzXvXW 6 2 * 4 %.;XlXcXvXlXcXzX",
"lXeX% ).> / >.o.2XlXzXkXL.cXcXcXJ.[.F.& n t.sXlXlXlX*.a D.* `.H 4.cXcXlXR.pXcXlXlX>.$XK O 7 [.lXvXzXdX$ t.! u D.K `.lXlXcXA.lXzX",
"lXF.1 |.% y.kX}.lXlXcXlXlXlXcXcX<.M % A 9 2XcXcXcXvXW i 1.8 .XrX#XcXcXlXcXlXlXcXcXV 3 4 o ` pXcXcXvXeX$ (.R p dX}.yXlXlXlXlXlXlX",
"lXwX, X * 3.gXlXlXcXcXcXlXlXlXlXlXF.}.:X( $XlXlXlXlX,.. * C 6XpXlXlXvXlXcXlXcXcXzXrX3.;XJ.' tXlXlXjXdXb $ & Q uXcXcXcXcXlXlXlXlX",
"lXkX>X[ 1 r %.#XlXlXlXcXlXlXlXcXcXcXlXlXlXcXlXlXlXlXdX{.N q A 0.sXlXzXzXlXlXlXcXlXzXvXvXzXxXlXxXlXcXdXaXO.X e Y 9.cXcXcXlXlXlXcX",
"Y.. >X<./ K.L ).cXlXpX%X>XlXlXcXN.R.lXlXcXcXlXW.zX*.~ cX; y.>.+.$XzXvXiX+XsXlXcXlXF kXlXlXlXlX<XtXpX#  XJ.9 OXH XXcXcXdX%X@XlXlX",
"Y.* Q : Z -.m oXlXlXb.v | cXlXlXW.pXcXjXlXcXzX,XvX*.n *.* ..J ` rXcXdXi.].5.lXcXzXR.lXlXlXzXxXtXkXdX  E Y ^ 2.# _.cXcX&Xc i.yXlX"
};
