/* XPM */
static char *result[] = {
/* columns rows colors chars-per-pixel */
"64 64 236 2 ",
"   c #07050C",
".  c #150306",
"X  c #060613",
"o  c #080715",
"O  c #070814",
"+  c #090915",
"@  c #0C0C1C",
"#  c #06091B",
"$  c #11111C",
"%  c #280304",
"&  c #310C0E",
"*  c #0B0E24",
"=  c #0B0F2B",
"-  c #0C122D",
";  c #0D1125",
":  c #131528",
">  c #0D1433",
",  c #0E193A",
"<  c #0D1639",
"1  c #121632",
"2  c #131B3C",
"3  c #151A36",
"4  c #22273A",
"5  c #372C3B",
"6  c #18223D",
"7  c #460406",
"8  c #570306",
"9  c #5B1B1F",
"0  c #640105",
"q  c #6A0307",
"w  c #740A10",
"e  c #562A2A",
"r  c #523130",
"t  c #652D2C",
"y  c #66362B",
"u  c #7A3C27",
"i  c #683836",
"p  c #773C38",
"a  c #6F2C33",
"s  c #661F22",
"d  c #794639",
"f  c #734836",
"g  c #0F1C41",
"h  c #141E43",
"j  c #181E43",
"k  c #151F49",
"l  c #1A1F49",
"z  c #152045",
"x  c #192146",
"c  c #16224C",
"v  c #1A244C",
"b  c #1F2C47",
"n  c #162552",
"m  c #1A2653",
"M  c #1B2955",
"N  c #1C2C5B",
"B  c #172857",
"V  c #1E315E",
"C  c #272B46",
"Z  c #212D5C",
"A  c #242C53",
"S  c #23315D",
"D  c #2B3759",
"F  c #343956",
"G  c #2B334E",
"H  c #1D2E61",
"J  c #1E3163",
"K  c #223364",
"L  c #23356A",
"P  c #26396D",
"I  c #2A3C6D",
"U  c #293865",
"Y  c #293E73",
"T  c #253C72",
"R  c #283665",
"E  c #4E374E",
"W  c #7E3F40",
"Q  c #374469",
"!  c #2D4173",
"~  c #2D437B",
"^  c #324474",
"/  c #32467C",
"(  c #344A7D",
")  c #3A4B7D",
"_  c #3A4976",
"`  c #374975",
"'  c #3E435E",
"]  c #554858",
"[  c #4B4856",
"{  c #6B4543",
"}  c #794944",
"|  c #7B5447",
" . c #705453",
".. c #74655B",
"X. c #454866",
"o. c #58586A",
"O. c #4A5979",
"+. c #52566F",
"@. c #5A647B",
"#. c #7A6A76",
"$. c #6F6972",
"%. c #684667",
"&. c #850209",
"*. c #98030C",
"=. c #960A12",
"-. c #8E1019",
";. c #AA0815",
":. c #AE0715",
">. c #86373D",
",. c #8B362B",
"<. c #A01222",
"1. c #88462A",
"2. c #874936",
"3. c #954B35",
"4. c #8B513C",
"5. c #97553A",
"6. c #98482E",
"7. c #A3573C",
"8. c #893C46",
"9. c #884A46",
"0. c #895849",
"q. c #995C47",
"w. c #8A5954",
"e. c #965050",
"r. c #A55B45",
"t. c #AD5655",
"y. c #9A624A",
"u. c #8D6257",
"i. c #93625B",
"p. c #986756",
"a. c #98745E",
"s. c #A8634A",
"d. c #AC6B53",
"f. c #A66958",
"g. c #B36C56",
"h. c #A9735D",
"j. c #B5755C",
"k. c #A55063",
"l. c #9A6766",
"z. c #8B7769",
"x. c #977766",
"c. c #88777A",
"v. c #906E72",
"b. c #A87765",
"n. c #B77966",
"m. c #AA7874",
"M. c #B87E75",
"N. c #AF6863",
"B. c #798076",
"V. c #8C8A7A",
"C. c #988879",
"Z. c #948B75",
"A. c #A8816E",
"S. c #B7856D",
"D. c #A98778",
"F. c #BA8D7A",
"G. c #B68776",
"H. c #BD917E",
"J. c #A8907C",
"K. c #C2836B",
"L. c #C48977",
"P. c #C5917D",
"I. c #344B83",
"U. c #364C85",
"Y. c #3C538C",
"T. c #3B5184",
"R. c #3A528E",
"E. c #445889",
"W. c #425B94",
"Q. c #4D5F90",
"!. c #596888",
"~. c #4A649D",
"^. c #546894",
"/. c #6F7189",
"(. c #5B73AB",
"). c #546CA7",
"_. c #647BAC",
"`. c #8A778A",
"'. c #A97B85",
"]. c #748298",
"[. c #768BB1",
"{. c #7B92C4",
"}. c #99979A",
"|. c #8F8B8E",
" X c #AC8A88",
".X c #B88D87",
"XX c #A89687",
"oX c #B79689",
"OX c #BA8B9A",
"+X c #BA9995",
"@X c #A88895",
"#X c #BBA48E",
"$X c #B8A597",
"%X c #AEA99A",
"&X c #9291A9",
"*X c #AD95AE",
"=X c #A6A4BB",
"-X c #B4B1AB",
";X c #C79786",
":X c #D19D8C",
">X c #C29694",
",X c #C88D86",
"<X c #C6A898",
"1X c #D7A798",
"2X c #C9B39C",
"3X c #D2A18B",
"4X c #C7ACA1",
"5X c #CAB6A8",
"6X c #C8BCB3",
"7X c #D0B3AD",
"8X c #E2B4A5",
"9X c #E8B6AB",
"0X c #C4C2BA",
"qX c #D9C9B8",
"wX c #D7C6B1",
"eX c #EEC3BB",
"rX c #B9B7D4",
"tX c #ACAAC8",
"yX c #BCBEEB",
"uX c #9EA5C6",
"iX c #C5B6CE",
"pX c #BBC1DD",
"aX c #C8C6C7",
"sX c #D6CCC4",
"dX c #DCD3C9",
"fX c #C6C5DA",
"gX c #DAD6D5",
"hX c #E2D8CC",
"jX c #EAE6D8",
"kX c #F1E6D3",
"lX c #C8C8E8",
"zX c #D6D8F7",
"xX c #CFD0EE",
"cX c #DCE4F7",
"vX c #EEF2F2",
"bX c None",
/* pixels */
"bXbXbXbXbXbXbXbXbXbXbXbXbXbXbXbXbXbXbXbXbXbXbXbXbXbXbXbXbX-XhXkXkXjXjXhXdXsX}.B.bXbXbXbXbXbXbXbXbXbXbXbXbXbXbXbXbXbXbXbXbXbXbXbX",
"bXbXbXbXbXbXbXbXbXbXbXbXbXbXbXbXbXbXbXbXbXbXbXbXbXbXbXbX0XkXvXvXjXhXdXsXsXdXhXjXsX-X|.bXbXbXbXbXbXbXbXbXbXbXbXbXbXbXbXbXbXbXbXbX",
"bXbXbXbXbXbXbXbXbXbXbXbXbXbXbXbXbXbXbXbXbXbXbXbXbXbXbX-XkXvXkXkXhXqX0X6X5X6XwXqXdXdXsX-X|.bXbXbXbXbXbXbXbXbXbXbXbXbXbXbXbXbXbXbX",
"bXbXbXbXbXbXbXbXbXbXbXbXbXbXbXbXbXbXbXbXbXbXbXbXbXbX0XjXkXkXkXhXqXwX5X4X4X4X4X5X6X0X6XsX0X%XbXbXbXbXbXbXbXbXbXbXbXbXbXbXbXbXbXbX",
"bXbXbXbXbXbXbXbXbXbXbXbXbXbXbXbXbXbXbXbXbXbXbXbXbX}.dXwXqXwXwXwX5X7X4X<X$X$X#X+X$X6X6X6XaX-X-X}.bXbXbXbXbXbXbXbXbXbXbXbXbXbXbXbX",
"bXbXbXbXbXbXbXbXbXbXbXbXbXbXbXbXbXbXbXbXbXbXbXbXbX%X5X2XwX2X2X5X5X4X4X$X+X+X#X+X$X$X5X-X5X0X0X-X}.bXbXbXbXbXbXbXbXbXbXbXbXbXbXbX",
"bXbXbXbXbXbXbXbXbXbXbXbXbXbXbXbXbXbXbXbXbXbXbXbXbX#X#X2XwX2X2X2X7X2X2X+XoXXXoXoX$X$X%X-X-X%X-X0X-XbXbXbXbXbXbXbXbXbXbXbXbXbXbXbX",
"bXbXbXbXbXbXbXbXbXbXbXbXbXbXbXbXbXbXbXbXbXbXbXbXbX%X#X2X2X2X2X3X1X2X<X+XoX XoXXX#XXX#XXXXX#XXXXX%XV.bXbXbXbXbXbXbXbXbXbXbXbXbXbX",
"bXbXbXbXbXbXbXbXbXbXbXbXbXbXbXbXbXbXbXbXbXbXbXbXV.$X2X<XH.H.oX<X<X;XoX;XoXJ.J. XoXXXXXXXXXJ.J.C.XXV.bXbXbXbXbXbXbXbXbXbXbXbXbXbX",
"bXbXbXbXbXbXbXbXbXbXbXbXbXbXbXbXbXbXbXbXbXbXbXbX-X#XJ.J.J.oXoXoX.XF.F.oXH.J.D.D.J.D.A.C.C.C.Z.C.|.V.bXbXbXbXbXbXbXbXbXbXbXbXbXbX",
"bXbXbXbXbXbXbXbXbXbXbXbXbXbXbXbXbXbXbXbXbXbXbXXXJ.Z.J.oX#XoXF.H.H.F.S.S.S.S.A.A.D.x.x.x.Z.x.C.C.Z.bXbXbXbXbXbXbXbXbXbXbXbXbXbXbX",
"bXbXbXbXbXbXbXbXbXbXbXbXbXbXbXbXbXbXbXbXbXbXbXXX#XJ.A.oXoXoXF.;XH.H.S.G.S.S.A.A.b.x.x.x.x.z.z.C.V.bXbXbXbXbXbXbXbXbXbXbXbXbXbXbX",
"bXbXbXbXbXbXbXbXbXbXbXbXbXbXbXbXbXbXbXbXbXbXbXoX2XJ.A.J.#XH.F.H.F.F.S.S.A.A.D.A.a.a.p.a.z.z.z.V.V.bXbXbXbXbXbXbXbXbXbXbXbXbXbXbX",
"bXbXbXbXbXbXbXbXbXbXbXbXbXbXbXbXbXbXbXbXbXbXbX.XS.A.A.G.XXH.F.F.S.S.A.j.A.h.h.y.y.p.a.a.z.z.z.V.bXbXbXbXbXbXbXbXbXbXbXbXbXbXbXbX",
"bXbXbXbXbXbXbXbXbXbXbXbXbXbXbXbXbXbXbXbXbXbXbXf.f.x.A.x.G.P.P.P.P.K.K.K.d.7.7.y.5.y.y.0.0.....V.bXbXbXbXbXbXbXbXbXbXbXbXbXbXbXbX",
"bXbXbXbXbXbXbXbXbXbXbXbXbXbXbXbXbXbXbXbXbXbXbXt.n.m.D.F.3X3X3X3XP.S.h.s.g.s.7.7.s.s.y.y.4.f ..bXbXbXbXbXbXbXbXbXbXbXbXbXbXbXbXbX",
"bXbXbXbXbXbXbXbXbXbXbXbXbXbXbXbXbXbXbXbXbXbXbXn.t.>.,X;XP.P.P.P.;X;XoXL.f.3.3.7.s.6.5.y.0.f #.bXbXbXbXbXbXbXbXbXbXbXbXbXbXbXbXbX",
"bXbXbXbXbXbXbXbXbXbXbXbXbXbXbXbXbXbXbXbXbXbXbXL.t.M.8X;Xj.S.S.A.b.u.0.d 9.2.6.5.y.a.A.y.| f ..bXbXbXbXbXbXbXbXbXbXbXbXbXbXbXbXbX",
"bXbXbXbXbXbXbXbXbXbXbXbXbXbXbXbXbXbXbXbXbXbXbX,Xn.n.;XK.j.L.j.p.u.f f y y 6.1.9 y f | a.|  .#.bXbXbXbXbXbXbXbXbXbXbXbXbXbXbXbXbX",
"bXbXbXbXbXbXbXbXbXbXbXbXbXbXbXbXbXbXbXbXbXbXbXOX,Xj.,XL.n.P.K.j.4.d d 3.5.g.q.d | r y | | V.bXbXbXbXbXbXbXbXbXbXbXbXbXbXbXbXbXbX",
"bXbXbXbXbXbXbXbXbXbXbXbXbXbXbXbXbXbXbXbXbXbXO.aXN.M.;XP.S.g.j.j.S.h.b.d.N.S.s.1.f 4.0.y.| bXbXbXbXbXbXbXbXbXbXbXbXbXbXbXbXbXbXbX",
"bXbXbXbXbXbXbXbXbXbXbXbXbXbXbXbXbXbXbXbXbX_.@.vXG.h.P.,XL.7.7.s.d.n.n.s.n.L.y.2.5.5.y.0.z.bXbXbXbXbXbXbXbXbXbXbXbXbXbXbXbXbXbXbX",
"bXbXbXbXbXbXbXbXbXbXbXbXbXbXbXbXbXbXbXbXE.Q.@.vX1XS.P.P.K.s.6.7.s.g.7.3.L.L.y.1.7.5.5.4.bXbXbXbXbXbXbXbXbXbXbXbXbXbXbXbXbXbXbXbX",
"bXbXbXbXbXbXbXbXbXbXbXbXbXbXbXbXbXbXbXF E.O.@.vXhXS.j.K.j.d.j.s.7.6.1.h.P.n.f.6.7.6.f | bXbXbXbXbXbXbXbXbXbXbXbXbXbXbXbXbXbXbXbX",
"bXbXbXbXbXbXbXbXbXbXbXbXbXbXbXbXbXbX^.A E.I G vXvXXXy.h.g.j.S.s.6.6.d.u 2.2.4.,.5.3.f bXbXbXbXbXbXbXbXbXbXbXbXbXbXbXbXbXbXbXbXbX",
"bXbXbXbXbXbXbXbXbXbXbXbXbXbXbXbXbX(.I S ^ I N =XvXlX0.s.j.S.K.7.s.d.n.h.0.d 5.1.3.1.0.bXbXbXbXbXbXbXbXbXbXbXbXbXbXbXbXbXbXbXbXbX",
"bXbXbXbXbXbXbXbXbXbXbXbXbXbXbX].(.Y R Z Y I S X.vXcXc.y.S.K.d.s.5.y.h.j.p.5.5.3.1.2.$.bXbXbXbXbXbXbXbXbXbXbXbXbXbXbXbXbXbXbXbXbX",
"bXbXbXbXbXbXbXbXbXbXbXbXbXbX[.(./ I Z Z U K N v uXcXfXw.d.s.5.1.q.y.i.9.2.1.f 1.4.f U ) [.bXbXbXbXbXbXbXbXbXbXbXbXbXbXbXbXbXbXbX",
"bXbXbXbXbXbXbXbXbXbXbXbXbX[._.W.R N A v N Z N v Q cXzX&X4.1.1.5.5.3.d 2.2.d u 1.2.E B J T !.].bXbXbXbXbXbXbXbXbXbXbXbXbXbXbXbXbX",
"bXbXbXbXbXbXbXbXbXbXbXbX{._.~.( P A M j A v Z v h |.zXyXv.f 4.s.j.n.j.d.5.1.1.u i K V V J ! ^ ) bXbXbXbXbXbXbXbXbXbXbXbXbXbXbXbX",
"bXbXbXbXbXbXbXbXbXbX].{.(.~.Y.! K v x j x v m v x C rXlXuXE r 0.d.r.r.t.5.s.1.y G L J N V J ! B ` bXbXbXbXbXbXbXbXbXbXbXbXbXbXbX",
"bXbXbXbXbXbXbXbXbX[.[.).Y./ P L Z v j j h v n v z 2 o.lXlX=X .i p 2.3.3.4.f e G J J J J B J T P 6 /.bXbXbXbXbXbXbXbXbXbXbXbXbXbX",
"bXbXbXbXbXbXbXbX{.(.~.R.Y P L Z A v j 2 2 m c v v j 3 uXxXxX=X .r e e e W /.: L M V K J N N K P h D bXbXbXbXbXbXbXbXbXbXbXbXbXbX",
"bXbXbXbXbXbXbX[.).~.R.I.Y P K H N A x 2 2 v c v m v 1 [ xXzXlX*X#.r 7 8 8.uXC A V F M S K N N K Z j bXbXbXbXbXbXbXbXbXbXbXbXbXbX",
"bXbXbXbXbXbX[.(.).R./ Y Y P H Z m m x 2 2 h v v v k 2 1 &XzXzXxXfX>.&.w -.*X+.2 A ] /.S K Z M N L 2 O.bXbXbXbXbXbXbXbXbXbXbXbXbX",
"bXbXbXbXbX].(.(.W.R.I.Y L K Z N N v j h 2 > > x j 2 6 2 F zXzXzX`.8 q &.&.v.&X2 D F <XX.K N N N S N F bXbXbXbXbXbXbXbXbXbXbXbXbX",
"bXbXbXbXbX_.(.Y.I.Y T L K K N N N v C h z z 2 - 2 j h 2 h &XcXiX`.W 8 &.=.`.=XE A Z v F K N N B M V v bXbXbXbXbXbXbXbXbXbXbXbXbX",
"bXbXbXbXbX~.~ L H K K L L H Z N m m v x x z z k x j h j g E lX&X&X*Xa &.=.@X=X&X3 Z N m N Z N N M N v ].bXbXbXbXbXbXbXbXbXbXbXbX",
"bXbXbXbX!.Y I R K H N H Z H Z N N m v v z h m v x x j k h h |.iXrXtX8.&.;.>XyXrXC A N N N K m N M M N O.bXbXbXbXbXbXbXbXbXbXbXbX",
"bXbXbXbX^ H K K H N B m N N N B M M m v x , 2 z z z h z k k X.lXzX*X8.*.*.t.xXlX@.j Z m N S Z m N m N M ].bXbXbXbXbXbXbXbXbXbXbX",
"bXbXbX!.! P N 2 2 h x m N N B m m m m m v h 1 l k k z v x j 2 rXzXlX8.:.*.;.iXzXuX2 Z m m Z N Z m N N m 6 bXbXbXbXbXbXbXbXbXbXbX",
"bXbXbXO.Y V n v z g h k m m m B m N N m v v h 2 j k j z v v l @.zXzX'.:.*.;.k.xXxXF A N n n N Z A l m N = @.bXbXbXbXbXbXbXbXbXbX",
"bXbXbX` S I ~ ! P J M B z k c n v m m N m v l h h k l k v c v v yXzX*X:.*.;.=.iXzX/.h A +.#.#.@X@Xo.G l - D bXbXbXbXbXbXbXbXbXbX",
"bXbX^.U 3 1 2 M L T T J n c g h m m m B m m c n 2 z n k c c v l `.xXiX<.:.;.*.'.zXuX[ OX<X@X$X>XoX>X+X@X#.A !.bXbXbXbXbXbXbXbXbX",
"bXbX^.U A v 6 3 > , N c k m H H N m c m Z m v m k 2 m m v m m c _ cXzX>.:.:.*.p iXyX'.OXm.oX>X'.>XoXoX,X>Xc.U bXbXbXbXbXbXbXbXbX",
"bXbXW./ ^ ^ P L J N z 2 x , = < h z c n m N M m v g l n m c c l l tXzXOX:.:.*.q '.*Xm.m.i.m.m.b.>X>Xm.OX>X.XF Q bXbXbXbXbXbXbXbX",
"bXbXE.Q U ^ / P N m h , , 2 l 2 = , h h m N M v m l 2 c l m n v k !.xXlX<.*.*.q '.l.i.G.w.i.l.N.m.b.G.,XD.'.$.z O.bXbXbXbXbXbXbX",
"bXbXT.) A M U ! J B B c h < - < 2 = 2 1 k m M M n m h k m c k v l A lXzXk.&.&.8 a w.9.l.w.i.p.i.i.e.i.l.} 9.l.V ! /.bXbXbXbXbXbX",
"bXbX) T.) I M z v S L L J N n k g h > > , n M M m m m h m m v m l h *XxX7Xt.t.>.9 i W { 9.d 9.w.i.9.i.w.p w.l.X.K I @.bXbXbXbXbX",
"bXbX( E.E.Y.T.! K L J N v n B B B n k = > c n M m m M c h n l z l o.eX9X9XhX9XhXOX} i W v.e e r W t f i p w.l.] m 2 , x G bXbXbX",
"bXbX( ) S U ^ ( ( ~ ! ! T H n k g k m < * h v m m N m M k v m c X.7X8X8X1X8X1X,Xn.m.w.e a d 8.a t a a p 8.8.w.m.I H h 2 x Q bXbX",
"bXbX( T.( M x z z z z g c N J J H c , h # , c n m m m B v 2 m l v.9X:X1X9X8X1X1XG.9.r r e W 9.9.e.t.8.e.9.W w.v.`.N m v 6 o.bXbX",
"bXbX( T.W.U.Y Z N B B B n n n B N J c h * > g n m m m m m k h k 4X8X1X1X1X:X:X:Xm.y & r 5 & i } >.9.9.>.>.>.9.v.}.6 M z U +.bXbX",
"bXbXI./ Q D I ( I.I.I.~ T J J H H J N > * > g c m m M m m v > C 8X1X1X1X1X1X1Xf.w.t 7 . [ O   & e t y e y i } w.|.4 v z M D bXbX",
"bXbX/ I ( I U I J ! ~ ~ T B n B B z c z * - , c c m m m N m k c.8X1X,X;XK.G.G.w.y.s 8 % 5 : O   @ ] { r i {  .{ }.4 ; z , M bXbX",
"bXbX^ S Y T._ ^ I P J J N H N B M n z x > - , z k z m m c n k m.K.:X1X1X1Xf.0.w.9.0 0 7 & 3 ;     $ [ &X}.#.v.] $.@.4 1 z z G bX",
"bXbX! I S ) ( ^ ~ ! ! J J c g g n H N v > = > , h x h h h h 2 i.t.F.L.S.M.x.u.w.>.8 q 8 % $ - @ X # O o C o.$./.`.xXcXo.6 z , bX",
"bXbX( U S ) ( ( ~ ( ~ V n k B J H n g z < * > 3 , 2 , < j R O.x.p.b.9.f 2.p.p.l.a q 0 0 7 . : = + o o X O O 4 o.o./.&X5 O 6 - bX",
"bXbX( ! M Q ) T.Y.~ n z J J H c g g c g - O - , M U ^ Y.W.Q.rXD.p.p.9.i i d | v.E w 0 q 8 . @ 1 @ X o o O o o O $ 4 4 +   ; ; bX",
"bXbXY.! M N Y.W.( g z I.T c V N L L I.H ! ! L W.~.~.W.W.Y.&X6XF.b.e.0.0.i.e. .&XX.9 q 0 8 %   1 - O X # o o O X O O   O @ $ ; bX",
"bXbX! S M z T.E.2 M W.~ > v V P n T R.T U.I.R.W.R.U.R.U.^ aX4X;X0.9.9.9.i.w.*XrX`.E w 0 0 7 . : 1 *   O o o o + O O O ; : @ $ bX",
"bXbXI M v j _ K N Y.Y - z L c < T I.I.T I.Y.R.~ ! ~ ~ P ! gX1X.X0.p d }  .5 !.yX`./.s q 0 8 . $ 2 1 O   o + + X O O O : - @ bXbX",
"bXbXD S z - b L I.( - 2 I.c > ~ I.J I.I.Y U.P N ~ P n N D gX.Xb.0.9.i { 5 , D xXuX_.%.w 0 0 % + 2 2 *     + @ @ + O @ ; $ $ bXbX",
"bXbXF U N N L ( ` M < ~ L < J U.H T T T Y J N Z P h x V v rXXXi.| f r |., 2 6 yXxXyX&X-.q 0 7   : g >   X O   + @ $ @ $ $ bXbXbX"
};
