/* XPM */
static char *result[] = {
/* columns rows colors chars-per-pixel */
"64 64 216 2 ",
"   c #050505",
".  c #06060B",
"X  c #09060C",
"o  c #05080C",
"O  c #0B0B0D",
"+  c #090604",
"@  c #120A05",
"#  c #060A13",
"$  c #0B0C13",
"%  c #0A0D1A",
"&  c #060814",
"*  c #130D13",
"=  c #120E1B",
"-  c #150610",
";  c #0D121B",
":  c #0C1013",
">  c #131214",
",  c #13151C",
"<  c #1A1A1C",
"1  c #181110",
"2  c #39171B",
"3  c #240D10",
"4  c #21201E",
"5  c #0F1526",
"6  c #0E152B",
"7  c #0C1926",
"8  c #121522",
"9  c #141A26",
"0  c #161B2B",
"q  c #1A1E2C",
"w  c #171A26",
"e  c #181F34",
"r  c #0D132A",
"t  c #311F29",
"y  c #0D212F",
"u  c #1D2229",
"i  c #1A233A",
"p  c #1B2437",
"a  c #222125",
"s  c #22232C",
"d  c #2C2B2C",
"f  c #282524",
"g  c #232934",
"h  c #252B3C",
"j  c #282935",
"k  c #332A36",
"l  c #2E3439",
"z  c #313131",
"x  c #39363B",
"c  c #46231B",
"v  c #491525",
"b  c #631F30",
"n  c #482B27",
"m  c #4E3131",
"M  c #543733",
"N  c #50282B",
"B  c #723A2E",
"V  c #574237",
"C  c #664739",
"Z  c #754638",
"A  c #7B593F",
"S  c #172344",
"D  c #262D47",
"F  c #2A3245",
"G  c #2C344C",
"H  c #27324B",
"J  c #323543",
"K  c #343C4E",
"L  c #333946",
"P  c #2A3453",
"I  c #2D3957",
"U  c #333C53",
"Y  c #323D5A",
"T  c #353852",
"R  c #323C60",
"E  c #543D52",
"W  c #3E434B",
"Q  c #3D455B",
"!  c #374054",
"~  c #374463",
"^  c #3E4C65",
"/  c #3E4E6A",
"(  c #3B4566",
")  c #3E4C6E",
"_  c #424244",
"`  c #45454A",
"'  c #5A4B42",
"]  c #464B55",
"[  c #575657",
"{  c #554F52",
"}  c #6E5350",
"|  c #7A645D",
" . c #444B66",
".. c #424C6B",
"X. c #4B4F6C",
"o. c #4C5463",
"O. c #45526B",
"+. c #4C586C",
"@. c #565D6D",
"#. c #575B64",
"$. c #434E71",
"%. c #465374",
"&. c #4B5675",
"*. c #4B557A",
"=. c #4E5A7C",
"-. c #4E5974",
";. c #555D76",
":. c #596266",
">. c #5C6372",
",. c #5A657B",
"<. c #54627B",
"1. c #676568",
"2. c #786C69",
"3. c #6A6E72",
"4. c #767678",
"5. c #991F30",
"6. c #A71835",
"7. c #842637",
"8. c #C2103D",
"9. c #8B553D",
"0. c #854E3E",
"q. c #813845",
"w. c #AB3549",
"e. c #D71A4A",
"r. c #CF2E52",
"t. c #D02D4C",
"y. c #855D52",
"u. c #924C50",
"i. c #A4434F",
"p. c #986B57",
"a. c #8D654C",
"s. c #A96952",
"d. c #B65770",
"f. c #8B766E",
"g. c #87706D",
"h. c #B57F6A",
"j. c #D34A5E",
"k. c #C8586B",
"l. c #D46E7C",
"z. c #EC667A",
"x. c #B8987F",
"c. c #B3866E",
"v. c #505E83",
"b. c #536183",
"n. c #5A6A8A",
"m. c #5A6786",
"M. c #5B708F",
"N. c #636D84",
"B. c #616D8D",
"V. c #667186",
"C. c #727584",
"Z. c #777889",
"A. c #626E96",
"S. c #697699",
"D. c #717E96",
"F. c #6C7AA3",
"G. c #6977A4",
"H. c #737FAA",
"J. c #877B8B",
"K. c #D17783",
"L. c #F67B8D",
"P. c #7D8395",
"I. c #7E8B99",
"U. c #7685AC",
"Y. c #7987B0",
"T. c #6F80A6",
"R. c #868286",
"E. c #838996",
"W. c #8B929F",
"Q. c #9A8F8E",
"!. c #A69996",
"~. c #AE8C8F",
"^. c #B2A28B",
"/. c #8692A2",
"(. c #8A95A6",
"). c #969AA7",
"_. c #8490BC",
"`. c #9FA1B0",
"'. c #9BA3AF",
"]. c #AAA4A0",
"[. c #B2A9A8",
"{. c #A4A9B9",
"}. c #AAB1BB",
"|. c #B7B7BF",
" X c #DF8D9F",
".X c #CA9191",
"XX c #CAA68F",
"oX c #C2AE95",
"OX c #CF9EAF",
"+X c #DE93A4",
"@X c #C2B4A6",
"#X c #D3AEB3",
"$X c #EBA9B1",
"%X c #E7B6B7",
"&X c #EEB1B6",
"*X c #CDC2BB",
"=X c #B3B6C3",
"-X c #B5BCC5",
";X c #B8BDC7",
":X c #CFBEC6",
">X c #F5BEC4",
",X c #BDC4CC",
"<X c #C5C4C7",
"1X c #C2C3D7",
"2X c #CED6DC",
"3X c #D2D6DC",
"4X c #DDC6CD",
"5X c #E8CFD1",
"6X c #DBDCE7",
"7X c #DFE3E8",
"8X c #E8E5EA",
"9X c #F3EFEC",
"0X c #F5F3F4",
"qX c #F9F8F9",
"wX c #F0EDF1",
"eX c None",
/* pixels */
"eXeXeXeXeXeXeXeXeXeXeXeXeXeXeXeXeXeXeXeXeXeXeXeXeXeXeXeXeXeXeXeXeXeXeXeXeXeXeXeXeXeXeXeXeXeXeXeXeXeXeXeXeXeXeXeXeXeXeXeXeXeXeXeX",
"eXeXeXeXeXeXeXeXeXeXeXeXeXeXeXeXeXeXeXeXeXeXeXeXeXeXeXeXeXeXeXeXeXeXeXeXeXeXeXeXeXeXeXeXeXeXeXeXeXeXeXeXeXeXeXeXeXeXeXeXeXeXeXeX",
"eXeXeXeXeXeXeXeXeXeXeXeXeXeXeXeXeXeXeXeXeXeXeXeXeXeXeXeXeXeXeXeXeXeXeXeXeXeXeX@X].eXeXeXeXeXeXeXeXeXeXeXeXeXeXeXeXeXeXeXeXeXeXeX",
"eXeXeXeXeXeXeXeXeXeXeXeXeXeXeXeXeXeXeXeXeXeXeXeXeXeXeXeXeXeXeXeXeXeXeXeXeXeXg.} | eXeXeXeXeXeXeXeXeXeXeXeXeXeXeXeXeXeXeXeXeXeXeX",
"eXeXeXeXeXeXeXeXeXeXeXeXeXeXeXeXeXeXeXeXeXeXeXeXeXeXeXeXeXeXeXeXeXeXeXeXeXeX2.f.2.eXeXeXeXeXeXeXeXeXeXeXeXeXeXeXeXeXeXeXeXeXeXeX",
"eXeXeXeXeXeXeXeXeXeXeXeXeXeXeXeXeXeXeXeXeXeXeXeXeXeXeXeXeXeXeXeXeXeXeXeXeXeXeX!.f.*XeXeXeXeXeXeXeXeXeXeXeXeXeXeXeXeXeXeXeXeXeXeX",
"eXeXeXeXeXeXeXeXeXeXeXeXeXeXeXeXeXeXeXeXeXeXeXeXeXeXeXeXeXeXeXeXeXeXeXeXeXeXeX9X#X).eXeXeXeXeXeXeXeXeXeXeXeXeXeXeXeXeXeXeXeXeXeX",
"eXeXeXeXeXeXeXeXeXeXeXeXeXeXeXeXeXeXeXeXeXeXeXeXeXeXeX@X^.oXeXeXeXeXeXeXeXeXeX<XR.R.1.eXeXeXeXeXeXeXeXeXeXeXeXeXeXeXeXeXeXeXeXeX",
"eXeXeXeXeXeXeXeXeXeXeXeXeXeXeXeXeXeXeXeXeXeXeXeXeXeX@XXXXXp.a.Q.eXeXeXeXeXeXeX;Xg % > eXeXeXeXeXeXeXeXeXeXeXeXeXeXeXeXeXeXeXeXeX",
"eXeXeXeXeXeXeXeXeXeXeXeXeXeXeXeXeXeXeXeXeXeXeXeXeXeX*Xx.c.s.a.V eXeXeXeXeXeXeX,XG % < eXeXeXeXeXeXeXeXeXeXeXeXeXeXeXeXeXeXeXeXeX",
"eXeXeXeXeXeXeXeXeXeXeXeXeXeXeXeXeXeXeX' eXeXeXeXeXeXeXx.c.c.9.C Q.eXeXeXeXeXeX=XG % a eXeXeXeXeXeXeXeXeXeXeXeXeXeXeXeXeXeXeXeXeX",
"eXeXeXeXeXeXeXeXeXeXeXeXeXeXeXeXeXeX} 2.eXeXeXeXeXeXeX.Xp.9.B B R.eXeX,XP.=X2XC.G # d eXeXeXeXeXeXeXeXeXeXeXeXeXeXeXeXeXeXeXeXeX",
"eXeXeXeXeXeXeXeXeXeXeXeXeXeXeXeXeXeX} 2.eXeXeXeXeXeXeX~.| A Z N [.<XW ^ v.G ,.&.D # z eXeXeXeXeXeXeXeXeXeXeXeXeXeXeXeXeXeXeXeXeX",
"eXeXeXeXeXeXeXeXeXeXeXeXeXeXeXeXeXeX!.].eXeXeXeXeXeXeX5X.Xh.Z { 1.j # &.T.I Q F 8 O eXeXeXeXeXeXeXeXeXeXeXeXeXeXeXeXeXeXeXeXeXeX",
"eXeXeXeXeXeXeXeXeXeXeXeXeXeXeXeXeXeX1.` eXeXeXeXeX2X|.).g.| b 4.Q 0 P n.T.H 7 ; , eXeXeXeXeXeXeXeXeXeXeXeXeXeXeXeXeXeXeXeXeXeXeX",
"eXeXeXeXeXeXeXeXeXeXeXeXeXeXeXeXeX> % , eXeXeXeXo.Q P @.W.[.B J.-XQ / M.m.! # d eXeXeXeXeXeXeXeXeXeXeXeXeXeXeXeXeXeXeXeXeXeXeXeX",
"eXeXeXeXeXeXeXeXeXeXeXeXeXeXeXeXeXx 9 ; eXeXeX@.O.~ O.~ -X5Xi.4XwX,X^ =.&.P 8 eXeXeXeXeXeXeXeXeXeXeXeXeXeXeXeXeXeXeXeXeXeXeXeXeX",
"eXeXeXeXeXeXeXeXeXeXeXeXeXeXeXeXeXeXg 7 u W Q O.%.v.$.X.3X>X5.#X0X0XI.^ I D % eXeXeXeXeXeXeXeXeXeXeXeXeXeXeXeXeXeXeXeXeXeXeXeXeX",
"eXeXeXeXeXeXeXeXeXeXeXeXeXeXeXeXeXeXg 0 5 j e -.b.S.=.N.8X&X6.+XqXqX2X-.P i % eXeXeXeXeXeXeXeXeXeXeXeXeXeXeXeXeXeXeXeXeXeXeXeXeX",
"eXeXeXeXeXeXeXeXeXeXeXeXeXeXeXeXeXeXL 9 5 e % ,.M.v.<.W.9X$Xr..XqX7X,X/.! 6 8 s eXeXeXeXeXeXeXeXeXeXeXeXeXeXeXeXeXeXeXeXeXeXeXeX",
"eXeXeXeXeXeXeXeXeXeXeXeXeXeXeXeXeXeXeX, < $ 8 -.^ n.=.'.wX$Xj.K.0X3X}.(.] s % % eXeXeXeXeXeXeXeXeXeXeXeXeXeXeXeXeXeXeXeXeXeXeXeX",
"eXeXeXeXeXeXeXeXeXeXeXeXeXeXeXeXeXeXeXeXeXeXeXK / V.<.'.9X$Xz.K.qX7X}.P.C.x % & d eXeXeXeXeXeXeXeXeXeXeXeXeXeXeXeXeXeXeXeXeXeXeX",
"eXeXeXeXeXeXeXeXeXeXeXeXeXeXeXeXeXeXeXeXeXeX}.O.n.m.i =X0X%XL.l.0X6X{.E.:.f = % % 3.eXeXeXeXeXeXeXeXeXeXeXeXeXeXeXeXeXeXeXeXeXeX",
"eXeXeXeXeXeXeXeXeXeXeXeXeXeXeXeXeXeXeXeXeXeX).n.I K ! -XwX$XL.k.8X1X/.E.] w 2 v = 7 eXeXeXeXeXeXeXeXeXeXeXeXeXeXeXeXeXeXeXeXeXeX",
"eXeXeXeXeXeXeXeXeXeXeXeXeXeXeXeXeXeXeXeXeXeX(.! +.@.7 (.wX Xr.w.6X:XD.J.o.f @ 7.t e J eXeXeXeXeXeXeXeXeXeXeXeXeXeXeXeXeXeXeXeXeX",
"eXeXeXeXeXeXeXeXeXeXeXeXeXeXeXeXeXeXeXeXeXeX,.<.W.l , C.wX+Xe.6.:X=XC.C.] < + 3 3 % 8 #.eXeXeXeXeXeXeXeXeXeXeXeXeXeXeXeXeXeXeXeX",
"eXeXeXeXeXeXeXeXeXeXeXeXeXeXeXeXeXeXeXeXeXeXN./.Q O < C.6X+Xe.6.!.).;.] a   X & X   # p >.eXeXeXeXeXeXeXeXeXeXeXeXeXeXeXeXeXeXeX",
"eXeXeXeXeXeXeXeXeXeXeXeXeXeXeXeXeXeXeXeXeXU.D.>.O o : [ :XOXe.6.u.-.k $ .     . X 5 , o $ ] eXeXeXeXeXeXeXeXeXeXeXeXeXeXeXeXeXeX",
"eXeXeXeXeXeXeXeXeXeXeXeXeXeXeXeXeXeXeXeXeX,.@.%       * x } r.e.b > - o X . . . : q s O > ] ` eXeXeXeXeXeXeXeXeXeXeXeXeXeXeXeXeX",
"eXeXeXeXeXeXeXeXeXeXeXeXeXeXeXeXeXeXeXeXeXo.,       X % j k d.k.2 o $ : & 8 . 4 eXeXeX_ eXeXeXeXeXeXeXeXeXeXeXeXeXeXeXeXeXeXeXeX",
"eXeXeXeXeXeXeXeXeXeXeXeXeXeXeXeXeXeXeXeX3.; .     : , 7 Y X.E N X o $ O w s L eXeXeXeXeXeXeXeXeXeXeXeXeXeXeXeXeXeXeXeXeXeXeXeXeX",
"eXeXeXeXeXeXeXeXeXeXeXeXeXeXeXeXeXeXeXeX4 o .     : h Q T T T w O X # % ; , eXeXeXeXeXeXeXeXeXeXeXeXeXeXeXeXeXeXeXeXeXeXeXeXeXeX",
"eXeXeXeXeXeXeXeXeXeXeXeXeXeXeXeXeXeXeX4..   X o     w F  .T g X . . $ q % l eXeXeXeXeXeXeXeXeXeXeXeXeXeXeXeXeXeXeXeXeXeXeXeXeXeX",
"eXeXeXeXeXeXeXeXeXeXeXeXeXeXeXeXeXeXeX`     : 1 > 5 -.=.R R  .G q q T $.i l eXeXeXeXeXeXeXeXeXeXeXeXeXeXeXeXeXeXeXeXeXeXeXeXeXeX",
"eXeXeXeXeXeXeXeXeXeXeXeXeXeXeXeXeXeXeX_ x eXeXeXeXo.v./ T e h 0 9 G A.v.S h eXeXeXeXeXeXeXeXeXeXeXeXeXeXeXeXeXeXeXeXeXeXeXeXeXeX",
"eXeXeXeXeXeXeXeXeXeXeXeXeXeXeXeXeXeXeXeXeXeXeXeXeXV.G.%.G w &   w ..H.m.S J eXeXeXeXeXeXeXeXeXeXeXeXeXeXeXeXeXeXeXeXeXeXeXeXeXeX",
"eXeXeXeXeXeXeXeXeXeXeXeXeXeXeXeXeXeXeXeXeXeXeXeXeXN.F.) D w X g G N.Y.b.y eXeXeXeXeXeXeXeXeXeXeXeXeXeXeXeXeXeXeXeXeXeXeXeXeXeXeX",
"eXeXeXeXeXeXeXeXeXeXeXeXeXeXeXeXeXeXeXeXeXeXeXeXeXB.Y.) D 8 a eXD *.F.$.6 eXeXeXeXeXeXeXeXeXeXeXeXeXeXeXeXeXeXeXeXeXeXeXeXeXeXeX",
"eXeXeXeXeXeXeXeXeXeXeXeXeXeXeXeXeXeXeXeXeXeXeXeXeXS.Y.) p $ eXeXT %.H...6 eXeXeXeXeXeXeXeXeXeXeXeXeXeXeXeXeXeXeXeXeXeXeXeXeXeXeX",
"eXeXeXeXeXeXeXeXeXeXeXeXeXeXeXeXeXeXeXeXeXeXeXeX`.G.Y.~ e s eXeX>.=.H.R 5 eXeXeXeXeXeXeXeXeXeXeXeXeXeXeXeXeXeXeXeXeXeXeXeXeXeXeX",
"eXeXeXeXeXeXeXeXeXeXeXeXeXeXeXeXeXeXeXeXeXeXeXeXD.Y.S.Y 0 eXeXeXeX*.H.I 5 eXeXeXeXeXeXeXeXeXeXeXeXeXeXeXeXeXeXeXeXeXeXeXeXeXeXeX",
"eXeXeXeXeXeXeXeXeXeXeXeXeXeXeXeXeXeXeXeXeXeXeXeXm._.n.i 5 eXeXeXeX*.G.P 8 eXeXeXeXeXeXeXeXeXeXeXeXeXeXeXeXeXeXeXeXeXeXeXeXeXeXeX",
"eXeXeXeXeXeXeXeXeXeXeXeXeXeXeXeXeXeXeXeXeXeXeXeX+.<.P # % 8 eXeXeX*.A.P 0 eXeXeXeXeXeXeXeXeXeXeXeXeXeXeXeXeXeXeXeXeXeXeXeXeXeXeX",
"eXeXeXeXeXeXeXeXeXeXeXeXeXeXeXeXeXeXeXeXeXeXeXeX>.0 : . # X eXeXeX( v.) p eXeXeXeXeXeXeXeXeXeXeXeXeXeXeXeXeXeXeXeXeXeXeXeXeXeXeX",
"eXeXeXeXeXeXeXeXeXeXeXeXeXeXeXeXeXeXeXeXeXeXeXeXeX4.d @ o z eXeXeXG D h % eXeXeXeXeXeXeXeXeXeXeXeXeXeXeXeXeXeXeXeXeXeXeXeXeXeXeX",
"eXeXeXeXeXeXeXeXeXeXeXeXeXeXeXeXeXeXeXeXeXeXeXeXeXeXeX{ + eXeXeXeX$ , & X eXeXeXeXeXeXeXeXeXeXeXeXeXeXeXeXeXeXeXeXeXeXeXeXeXeXeX",
"eXeXeXeXeXeXeXeXeXeXeXeXeXeXeXeXeXeXeXeXeXeXeXeXeXeXeXC @ eXeXeX` * ,   X eXeXeXeXeXeXeXeXeXeXeXeXeXeXeXeXeXeXeXeXeXeXeXeXeXeXeX",
"eXeXeXeXeXeXeXeXeXeXeXeXeXeXeXeXeXeXeXeXeXeXeXeXeXeXeX0.c eXeXeXeX> X O # eXeXeXeXeXeXeXeXeXeXeXeXeXeXeXeXeXeXeXeXeXeXeXeXeXeXeX",
"eXeXeXeXeXeXeXeXeXeXeXeXeXeXeXeXeXeXeXeXeXeXeXeXeXeXeXu.c eXeXeXeXO X   w eXeXeXeXeXeXeXeXeXeXeXeXeXeXeXeXeXeXeXeXeXeXeXeXeXeXeX",
"eXeXeXeXeXeXeXeXeXeXeXeXeXeXeXeXeXeXeXeXeXeXeXeXeXeXeXf.} eXeXeXeX:     z eXeXeXeXeXeXeXeXeXeXeXeXeXeXeXeXeXeXeXeXeXeXeXeXeXeXeX",
"eXeXeXeXeXeXeXeXeXeXeXeXeXeXeXeXeXeXeXeXeXeXeXeXeXeXeXeXeXeXeXeXeXO     eXeXeXeXeXeXeXeXeXeXeXeXeXeXeXeXeXeXeXeXeXeXeXeXeXeXeXeX",
"eXeXeXeXeXeXeXeXeXeXeXeXeXeXeXeXeXeXeXeXeXeXeXeXeXeXeXeXeXeXeXeXeXO O   eXeXeXeXeXeXeXeXeXeXeXeXeXeXeXeXeXeXeXeXeXeXeXeXeXeXeXeX",
"eXeXeXeXeXeXeXeXeXeXeXeXeXeXeXeXeXeXeXeXeXeXeXeXeXeXeXeXeXeXeXeXeXX .   eXeXeXeXeXeXeXeXeXeXeXeXeXeXeXeXeXeXeXeXeXeXeXeXeXeXeXeX",
"eXeXeXeXeXeXeXeXeXeXeXeXeXeXeXeXeXeXeXeXeXeXeXeXeXeXeXeXeXeXeXeXeX@ .   eXeXeXeXeXeXeXeXeXeXeXeXeXeXeXeXeXeXeXeXeXeXeXeXeXeXeXeX",
"eXeXeXeXeXeXeXeXeXeXeXeXeXeXeXeXeXeXeXeXeXeXeXeXeXeXeXeXeXeXeXeXeX3 . o eXeXeXeXeXeXeXeXeXeXeXeXeXeXeXeXeXeXeXeXeXeXeXeXeXeXeXeX",
"eXeXeXeXeXeXeXeXeXeXeXeXeXeXeXeXeXeXeXeXeXeXeXeXeXeXeXeXeXeXeXeXC n > eXeXeXeXeXeXeXeXeXeXeXeXeXeXeXeXeXeXeXeXeXeXeXeXeXeXeXeXeX",
"eXeXeXeXeXeXeXeXeXeXeXeXeXeXeXeXeXeXeXeXeXeXeXeXeXeXeXeXeXeXeXeXeXN f eXeXeXeXeXeXeXeXeXeXeXeXeXeXeXeXeXeXeXeXeXeXeXeXeXeXeXeXeX",
"eXeXeXeXeXeXeXeXeXeXeXeXeXeXeXeXeXeXeXeXeXeXeXeXeXeXeXeXeXeXeXeXeXM 4 eXeXeXeXeXeXeXeXeXeXeXeXeXeXeXeXeXeXeXeXeXeXeXeXeXeXeXeXeX",
"eXeXeXeXeXeXeXeXeXeXeXeXeXeXeXeXeXeXeXeXeXeXeXeXeXeXeXeXeXeXeXeXeXM 1 eXeXeXeXeXeXeXeXeXeXeXeXeXeXeXeXeXeXeXeXeXeXeXeXeXeXeXeXeX",
"eXeXeXeXeXeXeXeXeXeXeXeXeXeXeXeXeXeXeXeXeXeXeXeXeXeXeXeXeXeXeXeXeXZ 2 eXeXeXeXeXeXeXeXeXeXeXeXeXeXeXeXeXeXeXeXeXeXeXeXeXeXeXeXeX",
"eXeXeXeXeXeXeXeXeXeXeXeXeXeXeXeXeXeXeXeXeXeXeXeXeXeXeXeXeXeXeXeXeXy.M eXeXeXeXeXeXeXeXeXeXeXeXeXeXeXeXeXeXeXeXeXeXeXeXeXeXeXeXeX",
"eXeXeXeXeXeXeXeXeXeXeXeXeXeXeXeXeXeXeXeXeXeXeXeXeXeXeXeXeXeXeXeXeX2.2.eXeXeXeXeXeXeXeXeXeXeXeXeXeXeXeXeXeXeXeXeXeXeXeXeXeXeXeXeX",
"eXeXeXeXeXeXeXeXeXeXeXeXeXeXeXeXeXeXeXeXeXeXeXeXeXeXeXeXeXeXeXeXeXeXeXeXeXeXeXeXeXeXeXeXeXeXeXeXeXeXeXeXeXeXeXeXeXeXeXeXeXeXeXeX",
"eXeXeXeXeXeXeXeXeXeXeXeXeXeXeXeXeXeXeXeXeXeXeXeXeXeXeXeXeXeXeXeXeXeXeXeXeXeXeXeXeXeXeXeXeXeXeXeXeXeXeXeXeXeXeXeXeXeXeXeXeXeXeXeX"
};
