/* XPM */
static char *c7a196c57754427bb4c56d7b6083780eOMajR8widJJOLcd7[] = {
/* columns rows colors chars-per-pixel */
"64 64 194 2 ",
"   c None",
".  c black",
"X  c #010101",
"o  c #020202",
"O  c gray1",
"+  c #040404",
"@  c gray2",
"#  c #060606",
"$  c #070707",
"%  c gray3",
"&  c #090909",
"*  c gray4",
"=  c #0B0B0B",
"-  c #0C0C0C",
";  c gray5",
":  c #0E0E0E",
">  c gray6",
",  c #101010",
"<  c #111111",
"1  c gray7",
"2  c #131313",
"3  c gray8",
"4  c #151515",
"5  c #161616",
"6  c gray9",
"7  c #191919",
"8  c gray10",
"9  c #1B1B1B",
"0  c gray11",
"q  c #1D1D1D",
"w  c #1E1E1E",
"e  c gray12",
"r  c #202020",
"t  c gray13",
"y  c #222222",
"u  c #232323",
"i  c gray14",
"p  c #252525",
"a  c gray15",
"s  c #272727",
"d  c #282828",
"f  c gray16",
"g  c #2A2A2A",
"h  c gray17",
"j  c #2C2C2C",
"k  c #2D2D2D",
"l  c gray18",
"z  c #2F2F2F",
"x  c gray19",
"c  c #313131",
"v  c #323232",
"b  c gray20",
"n  c #353535",
"m  c gray21",
"M  c #373737",
"N  c gray22",
"B  c #393939",
"V  c gray23",
"C  c #3F3F3F",
"Z  c gray25",
"A  c gray26",
"S  c #434343",
"D  c #464646",
"F  c gray28",
"G  c gray29",
"H  c #4C4C4C",
"J  c gray30",
"K  c #4E4E4E",
"L  c gray31",
"P  c #505050",
"I  c #515151",
"U  c gray32",
"Y  c #535353",
"T  c gray33",
"R  c #555555",
"E  c gray35",
"W  c #5A5A5A",
"Q  c #5B5B5B",
"!  c #5D5D5D",
"~  c gray37",
"^  c #5F5F5F",
"/  c #606060",
"(  c gray38",
")  c #626262",
"_  c gray39",
"`  c #646464",
"'  c #656565",
"]  c gray40",
"[  c #676767",
"{  c #686868",
"}  c gray42",
"|  c #6C6C6C",
" . c #6D6D6D",
".. c gray43",
"X. c #6F6F6F",
"o. c gray44",
"O. c #727272",
"+. c gray45",
"@. c #747474",
"#. c #767676",
"$. c gray47",
"%. c #7C7C7C",
"&. c gray49",
"*. c gray50",
"=. c #808080",
"-. c #818181",
";. c gray51",
":. c #838383",
">. c #868686",
",. c gray53",
"<. c #888888",
"1. c #898989",
"2. c gray54",
"3. c gray55",
"4. c #8D8D8D",
"5. c #8E8E8E",
"6. c gray56",
"7. c #909090",
"8. c gray57",
"9. c #929292",
"0. c #939393",
"q. c gray58",
"w. c #959595",
"e. c gray59",
"r. c #989898",
"t. c gray60",
"y. c #9A9A9A",
"u. c #9B9B9B",
"i. c gray61",
"p. c #9D9D9D",
"a. c #A0A0A0",
"s. c gray63",
"d. c #A2A2A2",
"f. c #A4A4A4",
"g. c gray65",
"h. c #AAAAAA",
"j. c gray67",
"k. c #ACACAC",
"l. c #AEAEAE",
"z. c #AFAFAF",
"x. c gray69",
"c. c #B1B1B1",
"v. c #B6B6B6",
"b. c #B9B9B9",
"n. c gray73",
"m. c #BCBCBC",
"M. c gray74",
"N. c gray",
"B. c gray75",
"V. c #C0C0C0",
"C. c #C1C1C1",
"Z. c #C3C3C3",
"A. c #C5C5C5",
"S. c gray78",
"D. c #CBCBCB",
"F. c gray80",
"G. c #CDCDCD",
"H. c gray81",
"J. c #D0D0D0",
"K. c gray82",
"L. c #D2D2D2",
"P. c gray83",
"I. c #D5D5D5",
"U. c gray84",
"Y. c #D7D7D7",
"T. c #D8D8D8",
"R. c gray85",
"E. c #DADADA",
"W. c gainsboro",
"Q. c #DFDFDF",
"!. c #E1E1E1",
"~. c #E4E4E4",
"^. c gray90",
"/. c gray91",
"(. c #E9E9E9",
"). c gray92",
"_. c gray93",
"`. c #EEEEEE",
"'. c #EFEFEF",
"]. c gray94",
"[. c #F1F1F1",
"{. c gray95",
"}. c #F4F4F4",
"|. c gray96",
" X c #F6F6F6",
".X c gray97",
"XX c #F8F8F8",
"oX c #F9F9F9",
"OX c gray98",
"+X c #FBFBFB",
"@X c gray99",
"#X c #FDFDFD",
"$X c #FEFEFE",
"%X c white",
/* pixels */
"                                                                                                                                ",
"                                                                                                                                ",
"                                                                                                                                ",
"                                                                                                                                ",
"                                                                                                                                ",
"                                                                                                                                ",
"                                                                                                                                ",
"                                                                                                                                ",
"                                                                                                                                ",
"                                                                                                                                ",
"                                                                                                                                ",
"                                                                                                                                ",
"                                                                                                                                ",
"                                                                                                                                ",
"                                                                                                                                ",
"                                                                                                                                ",
"                                                                                                                                ",
"                                                                                                                                ",
"                                                                                                                                ",
"                                                                                                                                ",
"                                              s.%.J 8 X X X X X X X = $.                                                        ",
"                                      >.a = $ X X ; 8 C ]           y X y m.                                                    ",
"                                  :.6 X $ D                             $ = :.                                                  ",
"                                V X 8                                     0 X }                                                 ",
"                            f.; $ R                                         c X ]                                               ",
"          0 $ X X X ; R   o.$ 1                                               c $  .                                            ",
"        $ 1  .6.q.<.V X 8 X f                                                   X X X X X X X X X $ $ = 1 6 y c A ) 6.          ",
"        X f.$X$X$X$X`.8 X A /.                                f 0.              X 0 0.>.:.$.o. .] ~ W J D V c y ; X X X ~       ",
"        X V.$X$X    OXa X /.                                  X X 1 m s.        X c $X$X$X$X$X$X$X$X$X$X$XOXOX X].Y.q.c X )     ",
"        X S.$X$X$X$XOXa $ `.                                0 1 ) 1 X D         X j $X$X$X$X$X$X$X$X$X$X$X$X$X$X$X$X$X`.y a     ",
"        X D.$X$X$X$XOXa $ ].                              ) X f q.q.X W         = 0 OX$X$X$X$X$X$X$X$X$X$X$X$X$X$X$X$XQ.8 f     ",
"        X F.$X$X$X$XOXa $ ].                            :.X X X X X X a         j = m.m.x.s.t.6.>.:.:.<.q.t.t.t.q.:.J = X       ",
"        X F.$X$X$X$XOXa =                             A X = x.m.0.R 0 X v.       .X $ X X X X X X X X X X X X X X X = y         ",
"        X F.$X$X$X$XOXy =  X              j.t.%.W f $ X X U $X$X$X$Xb.$ c       k.X c %.6.<.X a                                 ",
"        X F.$X$X$X$XOXy = OX    C X X X X X X X X 6 J o.X J  X$X$X$XOXU X ~     F.$ ~ $X$X$X0 1                                 ",
"        X F.$X$X$X$XOXy =       Y.<.#. .}  .:.s.F. X$XT.$ X U T.$X$X$X`.f X V i.U X <.$X$X X1 0                                 ",
"        X F.$X$X$X$XOXy ;                           /.a X $ X ; ) Q.$X$X~.J X X X m /.$X$Xi.X )                                 ",
"        X J.$X$X$X$XOXy ;                           #.X ] /.q.0 X = R k.].OXS.i.s.V.k.6.W = 1                                   ",
"        X J.$X$X$X$XOXy ;                           ~ X k.$X$X].6.j X X = 0 y 6 X X X X X c                                     ",
"        X J.$X$X$X$X Xy ;                         $Xm.$ y ~.$X$X$X Xm.~ a 6 6 8 c R  .X m                                       ",
"        X D.$X$X$X$X X0 ;                         $Xk.; X c ~.$X$X$X$X$XOX].]. X$X$X$X6 0                                       ",
"        X V.$X$X$X$X X0 ;                         J.; = V X j F.$X$X$X$X$X$X$X$X$X$XY.$ V                                       ",
"        X b.$X$X$X$X X0 =                       $X>.X q.OX] $ ; f. X$X$X$X$X$X`.Y.f.a X                                         ",
"        X s.$X$X$X$X`.6 X ;                       <.X 6.$XOXt.= X j R ] ) U j 6 = X $                                           ",
"        X G  X$X$X$Xk.$ m 8 X y %.!.$X$X        $XT.; 1 V.$X$XJ.J $ X X X X X X y 0.                                            ",
"        V X 0 J U m X =       6 X $ D 6.F. X  $X$X$Xi.$ 6 m.$X$X$X/.F.m.V.J.Q.= A                                               ",
"            0 1 ; 6               c ; X $ 0  .m./.$X$X6.$ $ 0. X$X$X$X$X$X X$.X  .                                              ",
"                                          ; X X 6 A :.J.x.1 X m q.j.k.f.o.f X 0                                                 ",
"                                                c $ X X 8 a X X X X X X X 1                                                     ",
"                                                        j 1 X X X 6 m                                                           ",
"                                                                                                                                ",
"                                                                                                                                ",
"                                                                                                                                ",
"                                                                                                                                ",
"                                                                                                                                ",
"                                                                                                                                ",
"                                                                                                                                ",
"                                                                                                                                ",
"                                                                                                                                ",
"                                                                                                                                ",
"                                                                                                                                ",
"                                                                                                                                ",
"                                                                                                                                ",
"                                                                                                                                "
};
