/* XPM */
static char *result[] = {
/* columns rows colors chars-per-pixel */
"64 64 237 2 ",
"   c #39311C",
".  c #3C3823",
"X  c #49361C",
"o  c #553A1E",
"O  c #5C3C1F",
"+  c #613D1F",
"@  c #443B24",
"#  c #473C26",
"$  c #543D21",
"%  c #5B3D21",
"&  c #623E21",
"*  c #6A3F20",
"=  c #4C422B",
"-  c #5E4225",
";  c #56452A",
":  c #594D33",
">  c #644223",
",  c #6B4323",
"<  c #644629",
"1  c #644A2C",
"2  c #6C4B2D",
"3  c #724324",
"4  c #744C2B",
"5  c #7A4D2B",
"6  c #75512F",
"7  c #6A4E31",
"8  c #724F30",
"9  c #695334",
"0  c #745232",
"q  c #7C5433",
"w  c #7C5A38",
"e  c #7D673F",
"r  c #706242",
"t  c #864E2A",
"y  c #9F5027",
"u  c #9A532B",
"i  c #855B36",
"p  c #965B34",
"a  c #A3532A",
"s  c #A3552B",
"d  c #AB562A",
"f  c #AE592C",
"g  c #B0572C",
"h  c #B35A2D",
"j  c #BA5D2F",
"k  c #A65C32",
"l  c #B45E31",
"z  c #BA5F30",
"x  c #88623C",
"c  c #96633B",
"v  c #9D673D",
"b  c #8B7B3C",
"n  c #AC6234",
"m  c #A8663B",
"M  c #B46435",
"N  c #BC6232",
"B  c #B96738",
"V  c #B56C3D",
"C  c #BC6C3C",
"Z  c #C36432",
"A  c #CA6633",
"S  c #C56936",
"D  c #CC6B36",
"F  c #C46C3A",
"G  c #CA6C39",
"H  c #D26E36",
"J  c #D26E38",
"K  c #C4723D",
"L  c #CB733C",
"P  c #CF793F",
"I  c #D37237",
"U  c #D47339",
"Y  c #D8793C",
"T  c #856944",
"R  c #947545",
"E  c #A66D43",
"W  c #B76F40",
"Q  c #BB7543",
"!  c #C26F40",
"~  c #C77642",
"^  c #CD7C45",
"/  c #D27A41",
"(  c #D97C42",
")  c #799D3D",
"_  c #7BA23F",
"`  c #759C42",
"'  c #7B9D43",
"]  c #75A343",
"[  c #7BA543",
"{  c #7BAA44",
"}  c #7AA749",
"|  c #7DAA4A",
" . c #7EB550",
".. c #859F3C",
"X. c #87A73E",
"o. c #98A53C",
"O. c #94AB3D",
"+. c #9CAC3D",
"@. c #95B23F",
"#. c #A4AC3D",
"$. c #ADAC3D",
"%. c #B5AD3D",
"&. c #A9B23E",
"*. c #B4B33D",
"=. c #BBB33B",
"-. c #C29A3C",
";. c #C7AE3A",
":. c #D8BC3A",
">. c #E9C637",
",. c #F1CD39",
"<. c #889E45",
"1. c #99984B",
"2. c #939250",
"3. c #A89247",
"4. c #B99C48",
"5. c #A89C57",
"6. c #B69A5B",
"7. c #84A543",
"8. c #8AA542",
"9. c #84AA43",
"0. c #8BAB43",
"q. c #86A94B",
"w. c #94AC42",
"e. c #98AA47",
"r. c #88B64D",
"t. c #97B044",
"y. c #85AC52",
"u. c #8AAE55",
"i. c #89AA59",
"p. c #99AB57",
"a. c #8BB357",
"s. c #93B35C",
"d. c #9BB45B",
"f. c #A7AA44",
"g. c #B8AE44",
"h. c #A8B144",
"j. c #B9B444",
"k. c #A3A75B",
"l. c #BAAA59",
"z. c #A7B258",
"x. c #B9B75A",
"c. c #B69C63",
"v. c #8DB361",
"b. c #95B462",
"n. c #9BB564",
"m. c #99B768",
"M. c #9BBA74",
"N. c #BAA868",
"B. c #A8B768",
"V. c #A4BC6B",
"C. c #BDBB63",
"Z. c #B5B76A",
"A. c #ACAD71",
"S. c #AABA75",
"D. c #B9BA77",
"F. c #CC8247",
"G. c #D58146",
"H. c #C49A45",
"J. c #C0965C",
"K. c #C4A748",
"L. c #C6B748",
"P. c #D4BC49",
"I. c #C6A559",
"U. c #CBBB54",
"Y. c #C6BC59",
"T. c #D1BA52",
"R. c #C6AC64",
"E. c #C5B966",
"W. c #CBAF73",
"Q. c #C8B976",
"!. c #D2B875",
"~. c #97C25C",
"^. c #9CC562",
"/. c #A6C76A",
"(. c #AAC36E",
"). c #BAC16A",
"_. c #ABC376",
"`. c #B4C373",
"'. c #B7C776",
"]. c #BBCB7B",
"[. c #AED071",
"{. c #B4D274",
"}. c #BAD479",
"|. c #BDD57B",
" X c #D9C34B",
".X c #CAC25B",
"XX c #D5C75A",
"oX c #E1CD5B",
"OX c #C8C565",
"+X c #C3C46C",
"@X c #CCCB6C",
"#X c #D3CB64",
"$X c #D5D06B",
"%X c #C7C777",
"&X c #CCCD74",
"*X c #C4C37A",
"=X c #CBC37C",
"-X c #C4CA7B",
";X c #D3CD72",
":X c #D2C77E",
">X c #D4C97F",
",X c #C1D57E",
"<X c #C8D67A",
"1X c #CCD27C",
"2X c #D2D275",
"3X c #B2B983",
"4X c #D0BC8C",
"5X c #B8C888",
"6X c #BED180",
"7X c #C5CE84",
"8X c #CBCC82",
"9X c #C8C886",
"0X c #D4C484",
"qX c #D3CB81",
"wX c #C4D483",
"eX c #CCD484",
"rX c #C5DA83",
"tX c #CBDC85",
"yX c #C7D38B",
"uX c #CDDC8A",
"iX c #D3D485",
"pX c #D1DA85",
"aX c #D6D489",
"sX c #D2DD8C",
"dX c #C7CB96",
"fX c #D3CA94",
"gX c #CCD694",
"hX c #D6D797",
"jX c #CDE089",
"kX c #D5E38F",
"lX c #D8E38F",
"zX c #D6E390",
"xX c #D8E391",
"cX c #CBD4A9",
"vX c #E0D7A1",
"bX c #DBE4A7",
"nX c #E0EAAC",
/* pixels */
"nXnXnXbX4XbXnXnX_.%XyXM.9XcXdXhXnXnXnXnXnXnXnXnXnXnXnXvX4XfXvXhX3XD.4XA.Q.cXcXfXnXnXnXnXnXnXnXnXnXnXnXnXhXfXnXnXbXM.;X5X`.gXcXdX",
"yXkXkXkXsXxXxXlX_.O..Xy.} @.y..XtXkXkXkXkXkXzX_.5XzXqXF.Y G.G.c - l Z S ! k.X.Y.@XkXkXkXkXkXlXwX5XpXzXzXkXkXkXkXkXs.$.B.{ 9.e.b.",
"9XsXkXlXlXzXzXxXkXy.` +.[ L.(.t.$XkXkXkXkX(./.a.*XgXqX/ U G.G.i % z N Z S K.].'  XkXkXkXkX{./.s.Z.9XsXzXkXkXlXlXlX<X[ ' X.O.Y.s.",
"8.m.pXkXxXzXxXzXzXpX%X&Xs.$.d.8.oXzXkXkX`.9.f.{ 9.a.W./ U Y Y x % z N Z F 5.x.} :.kXkXkXjX .e.7.{ a.A.zXkXkXxXlXlXlXwX;X1Xq.j.s.",
"Z.b.&XzXzXzX[.zXxXxX{.x.'.{ 7.L.pXkXkXkXm.*.B.7..X| R.G.U Y Y i $ l z Z C 5.[ $.@XkXkXkX].0..X] g.s.z.sXzXzX|.,XlXkXkXB.&Xn.{ O.",
"sXC.pXkXzXzXkXkXzXzXV.9.} 8.w.&XkXkXkXzXu.%.n.t.1X*XE.P I Y Y 6 X u u a p 1.[ Y.kXkXkXkXV.t.C.[ .XtXOXzXkXzXkXzXkXkXkXu.7._ { %.",
"yXkXkXzXkXzXzXzXzXzXkXV.Y.-Xf.+XkXzXkXlXd.' | w.5XkX>XP I I Y i   @ # # : Z.p.L.kXkXkXkX`._ { { `.aXkXkXkXkXzXkXkXkXkXeXn.OX`.j.",
"v.-XkXkXkXkXkXkXzXzXzXzXzXkXzXxXkXkXkXlXsXXX8.o.w.3X:XP I Y Y q $ i i i R 9XzXzXkXkXkXlXkX@Xh.7.+.M.1XzXzXkXkXkXkXkXlXxXxXxXkXzX",
"y.T.kXkXsX9X1XkXkXzX[.{.kXkXkXkXkX|.kXb.z.sX] U.s.Y.Q./ I I U 6 % l z z F :XzXkXkX,XkX'.<.pXn.$.B.n.XXkXkXhX%XuXkXkXkX~.rXkXkXkX",
"' .XzXkX%X,.K.sXkXzX|.tXkXkXzXkXxX}.kXs.8.n.[ z.q.j.=XP I I U 6 % g h z S 0XzXkXzX,XkX(.{ z.{ f.n.t.2XkXkXY.,.l.kXkXkX{.kXkXsXkX",
"=.;XkXzX%X-.N.kXkXkXkXzXyXT.l.kXlXxXkXwXh.t.[ X.o. X>XP I I P 6 * g j z ! I.L.eXzXxXkXkXz.h.{ 8...:.sXlXkXx.-.*XkXlXkXxXxX%XP.+X",
"2XzXkXkXzXzXkXkXkXjX{.zX+X>.K.zXzXzXzXzXsXd.=.@X2XpX>XP I I I 8 & h h N G :.K.1XxXzXlXkXkX'.O..X;X1XlXsXkXkXkXkXkXkX{.jXxXT.:.R.",
"kXkX/.~.kXkXkXzXzXkXzXzXpXl.iXkXkXkXzXkXzX1XY.kXzXkX%XL I D I 8 & g j z G N.Q.kXkXlXlXzXlXsXY.iXlXlXkXr.{.kXkXkXkXkXkXkXxX%XE.sX",
"kXzXkX|.kXzXkXkXkXkXkXkXkXkXkXkXzXzXzXkXzXkXkXkXzXkX:XP I I G 8 & g z Z G :XkXkXkXkXkXkXlXxXzXkXlXlXlXrXjXzXkXkXkXzXkXzXkXkXkXzX",
"zXkXkXgXeXkXsXkXkXzXzXzXkXkXkXkXkXkXkXkXzXzXlXlXlXlX:XL D I L 8 * h z Z L :XkXkXkXzXxXkXlXzXxXzXlXlXkXkXyXsXpXsXkXkXzXzXkXzXzXkX",
"zXzXkXv.*Xm.n.&XkXkXtXjXkXkXkXkXkXuX|.kXzXzXlXlXlXlX:XK S G K 9 & g z Z P :XkXkXzXzX[.xXlXxXxXxXxXzXxXyXm.D.s.Z.tXkXzX|.kXkXkXzX",
"kXkXtXy.| f.y.l.kXzXtXtXxXkXkX|.jXkXzXzXzX+XT.7XkXlXD.9 1 < ; = > g N A P >XkXuX}.zXzXkXxX8XY.Q.zXxXxX7X{ 7.z.q.E.kXkX,XkXkXkXkX",
"kXkXy.O.{ *.eXuXkXzXzXlXkXkXkX/.{.kXzXzXzXx.>.Y.lXkXB.9 : 9 9 ; > g N D P >XkX|.~.zXkXkXzX*X:.>.pXxXrX} +._ Y.pXjXkXzXkXzXzXzXkX",
"zXkX| L.(.9.OX5X].pXlXlXkXlXkXkXkXzXzXzXzXeXR.].kXlXZ.Q Q C V 0 > j Z D / >XkXlXsXxXlXlXxXsXE.A.kXlXwX9.XXs.&.7X5X1XkXkXkXzXkXkX",
"kXkXV.O.Y.{ { +.u. XkXlXzXkXkXkXkX_.wXzXxXkXzXzXkXkX=XK G D B 6 > z A H / qXkXkXzXyX5XkXxXxXzXzXkXkXkXy.$.B.{ 9.O.z.XXkXkXkXkXkX",
"kXzXsX| ` O._ U.n.h.;XlXlXlXkX(./.r.Q.gXxXxXxXxXzXzXqXK G D Z w , Z D H Y >XkX].(.a.`.9XxXxXxXzXkXkXzX6X] ' 8.o.).y.=.eXkXkXkXrX",
"xXzXzXtX@X1Xa.=.n.8.#XlXzXlX(.9.+._ q.v.&XsXsXxXxXxX>XK D D D i 4 S H I ( >XuX} #.[ 7.u.Z.zXzXzXxXkXzXzX-X@X<X| L.u.$.2XkXkXzXa.",
"{.kXkXkX_..XS.{ 7.L.tXzXzXkXu.%.n.X.OXy.#XxXxXxX^.zX>XL D D D w t H U U ( >XV.O..X] L.s.x.kXzXkX{.tXxXxXzXB.2Xs.[ o..XkXkXkXuX] ",
"zXkXkXkXn.9.{ X.+.<XkXzXzXzXq.%.V.&.eXC.%XxXxXxXzXkX>XL D D D x t J U U G.>Xd.#.`.X.#X,XC.kXzXzXxXsXsXxXzX| 7.9.[ j.zXkXzXkXwX[ ",
"kXkXzXkXkXb.E.'.f.+XxXzXkXkXq.) { e.yXzXlXlXlXxXhXxX>XP D D D w t G I I / >XB.) [ 0.`.sXzXzXzXzXxXhXzXzXxXyXp.OXV.j.wXzXzXkXtX' ",
"kXzXzXzXzXhXsXlXxXxXzXzXkXlXaXXX[ o.0.5XxXsXlXxXlXxX:XK S D G e 4 S D K ~ qXxX#Xe.X.w.A.jXzXkXzXxXxXxXzXxXxXxXxXxXxXzXxXkXkXzX;X",
"0XW.W.W.W.c.A.D.W.W.!.Q.!.5.I.!.3.I.5.I.!.!.!.!.!.Q.W.F S D K x ; 1 8 6 e N.6.!.5.4.6.6.R.Q.D.3XW.Q.!.!.!.N.W.!.!.!.0XQ.Q.Q.2.=X",
"H.F S S W t = E B N S S S Z S G D L I J U U Y Y U F x B S S D x 9 e e x R ~ K L F S S A K B 7 e C B N B N M M N C B B M M M n 5.",
"J.F Z Z z t # E N j j N Z N N Z A S D D I I U U U Z i B Z S S w 1 C ! G ~ ~ A A Z Z Z Z Z l % 7 C j j j j h j j j h g f l f f 3.",
"!.Z Z Z j t @ c j j h j j j j j j N N S D H J I J Z q M Z A S 6 - A A H D S Z A Z N Z Z z l % : M j g g h h g g g d d d d d f N.",
"Q.l l l h t   p f d d g g d g f g f f j N S H H J B q N Z Z S 8 > S A J G Z j j z z z z z l % ; M g g j g g d f d d d d d s s Q.",
"A.$ # $ o   @ $ o o o o o o O - % % - - > 2 4 4 2 < 9 N N Z Z 8 > S A D G q & & % o % O o o . # % O + + + + + & > > & > & O % A.",
"%Xm m m v c c c i p p i i i i w = 1 i i c c c c x v v M N Z N 2 2 Z A A D 9 0 w q q q t q 5 q q 4 0 4 4 2 2 2 2 ; @ 7 8 8 8 8 A.",
"l.G.G.Y Y Y Y U U U U I U I U C # w B Z A D H D L D L N N S N 6 > Z A A S w V M N N N z z z h h z f g g f f d s & # s a a a s W.",
"5./ G.Y U U U U U U I H H H D B ; w ~ D D D D D D D S N N Z N 1 , Z A D S w C N N j z z z z h N h h g f d s d s % X s y a u u N.",
"!.P U U Y I U U I I I I I D D B ; 9 ~ G D S D D S S K N Z N B 1 > Z A D F w C N N z z l f g f f f g f f d d s s & @ k y y a s N.",
"W.^ / F.^ F.G.^ / ^ F.G.F.^ ^ Q 9 e F.^ ~ K ~ K P ~ E 5 4 3 3 @ * N A D G T Q Q V V W W M m M m n m l m m m m m 8 : E k k k E D.",
"9.h.p.T.aXpXaXiXaXaXaXS.=XaXiXiXwXyXpXgXD.7.L.i.9.+.2.= = @ @ . , z A S ^ Q.aXaXiXeXqXeX8X<.g.p.7.8.e.z.Y.qX8XeX7X7XeX-X3X*X8XaX",
"X.Y.s.h.1XkXkXkXuX/./.u.D.gXlXkXkXzXzXkXzXs.) X.] ;.Z.m V m m : 3 Z A A ~ 9XzXzXzXkXkXzXzX]._ ) 0.$.+X} ;.sXkXkXzXyXV.s._.*XzXzX",
"y.L.s.o.XXkXkXkXV.8.+.[ q.m.&XkXkXkXxXzXzXsX).;XV.+.l.M N N B 1 , z Z A ~ k.D.zXkXkXzXzXzXzX].@X%X[ U.| =.eXkXzXzXy.O.9.} y.A.sX",
"V.{ X.L.sXkXkXkXy.*.m.t.OXy.OXkXkXxX/.zXkXkXwXC.eX} <.M z z N 1 , z Z A ~ p.l.kXkXkX[.rXkXkXkXZ.pXa.{ o..XzXzXkXeX[ XXs.*.B.z.@X",
"{ 9.$.tXlXkXkXkX} P./.*.pXC.<XkXkXkXkXkXkXkX(.9.[ q.1.z N N N 1 , z Z Z ! E.E.kXzXzXkXzXkXkXtX} 8.0.{ L.zXzXkXkX|.0.$X| L.tXx.kX",
".XV.f.%XkXkXzXkX7.` } e.yXkXkXkXzXkXzXzXzXkXkXV.x.+X1.B z N N 1 * j N Z L qXkXkXkXkXkXzXzXzXlX].p.#Xm.j.jXkXzXkXwX) ` } B.uXkXkX",
"kXzXxXxXkXzXkXkX<X.X] f.a.Q.kXkXkXkXkXkXkXkXlXkXlXsX9XM j z N 1 * N Z Z K N.jXkXkXzXkXkXkXzXxXxXkXkXkXkXlXkXzXkXlX;Xh.7.#.b.<XkX",
"kXkXkXkXkXrXzXa.).wXX.XX9..XzXzXkX9X8XzXkXkX{./.zXzX=XM h j z 1 * z Z Z ! l.2XlXzXyX*XuXkXkXtX~.kXkXkXkXzXtXjXpX0.&X[.*.OXu.XXlX",
"kXkXkXkXjX|.xXy.e.s.O.+X}  XzXkX8X>.P.eXkXzXrX|.xXxX=Xl h j z < + j z N V K.&XkXkX X>.*XkXkXkX[.kXkXzXkXzX|.tXyX| d.u.#.V.8.oXkX",
"9XP.E.kXlXzXlX`.f.9.[ [ o..XkXlX].-.l.sXkXkXkXzXgXU.g.M h M h < X , , , 6 L.uXkXkX4.4.7XkXkXkXkXxXQ.L.-XzXzXlXlXz.#._ _ _ =.<XkX",
"E.>.l.kXkXkXkXkXuXq.g.@X#XlXkXkXkXkXzXkXkXkX{.zX=X>.H.n g h M 7 @ = = ; r -XkXkXkXkXzXkXkXxX[.xXsXP.:.E.zXzXkXkXkXwX) .X#X@XkXkX",
"%XI.tXkXkXzXkXkXkX2XOXkXkXlX}.~.xXkXzXzXkXkXxXzXuXl.R.k f h M < < k m B Q qXkXr.jXzXzXzXzXzXxXxXxXC.R.kXzXzXkXkXxXkXXX<XkXkXkX^.",
"lXkXkXkXkXkXzXkXkXkXzXkXkXkXjX{.lXxXlXlXlXkXzXzXlXkX=Xn f h h < * g j j C =XkX[.kXzXzXzXzXzXzXzXxXkXkXkXkXkXkXkXkXkXkXkXkXkXzXrX",
"kXkXkXkXzXzXkXkXkXkXkXkXkXkXkXkXeXxXkXzXzXlXxXzXxXkX=Xn g h g < 3 h h j W qXkXkX7XzXxXzXzXzXzXzXzXzXkXzXkXzXkXkXzXkXkXkXkXzXzXzX",
"kXkXkXkXzX|.6XkXkXkXkXkXkXkXkXm.D.S.m.OXkXlXzXkXxXxX=Xn f f f - * h h z C qXkX5XS.S.v.E.zXxXzXjXzXkXkXkXkXkX/.kXzXkXzXkXkXkXzXuX",
"zXkXxX,XkXkXkXkXkX).!.uXkXkXkXs.r.O.q.l.kXlXkXrXkXkX=Xk f f f ; * h h j C qXkX]. .7.p.p.&XzXzX,XkXkXkXkX|.kXkXkXzXpXY.9XkXkXkXuX",
"zXkXxXr.|.zXzXzXkX-.,.+XkXkXm.0.9.*.eXpXkXlXkXlXkXkX9Xk s d f - 3 h g j C :X].7.8.O.$X1XzXxXxXxXlXkXkXjXr.kXkXkXzXqX;.>.8XkXkX| ",
"zXzXkXxXkXkXkXzXkX%XR.wXkXkXr.$.S._ Y.gX7XpXxXlXkXkX=Xk s s k ; * g g j C :XV.X.OX| *.yX5X1XzXzXlXkXzXxXzXkXkXlXzXzXE.N.uXzXtX] ",
"zXkXkXkXkX5XtXzXlXlXkXkXkXzX'.0.XXy.| @.u.U.pXlXlXkX=Xk d d f ; t g g g C >XsX9.L.m.q.0.O.).@XzXlXkXkXlXkXtX5XsXzXzXzXzXkXkXkXb.",
"kXkXkXV.m.m.E.kXkXlXkXkXlXzXkXy.` 8.[ P./.O.#XkXzXzXQ.8 * * 8 # * g g h C qXxXS._ ) 9.*.+X| :.zXlXkXkXwXV.b.S.%XlXxXxXzXlXxXlXwX",
"kXkXn.9.w.} u.M.tXlXlXkXlXxXzXuX).@Xd.#.B.`  XzXzXzXA..     @ . * g g h W qXlXlX'.@X)._ .X{ =.tXlXlXsX| o.9.y.i.S.kXkXxXxXzXxXlX",
"kXzX .;./.h.C.i.@XlXlXlX/.zXzXzXwX+X|.{ _ =.1XkXzXzXA.p k u p $ * g g h V qXlXkXkXZ.tXr.] o.XXzXxXlXwX0.oXy.g.d.z.tXkXkXrX{.lXlX",
"zXkX}  Xs.h.jXx.1XlXxXkXkXzXzXzX(.0.} 9.o.&XkXkXzXzXk.u y a a 1 3 g g h W qXkXkXwX[ 8.9._ Y.kXkXkXxX].0.#X] j.wXx.kXkXkXkXlXkXkX",
"kXxX<.` { e.gXzXkXkXzXzXkXkXzXkXkXm.x.OXe.OXxXkXzXzXk.u y y a 1 * d f f V iXkXzXlX].d.XXs.=.kXkXkXxX].' ` ] `.kXzXzXzXkXkXzXkXkX",
"kXzX<Xj.{ h.s.%XkXzXkXzXkXkXkXzXzXzXkXkXkXzXzXlXzXzX*Xk y y a 1 * d d f V qXkXzXxXlXlXkXlXkXjXkXkXxXlX@Xf.9.+.M.tXkXzXzXkXkXkXkX",
"xXa.+X6XO.XX9..XkXkXsX9XeXkXlXkX{.[.zXzXkXkXzXrXlX(.1.k y y s 1 , s f f V qXkXzX<X^.lXkXkXkXkXjXkXwXu.iXV.*.+Xv.XXzXzXkX9XeXkXkX",
"xX| e.b.@.`.]  XkXkX9X>.T.uXkXzX}.|.zXkXzXzXxX{.xXn.8.R R 3.R b 2.6.6.F.H.D.kXzXjX[.lXkXlXkXlX}.jX].{ z.y.f.V.8.#XkXxXE.>.Y.lXzX"
};
